<?xml version="1.0" encoding="UTF-8" standalone="no"?>
<svg
   width="166"
   height="35"
   viewBox="0 0 166 35"
   fill="none"
   version="1.1"
   id="svg46"
   sodipodi:docname="barrons.svg"
   inkscape:version="1.1.1 (3bf5ae0d25, 2021-09-20)"
   xmlns:inkscape="http://www.inkscape.org/namespaces/inkscape"
   xmlns:sodipodi="http://sodipodi.sourceforge.net/DTD/sodipodi-0.dtd"
   xmlns="http://www.w3.org/2000/svg"
   xmlns:svg="http://www.w3.org/2000/svg">
  <defs
     id="defs50" />
  <sodipodi:namedview
     id="namedview48"
     pagecolor="#505050"
     bordercolor="#eeeeee"
     borderopacity="1"
     inkscape:pageshadow="0"
     inkscape:pageopacity="0"
     inkscape:pagecheckerboard="0"
     showgrid="false"
     inkscape:zoom="6.373494"
     inkscape:cx="82.92155"
     inkscape:cy="27.065217"
     inkscape:window-width="2560"
     inkscape:window-height="1009"
     inkscape:window-x="1912"
     inkscape:window-y="-8"
     inkscape:window-maximized="1"
     inkscape:current-layer="svg46" />
  <path
     d="m 145.28,0.85037 c 0.38,-0.283589 0.942,-0.703198 1.327,-0.8193755 0.435,-0.1313455 0.571,0.1667565 0.799,0.6672145 0.026,0.056733 0.053,0.116066 0.082,0.177668 1.39,2.973353 0.508,7.061983 -1.931,9.461123 -0.435,0.428 -1.472,1.13 -1.796,0.8786 -0.181,-0.1405 -0.051,-0.2572 0.162,-0.4491 0.146,-0.1312 0.331,-0.2976 0.482,-0.5307 2.262,-3.4862 1.355,-6.38657 0.44,-8.14366 -0.189,-0.36431 -0.199,-0.79114 0.17,-1.0474 0.069,-0.048303 0.16,-0.116164 0.265,-0.19437 z"
     fill="#4d5b5c"
     id="path2"
     style="fill:#ffffff" />
  <path
     d="m 154.873,30.4759 c -2.813,0 -5.987,-1.3642 -6.139,-2.0609 -0.119,-3.1971 -0.61,-4.8659 -0.61,-4.8659 -0.152,-0.7739 -0.188,-1.2087 0.186,-1.2709 0.389,-0.0648 0.481,0.3316 0.653,1.0749 l 0.025,0.1074 c 0.457,1.7795 2.768,5.833 8.014,5.833 3.611,0 6.205,-2.0877 6.166,-6.15 -0.031,-3.3051 -3.077,-4.2939 -6.35,-5.3562 -3.82,-1.2401 -7.948,-2.5803 -7.948,-7.82195 0,-4.91343 3.727,-7.60647 8.098,-7.56914 3.04,0.02626 4.278,0.66805 4.924,1.00335 0.19,0.09817 0.328,0.17007 0.447,0.19255 0.428,0.0814 0.682,-0.13626 0.899,-0.32239 0.144,-0.12303 0.272,-0.23228 0.423,-0.23228 0.228,0 0.418,0.11597 0.456,0.54166 l 0.543,5.40645 0.003,0.02547 0.003,0.0237 c 0.002,0.01829 0.005,0.03643 0.008,0.05436 0.037,0.2653 0.068,0.48396 -0.269,0.48396 -0.347,0 -0.519,-0.53179 -0.641,-0.90867 -0.025,-0.07726 -0.048,-0.14801 -0.07,-0.20634 -0.986,-2.62968 -3.686,-4.77738 -7.031,-4.77738 -3.003,0 -5.76,1.50873 -5.76,5.06844 0,3.32391 3.056,4.34381 6.376,5.45151 3.945,1.3163 8.261,2.7566 8.261,8.3347 0,3.25 -2.039,7.9406 -10.667,7.9406 z"
     fill="#4d5b5c"
     id="path4"
     style="fill:#ffffff" />
  <path
     d="m 120.187,25.7921 c -0.373,3.4084 -1.202,3.606 -2.225,3.85 -0.093,0.022 -0.187,0.0445 -0.283,0.0698 -1.04,0.2746 -0.643,0.9122 0.034,0.8106 0.253,-0.0373 2.115,-0.2361 3.389,-0.2361 1.05,0 2.042,0.0583 2.859,0.1064 0.571,0.0336 1.057,0.0621 1.416,0.0621 0.364,0 0.842,-0.5066 -0.04,-0.743 -0.137,-0.0368 -0.3,-0.0636 -0.481,-0.0934 -1.17,-0.1922 -3.074,-0.5051 -3.28,-4.3669 -0.173,-3.2644 0.116,-14.421 0.116,-14.421 0,-0.7795 0.109,-0.89692 0.255,-0.89692 0.201,0 0.408,0.27432 0.607,0.53782 0.053,0.0702 0.106,0.14 0.157,0.2032 l 15.571,19.7443 c 1.642,1.9155 1.744,1.341 1.71,-0.5849 -0.109,-6.2166 0.085,-23.37018 0.085,-23.37018 0.029,-2.17954 1.313,-2.38069 2.219,-2.52265 0.498,-0.07791 0.881,-0.13798 0.881,-0.49737 0,-0.23392 -0.145,-0.35131 -0.364,-0.35131 -0.399,0 -1.14,0.05644 -1.945,0.11778 -0.958,0.07299 -2.007,0.15291 -2.68,0.15291 -0.591,0 -1.06,-0.04512 -1.522,-0.08951 -0.447,-0.04299 -0.887,-0.08529 -1.424,-0.08529 -0.218,0 -0.405,0.1171 -0.4,0.39062 0.005,0.3352 0.376,0.39848 0.884,0.48518 1.15,0.19635 3.005,0.51284 2.911,4.38046 l 0.037,16.15146 c 0,0.312 -0.02,0.9255 -0.546,0 L 121.83,4.11964 c -0.045,-0.05736 -0.096,-0.13027 -0.151,-0.20967 -0.208,-0.29809 -0.479,-0.68755 -0.795,-0.68755 -0.273,0 -0.86,0.03521 -1.448,0.07042 -0.587,0.03522 -1.175,0.07044 -1.448,0.07044 -0.292,0 -0.574,-0.03895 -0.856,-0.07791 -0.282,-0.03897 -0.564,-0.07794 -0.855,-0.07794 -0.182,0 -0.58,0.1584 -0.546,0.39034 0.064,0.42614 0.522,0.56171 1.126,0.74007 1.331,0.39367 3.368,0.99577 3.415,5.39105 0,0 0.091,14.45831 -0.085,16.06321 z"
     fill="#4d5b5c"
     id="path6"
     style="fill:#ffffff" />
  <path
     fill-rule="evenodd"
     clip-rule="evenodd"
     d="m 117.561,16.6101 c 0,8.9054 -6.017,14.643 -14.673,14.643 -8.4235,0 -13.5859,-6.094 -13.5859,-14.445 0,-8.2324 6.2887,-14.20879 14.2459,-14.20879 7.919,0 14.013,5.81799 14.013,14.01079 z m -2.834,1.504 c 0,-7.2034 -4.556,-13.94751 -12.126,-13.94751 -6.5215,0 -10.4654,5.2407 -10.4654,11.49371 0,7.3219 4.4743,14.2541 12.1604,14.2541 5.667,0 10.431,-4.4784 10.431,-11.8003 z"
     fill="#4d5b5c"
     id="path8"
     style="fill:#ffffff" />
  <path
     fill-rule="evenodd"
     clip-rule="evenodd"
     d="m 79.8261,16.4334 c 2.46,-1.0882 4.7662,-3.5383 4.7662,-6.56959 0,-7.24374 -7.5705,-7.11699 -8.5953,-7.09983 -0.0361,6.1e-4 -0.0644,0.00108 -0.0836,0.00108 -0.889,0 -1.9057,0.08282 -2.9501,0.1679 -1.1031,0.08987 -2.2372,0.18227 -3.2848,0.18227 -1.1242,0 -1.8436,-0.08103 -2.3798,-0.14142 -0.3187,-0.03589 -0.5726,-0.0645 -0.8085,-0.0645 -0.4218,0 -0.7034,0.23335 -0.7034,0.46699 0,0.4762 0.5282,0.52572 1.199,0.5886 1.1904,0.1116 2.8299,0.2653 2.7636,2.91991 V 26.6656 c 0,1.9798 -0.9201,2.5223 -1.6595,2.7666 -0.0864,0.0083 -0.1921,0.0225 -0.3208,0.0432 -0.86,0.1383 -2.5039,-0.4769 -4.1847,-3.2568 l -6.4777,-9.5991 c -0.1015,-0.0676 0.0171,-0.2365 0.0171,-0.2365 2.5121,-1.0881 5.1391,-3.6225 5.1391,-6.65412 0,-7.18858 -7.9998,-6.99174 -9.1714,-6.96292 -0.0509,0.00126 -0.0889,0.00219 -0.1128,0.00219 -0.9076,0 -1.8745,0.08208 -2.8679,0.1664 -1.0493,0.08908 -2.1281,0.18066 -3.1979,0.18066 -1.148,0 -1.8077,-0.07823 -2.2996,-0.13655 C 44.321,2.944 44.0881,2.91637 43.8471,2.91637 c -0.4303,0 -0.7193,0.23307 -0.7179,0.4667 0.0021,0.36798 0.4516,0.4127 1.0429,0.47154 1.1565,0.11506 2.8556,0.28412 2.8131,3.03018 V 26.6658 c 0.0097,2.244 -1.1463,2.7799 -2.0537,2.9066 -0.6153,-0.1232 -1.489,-0.4117 -2.0837,-1.4618 -0.7347,-1.297 -1.2658,-2.7573 -1.7653,-4.1309 -0.0443,-0.1217 -0.0883,-0.2429 -0.1322,-0.363 L 33.2213,3.06119 C 33.203,3.00721 33.1806,2.92925 33.1541,2.83696 33.0239,2.38378 32.7944,1.58526 32.4659,1.58526 c -0.3509,0 -0.499,0.35962 -1.449,2.66738 C 30.7017,5.0183 30.2981,5.9986 29.7697,7.25109 L 21.1776,27.6007 c -0.5679,1.3819 -1.5018,1.6496 -2.1475,1.8346 -0.4172,0.1196 -0.7141,0.2047 -0.7141,0.5337 0,0.2393 0.3446,0.5043 0.5607,0.5043 0.463,0 0.9603,-0.0624 1.4622,-0.1255 0.5115,-0.0642 1.0279,-0.1291 1.518,-0.1291 1.0066,0 2.0141,0.0388 3.3375,0.2572 0.898,0.1482 1.1062,-0.6153 0.3219,-0.798 -1.0165,-0.2364 -2.5411,-0.6975 -2.3255,-2.4362 0.2924,-2.3621 2.3763,-6.4974 2.3763,-6.4974 0.3594,-0.8375 1.2001,-1.115 1.8831,-1.115 h 7.9091 c 1.0069,0 1.2049,0.39 1.5648,1.3082 l 1.1504,3.2715 c 0.1457,0.4366 0.2826,0.901 0.4158,1.3531 0.1956,0.6634 0.3835,1.3006 0.5795,1.7846 0.7114,1.757 -1.1181,2.3988 -1.8297,2.3312 -0.5764,-0.0546 -0.4405,0.9801 0.5826,0.7954 0.9555,-0.172 2.1735,-0.2882 3.1443,-0.2882 0.7372,0 1.4163,0.072 2.0953,0.1441 0.5265,0.0559 1.053,0.1117 1.6066,0.134 0.0222,0.007 0.0408,0.0107 0.0549,0.0107 0.0704,0 0.14,-0.001 0.2089,-0.0028 0.0743,0.0015 0.1491,0.0022 0.2245,0.0022 0.0237,0 0.0517,-0.0056 0.0826,-0.0158 0.481,-0.0297 0.9322,-0.0958 1.3835,-0.1618 0.6089,-0.0891 1.218,-0.1782 1.8998,-0.1782 2.979,0 4.984,0.3111 5.3026,0.3654 0.8304,0.1414 0.9833,-0.4814 0.1866,-0.6692 -0.1802,-0.0426 -0.3916,-0.0786 -0.6219,-0.1178 -1.4158,-0.2408 -3.5482,-0.6037 -3.5629,-3.376 L 49.8207,18.505 c 0,-0.0502 -0.0035,-0.1055 -0.0073,-0.1638 -0.0255,-0.3938 -0.0598,-0.9241 0.9405,-0.9241 0.3401,0 0.6492,-0.0014 0.9309,-0.0027 1.6652,-0.0078 2.3734,-0.011 2.8661,0.3123 0.3646,0.2393 0.6112,0.6575 1.0402,1.3853 l 8e-4,0.0014 c 0.0522,0.0885 0.1071,0.1817 0.1653,0.2797 l 4.4534,6.8648 c 1.3637,2.2148 2.7637,4.1965 5.3839,4.1965 0.0205,0 0.0496,10e-5 0.0861,4e-4 0.3121,0.002 1.1675,0.0077 1.829,-0.0722 0.5417,-0.0124 1.1036,-0.0459 1.6655,-0.0794 0.7081,-0.0422 1.4166,-0.0844 2.0844,-0.0844 2.9166,0 4.7052,0.1459 5.0101,0.2302 0.5126,0.1414 0.7497,-0.5007 0.1736,-0.7035 -0.1329,-0.0467 -0.3536,-0.0698 -0.6244,-0.0981 -1.1622,-0.1215 -3.2484,-0.3396 -3.2926,-2.9425 V 18.505 c 0,-0.0504 -0.0035,-0.1056 -0.0072,-0.1637 -0.025,-0.3907 -0.0581,-0.9092 0.9211,-0.9245 0.8,-0.0127 1.4159,-0.0363 1.8971,-0.0548 1.6497,-0.0633 1.716,-0.0658 2.1881,0.6406 0,0 6.7601,8.2735 10.4363,11.7254 3.2136,3.0175 7.1811,5.1168 9.7437,5.2421 3.4557,0.1689 5.3197,-0.4124 5.3197,-0.8785 0,-0.2517 -0.219,-0.2445 -0.701,-0.2286 -1.304,0.043 -4.5274,0.1491 -10.5143,-4.6373 C 86.8614,25.2702 80.772,17.8558 79.8261,16.6362 c -0.0555,-0.0713 -0.0245,-0.1399 -0.0078,-0.1768 0.0059,-0.0131 0.01,-0.0222 0.0078,-0.026 z M 72.5296,5.43745 c 0,-1.37694 0.6874,-1.3686 1.7621,-1.35556 0.1082,0.00131 0.2203,0.00267 0.336,0.00267 3.4447,0 6.9153,1.71409 6.9153,6.45494 0,4.8196 -3.6748,5.5556 -5.1863,5.5556 -0.283,0 -0.5815,0.0057 -0.8819,0.0114 -1.4525,0.0278 -2.9486,0.0564 -2.9486,-0.5554 z M 51.584,4.0637 c -1.0739,0.03406 -1.6918,0.05365 -1.6918,1.42493 l 0.0031,10.08627 c 0,0.599 1.6795,0.5595 3.2141,0.5234 0.3559,-0.0084 0.7039,-0.0165 1.0214,-0.0165 1.5433,0 4.9469,-0.8579 4.9469,-5.6769 0,-4.7409 -3.3883,-6.52174 -7.1399,-6.35401 C 51.8149,4.05638 51.6969,4.06012 51.584,4.0637 Z M 31.2798,7.25109 c 0.2158,-0.47915 0.3957,-0.47915 0.5752,0 l 3.7411,10.16061 c 0.1793,0.5188 0.2156,0.7985 -0.5755,0.7985 h -7.5222 c -0.4675,0 -0.719,-0.1604 -0.4675,-0.7184 z"
     fill="#4d5b5c"
     id="path10"
     style="fill:#ffffff" />
  <path
     fill-rule="evenodd"
     clip-rule="evenodd"
     d="M 1.51127,29.4959 C 1.93038,29.3787 3.22718,29.0158 3.22718,25.9901 V 6.88395 C 3.22718,4.43446 1.87401,4.10545 1.00301,3.89367 0.824483,3.85027 0.666207,3.81178 0.543995,3.76098 -0.269184,3.42297 -0.0468136,2.91609 0.40842,2.91609 c 0.314542,0 0.86394,0.06383 1.50755,0.13861 0.91003,0.10573 2.00841,0.23335 2.89758,0.23335 0.62878,0 1.10252,-0.04936 1.65754,-0.10718 C 7.256,3.0991 8.20348,3.00039 9.98194,3.00039 c 6.67906,0 8.50366,3.75402 8.50366,6.62695 0,3.13996 -2.3417,4.71966 -3.313,5.37496 -0.2542,0.1714 -0.4145,0.2796 -0.4145,0.3358 0,0.1428 0.359,0.2995 0.9008,0.5361 1.6698,0.7291 5.0758,2.2162 5.0632,6.3882 -0.0088,2.9086 -1.579,8.4841 -8.9794,8.4841 -0.6929,0 -1.85888,-0.0869 -3.0082,-0.1726 -1.11689,-0.0833 -2.21802,-0.1654 -2.85392,-0.1654 -0.87288,0 -1.58374,0.0216 -2.2946,0.0432 -0.71086,0.0215 -1.42172,0.0431 -2.29461,0.0431 -0.01875,0 -0.0446,6e-4 -0.07599,0.0013 C 0.929779,30.5024 0.185714,30.5189 0.154281,30.2057 0.107349,29.7379 0.447587,29.6894 0.88813,29.6266 1.08393,29.5987 1.29953,29.568 1.50977,29.4963 Z M 5.95212,6.73245 C 5.95306,6.8782 5.95404,7.0321 5.95404,7.19452 V 13.602 c 0,0.0236 -2e-5,0.0469 -5e-5,0.0697 -0.00121,1.181 -0.00141,1.3759 3.34893,1.4297 4.99788,0.0809 6.50568,-1.8999 6.55648,-4.1769 C 15.953,6.73206 12.7253,4.18752 8.15505,4.28199 5.9367,4.32792 5.94009,4.85701 5.95212,6.73245 Z m 7.1e-4,10.16695 c 6.1e-4,0.0207 0.00121,0.041 0.00121,0.0606 v 8.8748 c 0,0.172 -0.00137,0.3376 -0.00269,0.4969 -0.02011,2.4317 -0.02816,3.4052 5.02895,3.3465 5.8279,-0.0676 6.5863,-3.6491 6.5863,-5.9789 0,-2.4855 -0.1517,-7.632 -8.88002,-7.632 -2.75839,0 -2.74406,0.4838 -2.73375,0.8321 z"
     fill="#4d5b5c"
     id="path12"
     style="fill:#ffffff" />
</svg>
