<svg xmlns="http://www.w3.org/2000/svg" xmlns:xlink="http://www.w3.org/1999/xlink" viewBox="0 0 44 25" class="sc-fEOsli eLbkLn white logo-icon" width="63"  height="36" ><defs><path id="dw-logo-white-a" d="M31.4285714,0 C27.6723333,0 24.3031905,1.63958333 22,4.23697917 C19.6962857,1.63958333 16.3271429,0 12.5714286,0 C5.62833333,0 0,5.59635417 0,12.5 C0,19.4036458 5.62833333,25 12.5714286,25 C16.3271429,25 19.6962857,23.3604167 22,20.7630208 C24.3031905,23.3604167 27.6723333,25 31.4285714,25 C38.3711429,25 44,19.4036458 44,12.5 C44,5.59635417 38.3711429,0 31.4285714,0 Z M20.3568095,18.4244792 C18.5648571,20.7494792 15.7446667,22.25 12.5714286,22.25 C7.1557619,22.25 2.76571429,17.8848958 2.76571429,12.5 C2.76571429,7.11510417 7.1557619,2.75 12.5714286,2.75 C15.7446667,2.75 18.5648571,4.25052083 20.3568095,6.57552083 C21.6228571,8.21770833 22.3771429,10.2708333 22.3771429,12.5 C22.3771429,14.7291667 21.6228571,16.7822917 20.3568095,18.4244792 Z M36.6357619,17.25 L33.6872381,17.25 L31.765381,12.5770833 L29.8854286,17.25 L26.9437143,17.25 L23.8972381,7.75 L27.2574762,7.75 L28.6859048,12.5197917 L30.4684286,7.75 L33.0979524,7.75 L34.8804762,12.5197917 L36.308381,7.75 L39.6832857,7.75 L36.6357619,17.25 Z M12.938619,7.5 L7.4857619,7.5 L7.4857619,17.5 L12.938619,17.5 C15.752,17.5 18.6360952,15.890625 18.6360952,12.5 C18.6360952,9.2578125 16.0060476,7.5 12.938619,7.5 Z M12.6442381,14.6026042 L12.6442381,14.6026042 L10.502381,14.6026042 L10.502381,10.3526042 L12.6437143,10.3526042 C14.5912381,10.3526042 15.2858095,11.4338542 15.2858095,12.4776042 C15.2863333,13.5072917 14.5964762,14.6026042 12.6442381,14.6026042 Z"></path><path id="dw-logo-white-a" d="M31.4285714,0 C27.6723333,0 24.3031905,1.63958333 22,4.23697917 C19.6962857,1.63958333 16.3271429,0 12.5714286,0 C5.62833333,0 0,5.59635417 0,12.5 C0,19.4036458 5.62833333,25 12.5714286,25 C16.3271429,25 19.6962857,23.3604167 22,20.7630208 C24.3031905,23.3604167 27.6723333,25 31.4285714,25 C38.3711429,25 44,19.4036458 44,12.5 C44,5.59635417 38.3711429,0 31.4285714,0 Z M20.3568095,18.4244792 C18.5648571,20.7494792 15.7446667,22.25 12.5714286,22.25 C7.1557619,22.25 2.76571429,17.8848958 2.76571429,12.5 C2.76571429,7.11510417 7.1557619,2.75 12.5714286,2.75 C15.7446667,2.75 18.5648571,4.25052083 20.3568095,6.57552083 C21.6228571,8.21770833 22.3771429,10.2708333 22.3771429,12.5 C22.3771429,14.7291667 21.6228571,16.7822917 20.3568095,18.4244792 Z M36.6357619,17.25 L33.6872381,17.25 L31.765381,12.5770833 L29.8854286,17.25 L26.9437143,17.25 L23.8972381,7.75 L27.2574762,7.75 L28.6859048,12.5197917 L30.4684286,7.75 L33.0979524,7.75 L34.8804762,12.5197917 L36.308381,7.75 L39.6832857,7.75 L36.6357619,17.25 Z M12.938619,7.5 L7.4857619,7.5 L7.4857619,17.5 L12.938619,17.5 C15.752,17.5 18.6360952,15.890625 18.6360952,12.5 C18.6360952,9.2578125 16.0060476,7.5 12.938619,7.5 Z M12.6442381,14.6026042 L12.6442381,14.6026042 L10.502381,14.6026042 L10.502381,10.3526042 L12.6437143,10.3526042 C14.5912381,10.3526042 15.2858095,11.4338542 15.2858095,12.4776042 C15.2863333,13.5072917 14.5964762,14.6026042 12.6442381,14.6026042 Z"></path></defs><use xlink:href="#dw-logo-white-a" fill="#FFFFFF"></use></svg>