<?xml version="1.0" encoding="UTF-8" standalone="no"?>
<svg
   width="2279.4114"
   height="293.86887"
   viewBox="0 0 175.74809 22.658004"
   version="1.1"
   id="svg22"
   sodipodi:docname="nbc-news.svg"
   inkscape:version="1.1.1 (3bf5ae0d25, 2021-09-20)"
   xmlns:inkscape="http://www.inkscape.org/namespaces/inkscape"
   xmlns:sodipodi="http://sodipodi.sourceforge.net/DTD/sodipodi-0.dtd"
   xmlns="http://www.w3.org/2000/svg"
   xmlns:svg="http://www.w3.org/2000/svg">
  <defs
     id="defs26" />
  <sodipodi:namedview
     id="namedview24"
     pagecolor="#505050"
     bordercolor="#eeeeee"
     borderopacity="1"
     inkscape:pageshadow="0"
     inkscape:pageopacity="0"
     inkscape:pagecheckerboard="0"
     showgrid="false"
     fit-margin-top="0"
     fit-margin-left="0"
     fit-margin-right="0"
     fit-margin-bottom="0"
     inkscape:zoom="0.32"
     inkscape:cx="935.9375"
     inkscape:cy="235.9375"
     inkscape:window-width="2560"
     inkscape:window-height="1009"
     inkscape:window-x="1912"
     inkscape:window-y="-8"
     inkscape:window-maximized="1"
     inkscape:current-layer="g20" />
  <g
     fill-rule="evenodd"
     clip-rule="evenodd"
     id="g20"
     transform="translate(-8.5033971,-85.049)">
    <path
       fill="#fff"
       d="M 0,0 H 192.756 V 192.756 H 0 Z"
       id="path2"
       style="fill:none" />
    <path
       d="m 142.562,85.908 9.981,21.799 4.379,-8.93 4.377,8.93 9.805,-21.799 h -4.991 l -5.254,11.906 -1.925,-4.027 3.677,-7.792 -4.64,-0.088 -1.051,2.889 -1.4,-2.889 h -4.467 l 3.59,7.704 -1.84,4.116 -5.602,-11.819 h -4.64 z M 50.923,85.05 63.93,97.314 V 85.831 h 4.209 v 21.271 L 55.16,94.597 v 11.805 H 50.923 V 85.049 Z m 19.574,0.837 h 8.879 c 1.357,0 5.214,1.032 5.35,5.186 0.109,3.094 -2.442,4.535 -2.442,4.535 1.384,0.652 3.502,2.253 3.502,5.511 0,3.178 -2.796,5.512 -5.188,5.512 H 70.497 V 85.885 Z m 4.263,8.363 h 3.232 c 1.276,-0.164 2.253,-1.141 2.253,-2.525 0,-1.467 -1.277,-2.28 -2.335,-2.363 h -3.15 z m 0.026,9.043 h 3.748 c 0.951,-0.084 2.578,-0.896 2.578,-2.77 0,-1.82 -1.602,-2.689 -2.471,-2.717 h -3.856 v 5.486 h 0.001 z m 27.073,-12.966 c -4.453,-2.96 -10.481,0.054 -10.862,5.538 -0.164,6.655 6.407,9.397 10.862,6.518 v 4.264 c -7.875,2.932 -15.098,-2.607 -15.125,-10.645 0.027,-6.815 7.549,-12.843 15.125,-9.83 z m 76.905,8.583 c -6.279,-4.186 -5.777,-3.743 -6.236,-4.466 -0.461,-0.722 -1.773,-4.464 1.246,-7.683 3.02,-3.217 9.127,-0.459 9.127,-0.459 v 4.137 c 0,0 -5.188,-3.021 -6.631,-0.263 -1.445,2.758 3.939,4.398 3.939,4.398 0,0 3.611,2.102 3.939,4.399 0.328,2.299 0.064,6.895 -3.611,7.748 0,0 -3.547,1.971 -8.34,-0.523 l 0.066,-4.662 c 0,0 2.035,2.232 4.926,2.102 2.889,-0.133 3.742,-3.283 1.576,-4.727 h -10e-4 z M 129.979,85.739 v 20.88 h 11.425 l 0.067,-3.48 h -6.977 v -4.991 h 6.977 v -3.874 h -6.977 v -4.661 h 6.977 v -3.874 z m -19.223,-0.646 13.006,12.384 V 85.88 h 4.209 v 21.477 L 114.99,94.733 v 11.921 h -4.234 z"
       id="path4"
       style="fill:#ffffff" />
    <path
       d="m 42.816,106.42 c -0.602,0.268 -1.27,0.387 -1.983,0.387 l -28.498,-0.023 c -1.611,-0.125 -3.194,-1.455 -3.643,-3.045 -0.479,-1.59 -0.014,-3.23 1.037,-4.391 1.016,-1.047 2.323,-1.484 3.774,-1.32 -1.365,-0.93 -1.939,-2.467 -1.742,-4.115 0.182,-1.433 1.219,-2.83 2.548,-3.401 1.518,-0.683 3.434,-0.312 4.625,0.838 -0.247,-0.838 -0.377,-2.042 -0.038,-2.903 0.407,-1.36 1.728,-2.569 3.07,-2.853 1.792,-0.386 3.499,0.291 4.529,1.828 0.196,0.289 0.312,0.616 0.465,0.921 0.516,-1.471 2.004,-2.689 3.515,-2.846 1.56,-0.201 3.035,0.469 4.013,1.782 0.763,1.091 1.023,2.719 0.53,4.032 h 0.058 c 1.132,-1.018 2.845,-1.389 4.304,-0.824 1.393,0.46 2.576,1.946 2.765,3.41 0.211,1.62 -0.342,3.037 -1.567,4.086 1.858,-0.111 3.623,0.877 4.385,2.605 0.667,1.51 0.472,3.529 -0.661,4.754 -0.456,0.461 -0.944,0.848 -1.488,1.078 z"
       fill="#ffffff"
       id="path6" />
    <path
       d="m 39.796,98.027 -10.539,7.047 3.55,-8.437 1.683,-3.929 c 0.682,-1.27 1.967,-2.08 3.369,-2.103 1.342,0 2.532,0.646 3.288,1.805 0.777,1.159 0.821,3.054 0.044,4.226 a 4.842,4.842 0 0 1 -1.393,1.39 h -0.002 z"
       fill="#0088cc"
       id="path8" />
    <path
       d="m 34.548,91.373 -5.212,12.321 -0.232,-1.344 -1.567,-10.1 a 1.537,1.537 0 0 1 0.681,-1.478 l 0.749,-0.445 c 0.044,-0.155 -0.174,-0.208 -0.276,-0.261 l -1.466,-0.014 c -0.094,-1.457 0.544,-2.777 1.778,-3.573 0.958,-0.624 2.417,-0.787 3.485,-0.282 1.385,0.565 2.351,2.042 2.374,3.55 -0.007,0.557 -0.102,1.129 -0.312,1.627 v -10e-4 z"
       fill="#6360a6"
       id="path10" />
    <path
       d="M 24.539,103.738 19.408,91.386 c -0.551,-1.323 -0.319,-3.061 0.625,-4.129 1.009,-1.122 2.432,-1.597 3.897,-1.219 1.241,0.305 2.402,1.493 2.708,2.763 0.144,0.476 0.123,1.048 0.095,1.567 l -2.192,13.37 z"
       fill="#b44549"
       id="path12" />
    <path
       d="m 13.57,97.582 c -1.053,-0.914 -1.523,-2.133 -1.372,-3.543 0.153,-1.426 1.278,-2.823 2.62,-3.252 1.379,-0.431 2.881,-0.09 3.883,0.944 0.42,0.401 0.681,0.877 0.899,1.367 L 24.56,105.1 13.57,97.584 Z"
       fill="#d76f2c"
       id="path14" />
    <path
       d="m 12.444,106.35 c -1.372,-0.154 -2.428,-0.895 -3.073,-2.152 -0.653,-1.27 -0.484,-3.07 0.395,-4.195 0.956,-1.146 2.34,-1.723 3.735,-1.441 0.568,0.092 1.044,0.336 1.493,0.619 l 10.669,7.174 z"
       fill="#ecb731"
       id="path16" />
    <path
       d="m 41.411,106.35 c 1.372,-0.154 2.428,-0.895 3.073,-2.152 0.653,-1.27 0.482,-3.07 -0.395,-4.195 -0.956,-1.146 -2.34,-1.723 -3.735,-1.441 -0.568,0.092 -1.044,0.336 -1.493,0.619 l -10.67,7.174 13.218,-0.004 h 0.002 z"
       fill="#64b054"
       id="path18" />
  </g>
</svg>
