<?xml version="1.0" encoding="UTF-8" standalone="no"?>
<svg
   viewBox="0 0 180.66347 24.200001"
   fill="#000000"
   width="191.464"
   height="25.168001"
   version="1.1"
   id="svg4"
   sodipodi:docname="newyorktimes.svg"
   inkscape:version="1.2.2 (732a01da63, 2022-12-09)"
   xmlns:inkscape="http://www.inkscape.org/namespaces/inkscape"
   xmlns:sodipodi="http://sodipodi.sourceforge.net/DTD/sodipodi-0.dtd"
   xmlns="http://www.w3.org/2000/svg"
   xmlns:svg="http://www.w3.org/2000/svg">
  <defs
     id="defs8" />
  <sodipodi:namedview
     id="namedview6"
     pagecolor="#ffffff"
     bordercolor="#000000"
     borderopacity="0.25"
     inkscape:showpageshadow="true"
     inkscape:pageopacity="0"
     inkscape:pagecheckerboard="true"
     inkscape:deskcolor="#ffffff"
     showgrid="false"
     showborder="true"
     borderlayer="true"
     shape-rendering="auto"
     inkscape:zoom="6.2051282"
     inkscape:cx="96.452479"
     inkscape:cy="6.1239669"
     inkscape:window-width="2560"
     inkscape:window-height="1009"
     inkscape:window-x="-8"
     inkscape:window-y="-8"
     inkscape:window-maximized="1"
     inkscape:current-layer="svg4">
    <sodipodi:guide
       position="0.031141587,24.200001"
       orientation="0,191.464"
       id="guide272"
       inkscape:locked="false" />
    <sodipodi:guide
       position="180.69461,24.200001"
       orientation="25.167999,0"
       id="guide274"
       inkscape:locked="false" />
    <sodipodi:guide
       position="180.69461,1.8339891e-06"
       orientation="0,-191.464"
       id="guide276"
       inkscape:locked="false" />
    <sodipodi:guide
       position="0.031141587,1.8339891e-06"
       orientation="-25.167999,0"
       id="guide278"
       inkscape:locked="false" />
    <sodipodi:guide
       position="0.031141587,24.200001"
       orientation="0,191.464"
       id="guide280"
       inkscape:locked="false" />
    <sodipodi:guide
       position="180.69461,24.200001"
       orientation="25.167999,0"
       id="guide282"
       inkscape:locked="false" />
    <sodipodi:guide
       position="180.69461,1.8339891e-06"
       orientation="0,-191.464"
       id="guide284"
       inkscape:locked="false" />
    <sodipodi:guide
       position="0.031141587,1.8339891e-06"
       orientation="-25.167999,0"
       id="guide286"
       inkscape:locked="false" />
  </sodipodi:namedview>
  <path
     d="m 12.081734,2.5 c 0,-2 -1.9,-2.5 -3.4,-2.5 v 0.3 c 0.9,0 1.6,0.3 1.6,1 0,0.4 -0.3,1 -1.2,1 -0.7,0 -2.2,-0.4 -3.3,-0.8 -1.3,-0.5 -2.5,-0.9 -3.5,-0.9 -2.00000005,0 -3.4,1.5 -3.4,3.2 0,1.5 1.09999995,2 1.49999995,2.2 l 0.1,-0.2 c -0.2,-0.2 -0.5,-0.4 -0.5,-1 0,-0.4 0.4,-1.1 1.40000005,-1.1 0.9,0 2.1,0.4 3.7,0.9 1.4,0.4 2.9,0.7 3.7,0.8 v 3.1 l -1.5,1.3 v 0.1 l 1.5,1.3 v 4.3 c -0.8,0.5 -1.7,0.6 -2.5,0.6 -1.5,0 -2.8,-0.4 -3.9,-1.6 l 4.1,-2 V 5.6 l -5,2.2 c 0.4,-1.3 1.5,-2.2 2.6,-2.8 l -0.1,-0.3 c -3.00000005,0.8 -5.7,3.6 -5.7,7 0,4 3.3,7 7,7 4,0 6.6,-3.2 6.6,-6.5 h -0.2 c -0.6,1.3 -1.5,2.5 -2.6,3.1 v -4.1 l 1.6,-1.3 V 9.8 l -1.6,-1.3 V 5.4 c 1.5,0 3,-1 3,-2.9 z m -8.7,11 -1.2,0.6 c -0.7,-0.9 -1.1,-2.1 -1.1,-3.8 0,-0.7 0,-1.5 0.2,-2.1 l 2.1,-0.9 z m 10.6,2.3 -1.3,1 0.2,0.2 0.6,-0.5 2.2,2 3,-2 -0.1,-0.2 -0.8,0.5 -1,-1 V 9 l 0.8,-0.6 1.7,1.4 v 6.1 c 0,3.8 -0.8,4.4 -2.5,5 v 0.3 c 2.8,0.1 5.4,-0.8 5.4,-5.7 V 8.9 l 0.9,-0.7 -0.2,-0.2 -0.8,0.6 -2.5,-2.1 -2.8,2.1 V 0.4 h -0.2 l -3.5,2.4 V 3 c 0.4,0.2 1,0.4 1,1.5 z m 18.3,-1.1 -2.5,1.9 -2.5,-2 v -1.2 l 4.7,-3.2 v -0.1 l -2.4,-3.6 -5.2,2.8 v 6.6 l -1,0.8 0.2,0.2 0.9,-0.7 3.4,2.5 4.5,-3.6 z m -5,-1.7 V 8.1 l 0.2,-0.1 2.2,3.5 z m 24.1,-11.4 c 0,-0.3 -0.1,-0.6 -0.2,-0.9 h -0.2 c -0.3,0.8 -0.7,1.2 -1.7,1.2 -0.9,0 -1.5,-0.5 -1.9,-0.9 l -2.9,3.3 0.2,0.2 1,-0.9 c 0.6,0.5 1.1,0.9 2.5,1 v 8.3 l -5.9,-10.1 c -0.5,-0.8 -1.2,-1.9 -2.6,-1.9 -1.6,0 -3,1.4 -2.8,3.6 h 0.3 c 0.1,-0.6 0.4,-1.3 1.1,-1.3 0.5,0 1,0.5 1.3,1 v 3.3 c -1.8,0 -3,0.8 -3,2.3 0,0.8 0.4,2 1.6,2.3 v -0.2 c -0.2,-0.2 -0.3,-0.4 -0.3,-0.7 0,-0.5 0.4,-0.9 1.1,-0.9 h 0.5 v 4.2 c -2.1,0 -3.8,1.2 -3.8,3.2 0,1.9 1.6,2.8 3.4,2.7 v -0.2 c -1.1,-0.1 -1.6,-0.6 -1.6,-1.3 0,-0.9 0.6,-1.3 1.4,-1.3 0.8,0 1.5,0.5 2,1.1 l 2.9,-3.2 -0.2,-0.2 -0.7,0.8 c -1.1,-1 -1.7,-1.3 -3,-1.5 v -10 l 8,14 h 0.6 v -14 c 1.5,-0.1 2.9,-1.3 2.9,-3 z m 7.3,13.1 -2.5,1.9 -2.5,-2 v -1.2 l 4.7,-3.2 v -0.1 l -2.4,-3.6 -5.2,2.8 v 6.6 l -1,0.8 0.2,0.2 0.9,-0.7 3.4,2.5 4.5,-3.6 z m -5,-1.7 V 8.1 l 0.2,-0.1 2.2,3.5 z m 21.3,-5.4 -0.7,0.5 -1.9,-1.6 -2.2,2 0.9,0.9 v 7.5 l -2.4,-1.5 V 9.2 l 0.8,-0.5 -2.3,-2.2 -2.2,2 0.9,0.9 v 7.2 l -0.3,0.2 -2.1,-1.5 v -6 c 0,-1.4 -0.7,-1.8 -1.5,-2.3 -0.7,-0.5 -1.1,-0.8 -1.1,-1.5 0,-0.6 0.6,-0.9 0.9,-1.1 V 4.2 c -0.8,0 -2.9,0.8 -2.9,2.7 0,1 0.5,1.4 1,1.9 0.5,0.5 1,0.9 1,1.8 v 5.8 l -1.1,0.8 0.2,0.2 1,-0.8 2.3,2 2.5,-1.7 2.8,1.7 5.3,-3.1 V 8.8 l 1.3,-1 z m 18.6,-5.5 -1,0.9 -2.2,-2 -3.3,2.4 V 1.2 h -0.3 l 0.1,16.2 c -0.3,0 -1.2,-0.2 -1.9,-0.4 l -0.2,-13.5 c 0,-1 -0.7,-2.4 -2.5,-2.4 -1.8,0 -3,1.4 -3,2.8 h 0.3 c 0.1,-0.6 0.4,-1.1 1,-1.1 0.6,0 1.1,0.4 1.1,1.7 v 3.9 c -1.8,0.1 -2.9,1.1 -2.9,2.4 0,0.8 0.4,2 1.6,2 v -0.2 c -0.4,-0.2 -0.5,-0.5 -0.5,-0.7 0,-0.6 0.5,-0.8 1.3,-0.8 h 0.4 v 6.2 c -1.5,0.5 -2.1,1.6 -2.1,2.8 0,1.7 1.3,2.9 3.3,2.9 1.4,0 2.6,-0.2 3.8,-0.5 1,-0.2 2.3,-0.5 2.9,-0.5 0.8,0 1.1,0.4 1.1,0.9 0,0.7 -0.3,1 -0.7,1.1 v 0.2 c 1.6,-0.3 2.6,-1.3 2.6,-2.8 0,-1.5 -1.5,-2.4 -3.1,-2.4 -0.8,0 -2.5,0.3 -3.7,0.5 -1.4,0.3 -2.8,0.5 -3.2,0.5 -0.7,0 -1.5,-0.3 -1.5,-1.3 0,-0.8 0.7,-1.5 2.4,-1.5 0.9,0 2,0.1 3.1,0.4 1.2,0.3 2.3,0.6 3.3,0.6 1.5,0 2.8,-0.5 2.8,-2.6 V 3.3 l 1.2,-1 z m -4.1,6.1 c -0.3,0.3 -0.7,0.6 -1.2,0.6 -0.5,0 -1,-0.3 -1.2,-0.6 V 3.8 l 1,-0.7 1.4,1.3 z m 0,3 c -0.2,-0.2 -0.7,-0.5 -1.2,-0.5 -0.5,0 -1,0.3 -1.2,0.5 V 8.6 c 0.2,0.2 0.7,0.5 1.2,0.5 0.5,0 1,-0.3 1.2,-0.5 z m 0,4.7 c 0,0.8 -0.5,1.6 -1.6,1.6 h -0.8 v -5.9 c 0.2,-0.2 0.7,-0.5 1.2,-0.5 0.5,0 0.9,0.3 1.2,0.5 z m 13.699996,-7.1 -3.199996,-2.3 -4.9,2.8 v 6.5 l -1,0.8 0.1,0.2 0.8,-0.6 3.2,2.4 4.999996,-3 z m -5.399996,6.3 V 7.9 l 2.499996,1.8 v 7.1 z M 112.68173,6.7 h -0.2 c -0.3,0.2 -0.6,0.4 -0.9,0.4 -0.4,0 -0.9,-0.2 -1.1,-0.5 h -0.2 l -1.7,1.9 -1.7,-1.9 -3,2 0.1,0.2 0.8,-0.5 1,1.1 v 6.3 l -1.3,1 0.2,0.2 0.6,-0.5 2.4,2 3.1,-2.1 -0.1,-0.2 -0.9,0.5 -1.2,-1 v -7 c 0.5,0.5 1.1,1 1.8,1 1.4,0.1 2.2,-1.3 2.3,-2.9 z m 12,9.6 -3.4,2.3 -4.6,-7 3.3,-5.1 h 0.2 c 0.4,0.4 1,0.8 1.7,0.8 0.7,0 1.2,-0.4 1.5,-0.8 h 0.2 c -0.1,2 -1.5,3.2 -2.5,3.2 -1,0 -1.5,-0.5 -2.1,-0.8 l -0.3,0.5 5,7.4 1,-0.6 z m -11,-0.5 -1.3,1 0.2,0.2 0.6,-0.5 2.2,2 3,-2 -0.2,-0.2 -0.8,0.5 -1,-1 V 0.4 h -0.1 l -3.6,2.4 V 3 c 0.4,0.2 1,0.3 1,1.5 z m 27.6,-13.3 c 0,-2 -1.9,-2.5 -3.4,-2.5 v 0.3 c 0.9,0 1.6,0.3 1.6,1 0,0.4 -0.3,1 -1.2,1 -0.7,0 -2.2,-0.4 -3.3,-0.8 -1.3,-0.4 -2.5,-0.8 -3.5,-0.8 -2,0 -3.4,1.5 -3.4,3.2 0,1.5 1.1,2 1.5,2.2 l 0.1,-0.2 c -0.3,-0.2 -0.6,-0.4 -0.6,-1 0,-0.4 0.4,-1.1 1.4,-1.1 0.9,0 2.1,0.4 3.7,0.9 1.4,0.4 2.9,0.7 3.7,0.8 v 3.1 l -1.5,1.3 V 10 l 1.5,1.3 v 4.3 c -0.8,0.5 -1.7,0.6 -2.5,0.6 -1.5,0 -2.8,-0.4 -3.9,-1.6 l 4.1,-2 v -7 l -5,2.2 c 0.5,-1.3 1.6,-2.2 2.6,-2.9 l -0.1,-0.2 c -3,0.8 -5.7,3.5 -5.7,6.9 0,4 3.3,7 7,7 4,0 6.6,-3.2 6.6,-6.5 h -0.2 c -0.6,1.3 -1.5,2.5 -2.6,3.1 v -4.1 l 1.6,-1.3 V 9.7 l -1.5,-1.3 v -3 c 1.5,0 3,-1 3,-2.9 z m -8.7,11 -1.2,0.6 c -0.7,-0.9 -1.1,-2.1 -1.1,-3.8 0,-0.7 0.1,-1.5 0.3,-2.1 l 2.1,-0.9 z m 12.2,-12 h -0.1 l -2,1.7 v 0.1 l 1.7,1.9 h 0.2 l 2,-1.7 V 3.4 Z m 3,14.8 -0.8,0.5 -1,-1 V 8.9 l 1,-0.7 -0.2,-0.2 -0.7,0.6 -1.8,-2.1 -2.9,2 0.2,0.3 0.7,-0.5 0.9,1.1 v 6.5 l -1.3,1 0.1,0.2 0.7,-0.5 2.2,2 3,-2 z m 16.7,-0.1 -0.7,0.5 -1.1,-1 V 8.9 l 1,-0.8 -0.2,-0.2 -0.8,0.7 -2.3,-2.1 -3,2.1 -2.3,-2.1 -2.8,2.1 -1.8,-2.1 -2.9,2 0.1,0.3 0.7,-0.5 1,1.1 v 6.5 l -0.8,0.8 2.3,1.9 2.2,-2 -0.9,-0.9 V 8.9 l 0.9,-0.6 1.5,1.4 v 6 l -0.8,0.8 2.3,1.9 2.2,-2 -0.9,-0.9 V 8.9 l 0.8,-0.5 1.6,1.4 v 6 l -0.7,0.7 2.3,2.1 3.1,-2.1 z m 8.7,-1.5 -2.5,1.9 -2.5,-2 v -1.2 l 4.7,-3.2 v -0.1 l -2.4,-3.6 -5.2,2.8 v 6.8 l 3.5,2.5 4.5,-3.6 z m -5,-1.7 V 8.1 l 0.2,-0.1 2.2,3.5 z m 14.1,-0.9 -1.9,-1.5 c 1.3,-1.1 1.8,-2.6 1.8,-3.6 V 6.4 h -0.2 c -0.2,0.5 -0.6,1 -1.4,1 -0.8,0 -1.3,-0.4 -1.8,-1 l -4.5,2.5 v 3.6 l 1.7,1.3 c -1.7,1.5 -2,2.5 -2,3.3 0,1 0.5,1.7 1.3,2 l 0.1,-0.2 c -0.2,-0.2 -0.4,-0.3 -0.4,-0.8 0,-0.3 0.4,-0.8 1.2,-0.8 1,0 1.6,0.7 1.9,1 l 4.3,-2.6 v -3.6 z m -1.1,-3 c -0.7,1.2 -2.2,2.4 -3.1,3 l -1.1,-0.9 V 7.7 c 0.4,1 1.5,1.8 2.6,1.8 0.7,0 1.1,-0.1 1.6,-0.4 z m -1.7,8 c -0.5,-1.1 -1.7,-1.9 -2.9,-1.9 -0.3,0 -1.1,0 -1.9,0.5 0.5,-0.8 1.8,-2.2 3.5,-3.2 l 1.2,1 z"
     id="path2"
     style="fill:#ffffff" />
</svg>
