<?xml version="1.0" encoding="UTF-8" standalone="no"?>
<!-- Generator: Adobe Illustrator 27.1.0, SVG Export Plug-In . SVG Version: 6.00 Build 0)  -->

<svg
   version="1.1"
   id="Layer_1"
   x="0px"
   y="0px"
   viewBox="0 0 655.29056 245.13499"
   xml:space="preserve"
   sodipodi:docname="208177309-c763dc5a-0329-450c-a543-832d23895c13.svg"
   width="655.29059"
   height="245.13499"
   inkscape:version="1.1.1 (3bf5ae0d25, 2021-09-20)"
   xmlns:inkscape="http://www.inkscape.org/namespaces/inkscape"
   xmlns:sodipodi="http://sodipodi.sourceforge.net/DTD/sodipodi-0.dtd"
   xmlns="http://www.w3.org/2000/svg"
   xmlns:svg="http://www.w3.org/2000/svg"><defs
   id="defs41" /><sodipodi:namedview
   id="namedview39"
   pagecolor="#505050"
   bordercolor="#eeeeee"
   borderopacity="1"
   inkscape:pageshadow="0"
   inkscape:pageopacity="0"
   inkscape:pagecheckerboard="0"
   showgrid="false"
   fit-margin-top="0"
   fit-margin-left="0"
   fit-margin-right="0"
   fit-margin-bottom="0"
   inkscape:zoom="1.0317974"
   inkscape:cx="299.962"
   inkscape:cy="75.111647"
   inkscape:window-width="2560"
   inkscape:window-height="1009"
   inkscape:window-x="1912"
   inkscape:window-y="-8"
   inkscape:window-maximized="1"
   inkscape:current-layer="Layer_1" />
<style
   type="text/css"
   id="style2">
	.st0{fill:#00B1E1;}
	.st1{fill:#FFFFFF;}
</style>













<path
   class="st1"
   d="m 310.79062,145.86751 c 0,2.3 -0.5,4.8 -1.5,7.5 -1,2.7 -2.8,5 -5.5,7 1.6,0.8 3.1,1.8 4.3,3 1.2,1.2 2.2,2.5 2.9,3.9 0.8,1.4 1.3,2.8 1.7,4.3 0.4,1.5 0.6,2.9 0.6,4.4 0,2.6 -0.4,5.2 -1.1,7.8 -0.7,2.5 -2,4.8 -3.7,6.8 -1.7,2 -4.1,3.7 -6.9,4.9 -2.9,1.3 -6.5,1.9 -10.8,1.9 h -27.1 v -71 h 26.7 c 2.9,0 5.5,0.5 8,1.6 2.5,1.1 4.6,2.5 6.5,4.3 1.8,1.8 3.3,3.9 4.3,6.2 1,2.5 1.6,4.9 1.6,7.4 m -33.9,8.2 h 12 c 2.4,0 4.2,-0.6 5.7,-1.8 1.4,-1.2 2.1,-2.8 2.1,-4.7 0,-2 -0.7,-3.6 -2.1,-5 -1.4,-1.4 -3.3,-2.1 -5.7,-2.1 h -12 z m 12.1,29.2 c 3.6,0 6.2,-0.7 7.8,-2.2 1.6,-1.5 2.4,-3.2 2.4,-5.1 0,-1 -0.2,-2 -0.5,-2.9 -0.3,-0.9 -0.9,-1.8 -1.6,-2.5 -0.8,-0.7 -1.8,-1.3 -3.1,-1.7 -1.3,-0.4 -3,-0.7 -5,-0.7 h -12.1 v 15.1 z"
   id="path6" /><path
   class="st1"
   d="m 383.19062,126.36751 -25,36.7 v 34.3 h -13.3 v -34.3 c -1.9,-2.8 -3.9,-5.8 -6.1,-8.9 -2.1,-3.1 -4.3,-6.3 -6.4,-9.4 -2.1,-3.2 -4.3,-6.3 -6.4,-9.4 -2.1,-3.1 -4.1,-6.1 -6.1,-8.9 h 16.3 l 15.3,22.5 15.2,-22.5 h 16.5"
   id="path8" /><polyline
   class="st1"
   points="262.9,494.2 222.8,494.2 222.8,423.2 236,423.2 236,480.1 262.9,480.1 262.9,494.2 "
   id="polyline10"
   transform="translate(171.69062,-296.83249)" /><rect
   x="448.79062"
   y="126.36752"
   class="st1"
   width="13.2"
   height="71"
   id="rect12" /><polyline
   class="st1"
   points="309.4,422.5 315.2,422.5 351.2,465.1 351.2,423.2 364.4,423.2 364.4,494.9 358.5,494.9 322.5,452.4   322.5,494.2 309.4,494.2 309.4,422.5 "
   id="polyline14"
   transform="translate(171.69062,-296.83249)" /><polyline
   class="st1"
   points="398,437.3 398,451.6 419.6,451.6 419.6,465.8 398,465.8 398,480.1 427.6,480.1 427.6,494.2   384.7,494.2 384.7,423.2 427.6,423.2 427.6,437.3 398,437.3 "
   id="polyline16"
   transform="translate(171.69062,-296.83249)" /><path
   class="st1"
   d="m 632.59062,198.06751 c -2.9,0 -5.8,-0.4 -8.5,-1.3 -2.7,-0.9 -5.3,-2.1 -7.7,-3.8 h 0.1 c -1.7,-1.1 -3.2,-2.4 -4.6,-3.8 -1.3,-1.4 -2.3,-2.3 -2.8,-2.9 l 9.9,-9.7 c 0.4,0.6 1.2,1.3 2.1,2.2 1,0.8 2.1,1.7 3.4,2.4 1.3,0.8 2.6,1.4 4,2 1.4,0.5 2.7,0.8 4,0.8 1.1,0 2.2,-0.1 3.2,-0.4 1.1,-0.3 2.1,-0.7 3,-1.3 0.9,-0.6 1.6,-1.3 2.2,-2.3 0.6,-0.9 0.9,-2.1 0.9,-3.5 0,-0.5 -0.2,-1.1 -0.5,-1.8 -0.4,-0.6 -1,-1.3 -1.8,-2.1 -0.9,-0.7 -2,-1.5 -3.6,-2.4 -1.5,-0.8 -3.4,-1.7 -5.7,-2.7 -2.7,-1.1 -5.2,-2.2 -7.4,-3.5 -2.3,-1.3 -4.3,-2.7 -6,-4.4 -1.7,-1.7 -3,-3.6 -3.9,-5.8 -0.9,-2.2 -1.4,-4.7 -1.4,-7.5 0,-2.9 0.5,-5.6 1.5,-8.2 1,-2.5 2.5,-4.7 4.3,-6.6 1.9,-1.9 4.1,-3.3 6.8,-4.4 2.6,-1 5.5,-1.6 8.7,-1.6 1.7,0 3.5,0.2 5.5,0.7 1.9,0.5 3.8,1.1 5.7,1.8 1.8,0.7 3.6,1.6 5.2,2.6 1.6,1 3,2 4.1,3 l -8.2,11 c -1.2,-0.9 -2.4,-1.7 -3.7,-2.4 -1.1,-0.6 -2.3,-1.2 -3.7,-1.7 -1.4,-0.5 -2.8,-0.8 -4.3,-0.8 -2.7,0 -4.8,0.6 -6.2,1.7 -1.5,1.1 -2.2,2.7 -2.2,4.8 0,0.9 0.3,1.8 0.8,2.6 0.5,0.8 1.3,1.5 2.2,2.1 0.9,0.6 2,1.2 3.2,1.8 1.2,0.5 2.5,1 3.8,1.5 3.8,1.6 7,3.1 9.6,4.7 2.6,1.6 4.7,3.3 6.3,5.1 1.6,1.8 2.7,3.7 3.4,5.8 0.7,2.1 1,4.3 1,6.7 0,3 -0.6,5.8 -1.7,8.4 -1.1,2.6 -2.7,4.9 -4.7,6.8 -2,1.9 -4.4,3.4 -7.2,4.6 -2.9,1.3 -5.9,1.8 -9.1,1.8"
   id="path18" /><path
   d="m 353.29062,98.567505 c -2,0 -3.9,-0.3 -5.8,-0.9 -1.9,-0.6 -3.6,-1.5 -5.2,-2.7 h 0.1 c -1.2,-0.8 -2.2,-1.7 -3.1,-2.7 -0.9,-1 -1.5,-1.7 -1.9,-2.1 l 6.7,-6.9 c 0.3,0.4 0.8,0.9 1.5,1.5 0.7,0.6 1.4,1.2 2.3,1.7 0.9,0.6 1.8,1 2.7,1.4 0.9,0.4 1.9,0.6 2.7,0.6 0.7,0 1.5,-0.1 2.2,-0.3 0.7,-0.2 1.4,-0.5 2,-0.9 0.6,-0.4 1.1,-0.9 1.5,-1.6 0.4,-0.7 0.6,-1.5 0.6,-2.5 0,-0.4 -0.1,-0.8 -0.4,-1.3 -0.2,-0.5 -0.6,-0.9 -1.2,-1.5 -0.6,-0.5 -1.4,-1.1 -2.4,-1.7 -1,-0.6 -2.3,-1.2 -3.9,-1.9 -1.8,-0.8 -3.5,-1.6 -5,-2.5 -1.6,-0.9 -2.9,-1.9 -4,-3.1 -1.1,-1.2 -2,-2.6 -2.7,-4.1 -0.6,-1.5 -0.9,-3.3 -0.9,-5.3 0,-2.1 0.3,-4 1,-5.8 0.7,-1.8 1.7,-3.4 2.9,-4.70001 1.3,-1.3 2.8,-2.29999 4.6,-3.09999 1.8,-0.8 3.8,-1.1 5.9,-1.1 1.2,0 2.4,0.2 3.7,0.5 1.3,0.3 2.6,0.8 3.8,1.3 1.3,0.49999 2.4,1.09999 3.5,1.79999 1.1,0.70001 2,1.40001 2.7,2.10001 l -5.6,7.8 c -0.8,-0.6 -1.7,-1.2 -2.5,-1.7 -0.7,-0.4 -1.6,-0.8 -2.5,-1.2 -0.9,-0.4 -1.9,-0.6 -2.9,-0.6 -1.8,0 -3.2,0.4 -4.2,1.2 -1,0.8 -1.5,1.9 -1.5,3.4 0,0.7 0.2,1.3 0.6,1.8 0.4,0.6 0.9,1.1 1.5,1.5 0.6,0.5 1.3,0.9 2.2,1.3 0.8,0.4 1.7,0.7 2.6,1.1 2.6,1.1 4.8,2.2 6.5,3.3 1.8,1.1 3.2,2.3 4.3,3.6 1.1,1.3 1.8,2.6 2.3,4.1 0.5,1.5 0.7,3.1 0.7,4.8 0,2.1 -0.4,4.1 -1.2,6 -0.8,1.9 -1.8,3.5 -3.2,4.9 -1.4,1.4 -3,2.4 -4.9,3.2 -1.8,0.9 -3.9,1.3 -6.1,1.3"
   id="path20"
   style="fill:#00b1e1;fill-opacity:1" /><path
   d="m 396.19062,98.567505 c -2.6,0 -5,-0.5 -7.1,-1.5 -2.2,-1 -4,-2.3 -5.5,-4.1 -1.5,-1.7 -2.7,-3.8 -3.6,-6.2 -0.9,-2.4 -1.3,-5 -1.3,-7.9 v -31.2 h 8.9 v 29.9 c 0,1.7 0.2,3.2 0.7,4.6 0.5,1.4 1.1,2.5 1.9,3.4 0.8,0.9 1.7,1.7 2.8,2.2 1,0.5 2.1,0.8 3.2,0.8 1.1,0 2.2,-0.3 3.2,-0.8 1,-0.5 2,-1.2 2.8,-2.2 0.8,-0.9 1.4,-2.1 1.9,-3.4 0.5,-1.4 0.7,-2.9 0.7,-4.6 v -29.9 h 9 v 31.2 c 0,2.9 -0.4,5.5 -1.3,7.9 -0.9,2.4 -2.1,4.5 -3.6,6.2 -1.6,1.7 -3.4,3.1 -5.6,4.1 -2.1,1 -4.5,1.5 -7.1,1.5"
   id="path22"
   style="fill:#00b1e1;fill-opacity:1" /><path
   d="m 438.59062,98.567505 c -2,0 -3.9,-0.3 -5.8,-0.9 -1.9,-0.6 -3.6,-1.5 -5.2,-2.7 h 0.1 c -1.2,-0.8 -2.2,-1.7 -3.1,-2.7 -0.9,-1 -1.5,-1.7 -1.9,-2.1 l 6.7,-6.9 c 0.3,0.4 0.8,0.9 1.5,1.5 0.7,0.6 1.4,1.2 2.3,1.7 0.9,0.6 1.8,1 2.7,1.4 0.9,0.4 1.9,0.6 2.7,0.6 0.7,0 1.5,-0.1 2.2,-0.3 0.7,-0.2 1.4,-0.5 2,-0.9 0.6,-0.4 1.1,-0.9 1.5,-1.6 0.4,-0.7 0.6,-1.5 0.6,-2.5 0,-0.4 -0.1,-0.8 -0.4,-1.3 -0.2,-0.5 -0.6,-0.9 -1.2,-1.5 -0.6,-0.5 -1.4,-1.1 -2.4,-1.7 -1,-0.6 -2.3,-1.2 -3.9,-1.9 -1.8,-0.8 -3.5,-1.6 -5,-2.5 -1.6,-0.9 -2.9,-1.9 -4,-3.1 -1.1,-1.2 -2,-2.6 -2.6,-4.1 -0.6,-1.5 -0.9,-3.3 -0.9,-5.3 0,-2.1 0.3,-4 1,-5.8 0.7,-1.8 1.7,-3.4 2.9,-4.70001 1.3,-1.3 2.8,-2.29999 4.6,-3.09999 1.8,-0.7 3.8,-1.1 5.9,-1.1 1.2,0 2.4,0.2 3.7,0.5 1.3,0.3 2.6,0.8 3.8,1.3 1.3,0.49999 2.4,1.09999 3.5,1.79999 1.1,0.70001 2,1.40001 2.7,2.10001 l -5.6,7.8 c -0.8,-0.6 -1.7,-1.2 -2.5,-1.7 -0.7,-0.4 -1.6,-0.8 -2.5,-1.2 -0.9,-0.4 -1.9,-0.6 -2.9,-0.6 -1.8,0 -3.2,0.4 -4.2,1.2 -1,0.8 -1.5,1.9 -1.5,3.4 0,0.7 0.2,1.3 0.6,1.8 0.4,0.6 0.9,1.1 1.5,1.5 0.6,0.5 1.3,0.9 2.2,1.3 0.8,0.4 1.7,0.7 2.6,1.1 2.6,1.1 4.8,2.2 6.5,3.3 1.8,1.1 3.2,2.3 4.3,3.6 1.1,1.3 1.8,2.6 2.3,4.1 0.5,1.5 0.7,3.1 0.7,4.8 0,2.1 -0.4,4.1 -1.2,6 -0.8,1.9 -1.8,3.5 -3.2,4.9 -1.4,1.4 -3,2.4 -4.9,3.2 -2,0.9 -4,1.3 -6.2,1.3"
   id="path24"
   style="fill:#00b1e1;fill-opacity:1" /><path
   d="m 473.59062,98.567505 c -2,0 -3.9,-0.3 -5.8,-0.9 -1.9,-0.6 -3.6,-1.5 -5.2,-2.7 h 0.1 c -1.2,-0.8 -2.2,-1.7 -3.1,-2.7 -0.9,-1 -1.5,-1.7 -1.9,-2.1 l 6.7,-6.9 c 0.3,0.4 0.8,0.9 1.5,1.5 0.7,0.6 1.4,1.2 2.3,1.7 0.9,0.6 1.8,1 2.7,1.4 0.9,0.4 1.9,0.6 2.7,0.6 0.7,0 1.5,-0.1 2.2,-0.3 0.7,-0.2 1.4,-0.5 2,-0.9 0.6,-0.4 1.1,-0.9 1.5,-1.6 0.4,-0.7 0.6,-1.5 0.6,-2.5 0,-0.4 -0.1,-0.8 -0.4,-1.3 -0.2,-0.5 -0.6,-0.9 -1.2,-1.5 -0.6,-0.5 -1.4,-1.1 -2.4,-1.7 -1,-0.6 -2.3,-1.2 -3.9,-1.9 -1.8,-0.8 -3.5,-1.6 -5,-2.5 -1.6,-0.9 -2.9,-1.9 -4,-3.1 -1.1,-1.2 -2,-2.6 -2.7,-4.1 -0.6,-1.5 -0.9,-3.3 -0.9,-5.3 0,-2.1 0.3,-4 1,-5.8 0.7,-1.8 1.7,-3.4 2.9,-4.70001 1.3,-1.3 2.8,-2.29999 4.6,-3.09999 1.8,-0.7 3.8,-1.1 5.9,-1.1 1.2,0 2.4,0.2 3.7,0.5 1.3,0.3 2.6,0.8 3.8,1.3 1.3,0.49999 2.4,1.09999 3.5,1.79999 1.1,0.70001 2,1.40001 2.7,2.10001 l -5.6,7.8 c -0.8,-0.6 -1.7,-1.2 -2.5,-1.7 -0.7,-0.4 -1.6,-0.8 -2.5,-1.2 -0.9,-0.4 -1.9,-0.6 -2.9,-0.6 -1.8,0 -3.2,0.4 -4.2,1.2 -1,0.8 -1.5,1.9 -1.5,3.4 0,0.7 0.2,1.3 0.6,1.8 0.4,0.6 0.9,1.1 1.5,1.5 0.6,0.5 1.3,0.9 2.2,1.3 0.8,0.4 1.7,0.7 2.6,1.1 2.6,1.1 4.8,2.2 6.5,3.3 1.8,1.1 3.2,2.3 4.3,3.6 1.1,1.3 1.8,2.6 2.3,4.1 0.5,1.5 0.7,3.1 0.7,4.8 0,2.1 -0.4,4.1 -1.2,6 -0.8,1.9 -1.8,3.5 -3.2,4.9 -1.4,1.4 -3,2.4 -4.9,3.2 -1.9,0.9 -3.9,1.3 -6.1,1.3"
   id="path26"
   style="fill:#00b1e1;fill-opacity:1" /><polyline
   points="336.8,354.6 336.8,364.7 351.5,364.7 351.5,374.8 336.8,374.8 336.8,384.9 356.9,384.9 356.9,394.9 327.8,394.9   327.8,344.6 356.9,344.6 356.9,354.6 336.8,354.6 "
   id="polyline28"
   style="fill:#00b1e1;fill-opacity:1"
   transform="translate(171.69062,-296.83249)" /><path
   d="m 562.49062,72.167505 16.8,25.9 h -11 l -11.3,-17.3 c -1.9,2.8 -3.7,5.7 -5.7,8.7 -1.9,3 -3.8,5.9 -5.6,8.6 h -11.1 l 16.8,-25.9 c -1.2,-1.9 -2.5,-3.9 -3.9,-6 -1.4,-2.1 -2.8,-4.2 -4.1,-6.4 -1.4,-2.1 -2.7,-4.2 -4.1,-6.3 -1.4,-2.1 -2.6,-4.00001 -3.8,-5.8 h 11.1 l 10.4,16 10.4,-16 h 11.1 l -16,24.5"
   id="path30"
   style="fill:#00b1e1;fill-opacity:1" />


<path
   class="st1"
   d="m 8.7,37.734995 c 0,-10.5 8.5,-19.1 19.1,-19.1 h 41.8 c 2.4,0 4.4,-2 4.4,-4.4 0,-2.4 -2,-4.3999998 -4.4,-4.3999998 H 27.8 C 12.4,9.8349952 0,22.334995 0,37.634995 v 38.7 c 0,2.4 2,4.4 4.4,4.4 2.4,0 4.4,-2 4.4,-4.4 v -38.6"
   id="path32" /><path
   class="st1"
   d="m 219,209.935 c 0,10.5 -8.5,19.1 -19.1,19.1 h -37.3 c -2.4,0 -4.4,2 -4.4,4.4 0,2.4 2,4.4 4.4,4.4 h 37.3 c 15.4,0 27.8,-12.5 27.8,-27.8 v -40.3 c 0,-2.4 -2,-4.4 -4.4,-4.4 -2.4,0 -4.4,2 -4.4,4.4 v 40.2"
   id="path34" /><path
   class="st1"
   d="m 21.3,245.135 c -0.9,0 -1.8,-0.2 -2.6,-0.5 -1.9,-0.8 -7.9,-4.2 -3.1,-17.6 1.8,-7.2 40.9,-154.400005 185.2,-225.8000048 0.2,-0.1 0.5,-0.2 0.8,-0.30000002 2.6,-0.7 11.2,-2.69999998 14.5,2.80000002 3,5 -0.4,11.7999998 -11.6,23.3999998 -13.6,14 -22.6,23.2 -28,28.6 5.5,0.3 12,0 16.3,-2.1 2.5,-1.3 4.6,-1.2 6.3,0.1 1.5,1.2 2.1,3.1 1.6,5.1 -1.7,6.7 -29.6,34.5 -53.3,42.200005 1.9,0 3.6,-0.2 4.6,-0.5 4.6,-1.400005 9,0.8 10.6,5.3 2.6,7.4 -3.2,18.3 -22.2,26.2 -24.4,10.2 -40.2,7.1 -43.8,6.2 -1.5,0.4 -10.5,4 -29.9,34.4 -18.4,28.9 -23.4,38.8 -32.1,60.2 -3.2,7.6 -8.4,12.3 -13.3,12.3 m 1.3,-8.1 z M 204.2,9.2349952 C 61.2,80.234995 24.4,227.835 24,229.335 c 0,0.2 -0.1,0.3 -0.1,0.5 -1,2.7 -1.3,4.6 -1.4,5.7 1.1,-1 2.6,-2.8 3.9,-5.9 9,-22 14.1,-32.1 32.9,-61.6 23.4,-36.7 34.6,-39.7 39.2,-38.2 0.2,0.1 14.4,4.3 38.5,-5.7 13.8,-5.8 16.7,-11.7 17.2,-13.4 0.4,-1.1 0.2,-1.8 0.1,-1.9 -4.7,1.7 -23,1.4 -27.2,-2.9 -1.4,-1.4 -1.9,-3.4 -1.3,-5.2 1,-3.200005 4.6,-4.900005 14.3,-6.700005 16.2,-3 35.8,-19.4 45.8,-29.7 -9.6,1 -19.1,-0.9 -19.7,-1 -1.6,-0.3 -2.8,-1.5 -3.3,-3 -0.5,-1.5 0,-3.2 1.1,-4.3 0.1,-0.1 9.7,-9.7 34.2,-34.9 6.6,-6.8 8.9,-10.5 9.7,-12.2999998 -1.1,-0.1 -2.5,0.1 -3.7,0.4 z M 19.8,228.335 Z m 76.9,-90.1 z"
   id="path36" />
</svg>
