<svg xmlns:xlink="http://www.w3.org/1999/xlink" xmlns="http://www.w3.org/2000/svg" viewBox="0 0 160 51" fill-rule="evenodd" stroke-linejoin="round" stroke-miterlimit="2"  width="160"  height="51" ><path d="M68.503 42.525V9.939c0-4.677-1.252-5.991-3.759-6.868L82.063.002v42.523c0 4.677 3.243 7.599 3.243 7.599H65.26s3.243-2.922 3.243-7.599zm-51.11-27.033h10.029l-.006-3.109-10.023 3.109zm4.569 29.662c-2.875 0-4.569-1.607-4.569-5.113V0L0 15.488c2.117 0 3.831 1.702 3.831 3.798V39.89c0 8.182 3.831 11.106 10.244 11.106 5.011 0 10.391-3.215 13.929-7.891 0 .006-2.46 2.049-6.043 2.049zm40.947-18.265c.442-9.499-4.717-15.928-14.592-15.928-11.94 0-19.456 9.352-19.456 20.751C28.861 41.794 34.536 51 46.475 51c8.623 0 13.192-4.896 16.435-10.74 0 0-3.33 4.456-9.949 4.456-7.59 0-10.317-6.575-10.54-17.827V25.72c0-6.503.81-13.735 5.601-13.735 4.127 0 4.348 4.86 3.685 13.261l-9.286 1.643h20.489zm58.876 0c.442-9.499-4.717-15.928-14.592-15.928-11.94 0-19.456 9.352-19.456 20.751C87.736 41.794 93.412 51 105.35 51c8.623 0 13.192-4.896 16.435-10.74 0 0-3.33 4.456-9.949 4.456-7.59 0-10.317-6.575-10.54-17.827V25.72c0-6.503.81-13.735 5.601-13.735 4.127 0 4.348 4.86 3.685 13.261l-9.286 1.643h20.489zM160 50.124h-19.456s2.58-2.703.884-5.699l-5.748-9.863s-5.527 10.375-5.527 12.859c0 2.703 1.989 2.703 1.989 2.703h-10.907l14.446-15.562-7.811-13.445c-2.654-4.603-6.339-9.28-6.339-9.28h19.456s-2.58 2.703-.884 5.699l5.306 9.061s4.79-9.571 4.79-12.056c0-2.703-1.989-2.703-1.989-2.703h10.761l-13.561 14.759 8.253 14.247c2.652 4.603 6.339 9.28 6.339 9.28z" fill="#FFFFFF" fill-rule="nonzero"></path></svg>