<?xml version="1.0" encoding="UTF-8" standalone="no"?>
<!-- Generator: Adobe Illustrator 19.2.1, SVG Export Plug-In . SVG Version: 6.00 Build 0)  -->

<svg
   version="1.1"
   id="layer"
   x="0px"
   y="0px"
   viewBox="0 0 600.20001 98.199997"
   xml:space="preserve"
   sodipodi:docname="the-independent-logo-vector.svg"
   width="600.20001"
   height="98.199997"
   inkscape:version="1.1.1 (3bf5ae0d25, 2021-09-20)"
   xmlns:inkscape="http://www.inkscape.org/namespaces/inkscape"
   xmlns:sodipodi="http://sodipodi.sourceforge.net/DTD/sodipodi-0.dtd"
   xmlns="http://www.w3.org/2000/svg"
   xmlns:svg="http://www.w3.org/2000/svg"><defs
   id="defs13" /><sodipodi:namedview
   id="namedview11"
   pagecolor="#505050"
   bordercolor="#eeeeee"
   borderopacity="1"
   inkscape:pageshadow="0"
   inkscape:pageopacity="0"
   inkscape:pagecheckerboard="0"
   showgrid="false"
   fit-margin-top="0"
   fit-margin-left="0"
   fit-margin-right="0"
   fit-margin-bottom="0"
   inkscape:zoom="1.2638037"
   inkscape:cx="304.24029"
   inkscape:cy="118.29369"
   inkscape:window-width="2560"
   inkscape:window-height="1009"
   inkscape:window-x="1912"
   inkscape:window-y="-8"
   inkscape:window-maximized="1"
   inkscape:current-layer="layer" />
<style
   type="text/css"
   id="style2">
	.st0{fill:#E30D24;}
	.st1{fill:#FFFFFF;}
	.st2{fill:#1C1B19;}
</style>
<path
   class="st0"
   d="M 49.1,0 C 36.1,0 23.6,5.2 14.4,14.4 5.2,23.6 0,36.1 0,49.1 c 0,13 5.2,25.5 14.4,34.7 9.2,9.2 21.7,14.4 34.7,14.4 17.5,0 33.8,-9.4 42.5,-24.6 8.8,-15.2 8.8,-33.9 0,-49.1 C 82.9,9.4 66.6,0 49.1,0"
   id="path4" />
<path
   class="st1"
   d="m 77.5,68.3 c -1,-0.5 -0.7,-0.4 -5.3,-3.1 0,0 -3.6,0.7 -8.2,1.7 0.1,0 0.1,0 0.2,0.1 0.1,0 0.1,0.1 0.2,0.1 0.1,0.1 0.1,0.1 0.2,0.2 0.1,0.1 0.2,0.3 0.2,0.4 0,0.1 0,0.2 0,0.2 v 0.1 0.1 c 0,0.1 0,0.1 0,0.2 0,0 0,0.1 0,0.1 v 0.1 h -0.1 c 0,0 0,-0.1 0,-0.1 0,0 0,-0.1 0,-0.1 v -0.1 c 0,-0.1 0,-0.1 -0.1,-0.1 l -0.1,-0.2 -0.1,-0.2 -0.1,-0.2 c 0,-0.1 -0.1,-0.1 -0.1,-0.1 l -0.1,-0.1 c 0,0 -0.1,-0.1 -0.1,-0.1 0,0 -0.1,-0.1 -0.1,-0.1 0,0 -0.1,0 -0.1,-0.1 0,0 -0.1,0 -0.1,0 l -1,0.2 c 0,0 0.1,0 0.1,0 0.1,0 0.1,0.1 0.2,0.1 0.1,0 0.1,0.1 0.2,0.1 0.1,0.1 0.1,0.1 0.2,0.2 0.1,0.1 0.1,0.1 0.1,0.2 0,0.1 0.1,0.1 0.1,0.2 0,0.1 0,0.2 0,0.2 v 0.2 c 0,0.1 0,0.1 0,0.2 0,0 0,0.1 0,0.1 0,0 0,0.1 0,0.1 h -0.1 v -0.1 c 0,0 0,-0.1 0,-0.1 v -0.1 l -0.1,-0.1 -0.1,-0.2 c 0,-0.1 -0.1,-0.1 -0.1,-0.2 L 63.1,67.8 C 63.1,67.7 63,67.7 63,67.7 l -0.1,-0.1 c 0,0 -0.1,-0.1 -0.1,-0.1 0,0 -0.1,-0.1 -0.1,-0.1 l -0.1,-0.1 c 0,0 -0.1,0 -0.1,0 h -0.1 l -2.6,-2.2 0.1,-0.7 -0.3,-1.6 0.3,-0.7 v -2.2 l -2.9,2.6 -0.1,-0.1 8.4,-9.9 -0.1,-0.2 -2.5,-0.4 v -0.1 h 4 c 0.5,0.6 1.4,0.7 2.1,0.5 v -0.1 l -0.9,-1.4 0.4,-0.2 c 0.4,-0.2 0.7,-0.1 1,0.4 0.3,0.5 0.5,1.1 0.1,1.5 l 0.1,0.1 c 0.6,-0.1 1.1,-0.4 1.5,-0.8 0.5,-0.7 0.4,-1.7 -0.2,-2.4 -0.5,-0.6 -1.5,-1.5 -1.5,-1.5 0.1,-1.1 -0.5,-2.1 -1.6,-2.6 -2.4,-1 -4.2,-1.6 -4.2,-1.6 h -5.7 v -0.1 l 5.7,-0.7 1.7,-1.5 6.5,-2.6 c 0.4,-0.2 0.7,-0.5 0.9,-0.9 0.8,-2.3 3.4,-9.2 3.4,-9.2 l 8,-10.8 -0.1,-0.1 -5.2,3.7 -0.1,-0.1 2.2,-4.5 -0.1,-0.1 -3.4,4.9 h -0.1 l 0.4,-4.9 h -0.1 l -1.2,5 h -0.1 l -2,-5 h -0.1 l 1.5,6 -0.2,2.8 h -0.1 l -0.3,-2.5 -3.5,-6 -0.1,0.1 2.8,6.4 0.2,4.7 H 74.3 L 73.7,23.9 69.1,18 69,18.1 l 4,6.1 0.3,6.4 h -0.1 l -0.8,-6.1 -5.2,-5.4 -0.1,0.1 4.4,5.7 0.5,7.4 h -0.1 l -1.2,-7 -5.3,-4.6 -0.1,0.1 4.6,5 0.8,7.7 h -0.1 l -1.6,-7.3 -5.4,-3.7 -0.1,0.1 4.6,4.1 1.3,7.6 h -0.1 l -2,-7.1 -5.2,-2.8 -0.1,0.1 4.4,3.2 1.4,7.4 h -0.1 l -2.3,-6.8 -4.8,-1.8 v 0.1 l 4.1,2.3 1.7,6.8 h -0.1 l -2.6,-6.1 -4.6,-0.8 v 0.1 l 3.8,1.4 2,5.9 H 64.8 L 61.9,31.2 58,30.9 V 31 l 3,1 2.3,4.8 -0.1,0.1 -3.2,-3.8 -3.5,0.2 v 0.1 l 2.8,0.5 2.5,3.7 -0.1,0.1 -3.3,-2.7 -3.7,0.8 v 0.1 h 3.1 l 2.8,2.6 -0.1,0.1 -3.4,-1.6 -3.9,0.6 v 0.1 l 3.5,0.1 2.9,1.9 v 0.1 l -3.2,-1.1 -5.2,1 v 0.1 l 4.9,-0.1 3,1.4 v 0.1 L 56,40.5 48.1,41.8 v 0.1 l 6.2,0.5 v 0.1 l -5,0.9 v 0.1 l 3.4,0.2 v 0.1 l -3.9,1 v 0 0 l 1.7,2.2 -0.1,0.1 -3.8,-3.2 -9.7,-13.5 -8.8,-4.5 -7,-6.3 -2.1,-5.8 h -0.1 l 0.8,6.6 3.4,5.5 L 23,26 18,21.9 15.6,17.3 h -0.1 l 0.8,5.3 2.4,4.4 -0.1,0.1 -3.9,-3.2 -2,-3.1 h -0.1 l 1,4.1 2.5,3.7 -0.1,0.1 -3.9,-2.2 -1.7,-2.2 -0.1,0.1 1.1,3.2 1.8,2.3 -0.1,0.1 -1.8,-0.3 v 0.1 l 3.8,3.6 v 0.1 l -3.3,-0.2 v 0.2 l 4.8,3 v 0.1 l -2.2,0.2 v 0.1 l 5.5,2.1 v 0.1 l -2.2,0.8 V 40 L 31,41 v 0.1 l -7.4,0.1 -0.1,1.5 9.3,-0.1 v 0.1 l -6.7,0.7 -0.3,1.8 9.1,-1.2 v 0.1 l -7.1,1.6 -0.1,2.1 9.3,-2.6 v 0.1 l -7.7,3 v 1.9 l 9.4,-3.9 v 0.1 l -7.6,4.1 0.3,2 9.2,-4.7 0.1,0.1 -7.5,4.8 0.4,1.7 8.9,-4.9 0.1,0.1 -6.9,4.6 0.7,1.8 7.3,-4.4 0.1,0.1 -4.8,3.6 0.8,1.7 3.6,-2.2 0.1,0.1 -1.3,1.2 0.7,1.3 0.8,-0.3 1.1,-0.4 0.6,-0.2 c 0.1,0 0.2,-0.1 0.3,-0.1 0.1,0 0.2,-0.1 0.3,-0.2 0.2,-0.1 0.4,-0.2 0.5,-0.4 l 0.1,-0.1 0.1,-0.1 c 0.1,-0.1 0.1,-0.2 0.2,-0.2 0.1,-0.1 0.1,-0.2 0.2,-0.2 L 47.3,55 c 0.1,-0.1 0.1,-0.2 0.1,-0.2 l 0.1,-0.2 c 0.1,-0.1 0.1,-0.3 0.2,-0.4 0,-0.1 0.1,-0.2 0.1,-0.3 l 0.1,-0.2 V 53.6 H 48 v 0.1 0.2 c 0,0.1 0,0.2 -0.1,0.4 0,0.2 -0.1,0.3 -0.1,0.5 l -0.1,0.3 -0.1,0.3 c 0,0.1 -0.1,0.2 -0.2,0.3 l -0.7,-0.4 -0.2,0.3 -0.1,0.1 -0.1,0.1 c -0.2,0.2 -0.4,0.3 -0.6,0.5 l -0.3,0.2 -0.3,0.2 C 44.5,57 44,57.2 43.4,57.5 l -10.3,3.8 -6.7,10.5 0.4,0.3 7.5,-8.7 0.1,0.1 -4.5,6.6 2.7,-0.4 4.1,-6.1 0.1,0.1 -3,5.9 2.6,-0.2 2.8,-5.7 h 0.1 l -1.9,5.6 2.6,-0.2 1.6,-5.4 h 0.1 l -0.9,5.2 2.7,-0.5 0.6,-4.8 h 0.1 v 4.6 l 2,-1.1 -0.3,-3.5 H 46 l 0.7,3.2 0.7,0.4 0.5,1.4 0.8,0.3 1.6,1.3 0.6,0.5 v 0 0.1 l -1,-0.4 c -3.8,1 -7.6,2.1 -11.3,3.3 v 0 l 3.8,2.2 1.9,1.1 0.9,0.5 0.2,0.1 h 0.1 v 0 0 0 0 c 0.1,0.1 0.2,0.2 0.4,0.3 0.2,0.2 0.3,0.4 0.4,0.7 0.1,0.2 0.1,0.4 0,0.6 0,0.1 -0.1,0.3 -0.1,0.4 v 0.1 h -0.1 v -0.1 c 0,-0.1 0,-0.2 0,-0.3 0,-0.2 0,-0.4 -0.1,-0.5 C 45.9,78.6 45.8,78.4 45.6,78.2 45.5,78.1 45.4,78 45.3,78 v 0 H 45.2 45.1 L 44.9,77.9 C 44.6,77.8 44.3,77.6 44,77.5 L 42,76.6 40.7,76 37.8,76.9 c -1.3,0.4 -1.2,2.1 0,2.5 1.8,0.7 3.6,1.3 5.4,2 1.3,0.5 2.7,0.4 3.9,-0.3 L 51.8,79 c 3.3,-1.8 8,-5.6 8,-5.6 l 0.1,0.1 -3.7,3.5 c 2.5,-1.1 4.9,-2.2 6.5,-2.8 1.9,-1 3.7,-2.1 5.5,-3.3 l 0.1,0.1 -2.5,2.3 c 2.9,-0.5 7.5,-1 10.1,-1 3.3,-0.1 3.4,-3 1.6,-4 z M 69,48.3 c 0.4,0.4 0.9,0.9 1.4,1.3 0.1,0.1 0.1,0.1 0.1,0.2 0,0 0,0.1 0.1,0.1 V 50 c 0,0.1 0.1,0.1 0.1,0.2 0,0.1 0,0.1 0,0.2 0,0.1 0,0.2 0,0.2 0,0 0,0.1 0,0.1 0,0 0,0.1 0,0.1 0,0.1 0,0.1 -0.1,0.2 0,0 0,0.1 0,0.1 v 0.1 L 70.5,51.1 V 51 c 0,0 0,-0.1 0,-0.1 0,-0.1 0,-0.1 0,-0.2 0,0 0,-0.1 0,-0.1 v -0.1 c 0,-0.1 0,-0.1 0,-0.2 0,-0.1 0,-0.1 -0.1,-0.2 0,-0.1 -0.1,-0.1 -0.1,-0.2 0,0 0,-0.1 0,-0.1 0,0 0,-0.1 -0.1,-0.1 0,0 -0.1,-0.1 -0.1,-0.1 -0.5,-0.4 -1,-0.8 -1.5,-1.1 z m -2.7,-1.2 c 0,-0.1 0,-0.2 0.1,-0.3 0,0 0,0 0,0 0,0 0,0 0,-0.1 l 0.1,-0.1 c 0,0 0.1,-0.1 0.1,-0.1 v 0 h 0.1 v 0 l 0.1,0.1 v 0 c 0,0 -0.1,0.1 -0.1,0.1 0,0 0,0 0,0 v 0 0 c 0,0 0,0 0,0 0,0 0,0 0,0 0,0 0,0 0,0 0,0 0,0 0,0 0,0 0,0 0,0 v 0 c 0,0 0,0 0,0.1 0,0 0,0 0,0.1 v 0 0 c 0,0 0,0 0,0 0,0 0,0 0,0 0,0 0,0 0,0 v 0 0 c 0,0 0.1,0 0.1,0 0,0 0.1,0 0.1,0 H 67 v 0 0 c 0,0 0,0 0,0 0,0 0,0 0,0 0,0 0,0 0,0 v 0 c 0,0 0,0 0,0 v -0.1 c 0,0 0,0 0,-0.1 v 0 c 0,0 0,-0.1 0,-0.1 v 0 l 0.1,-0.1 v 0 c 0,0 0,0.1 0.1,0.1 v 0 c 0,0 0,0.1 0,0.1 v 0.1 c 0,0 0,0.1 0,0.1 v 0 c 0,0.1 -0.1,0.2 -0.1,0.3 -0.1,0.1 -0.1,0.1 -0.2,0.2 v 0 0 0 h -0.1 c -0.1,0 -0.1,0 -0.2,0 h -0.1 c -0.1,0 -0.2,0 -0.3,-0.1 v 0 c 0,0 -0.1,0 -0.1,-0.1 0,0 0,0 -0.1,-0.1 0,0 0,0 -0.1,-0.1 0,0 -0.1,-0.1 -0.1,-0.2 v -0.1 0 0 0 c 0,0 0,-0.1 0,-0.1 0.4,0.6 0.5,0.5 0.5,0.5 z m -0.2,3.2 c 0,-0.1 0.1,-0.2 0.1,-0.3 0,0 0.1,-0.1 0.1,-0.1 v 0 0 0 0 c 0.1,-0.1 0.2,-0.1 0.3,-0.1 0.1,0 0.3,0 0.4,0 0,0 0.1,0 0.1,0 h 0.1 c 0,0 0.1,0 0.1,0.1 0,0 0.1,0 0.1,0.1 l 0.1,0.1 v 0.1 c 0,0 0,0 0,0 v 0.1 l -0.1,0.1 c 0,0 -0.1,0 -0.1,-0.1 0,0 0,0 0,0 v 0 c 0,0 -0.1,0 -0.1,0 0,0 -0.1,0 -0.1,0 v 0 c 0,0 0,0 -0.1,0 h -0.1 c 0,0 -0.1,0 -0.1,0 0,0 -0.1,0 -0.1,0.1 v 0 0 c 0,0 0,0 0,0 0,0 -0.1,0.1 -0.1,0.1 0,0 0,0 0,0.1 0,0 0,0 0,0.1 0,0 0,0.1 0,0.1 0,0 0,0.1 0,0.1 v 0 c 0,0 0,0 0,0 0,0 0,0.1 0,0.1 h -0.1 c 0,0 -0.1,0 -0.1,-0.1 v 0 -0.1 -0.1 c 0,0 0,-0.1 0,-0.1 v -0.1 -0.1 c -0.3,0.1 -0.3,0 -0.3,-0.1 z M 21.9,22.1 22,22 l 4,5.3 6.5,3.1 -0.1,0.2 -7,-2.7 z m -6.3,4.4 0.1,-0.1 4.2,4 8.6,2.8 -0.1,0.2 -9.1,-2.3 z m -2.2,2.3 0.1,-0.1 4.6,3.7 10.1,2.8 v 0.2 L 17.7,33.1 Z m 0.8,5.5 0.1,-0.2 14,2.9 v 0.2 L 17.9,35.6 Z m 15,4.9 -7.4,-0.7 -3.7,-1.1 V 37.2 L 29.2,39 Z M 29.5,31.5 22,29 18.9,24.7 19,24.6 l 3.6,3.8 6.9,2.9 z m 0.9,2.7 -0.1,-0.1 v -1.6 h 0.2 l 0.2,1 3.3,-1.7 0.1,0.1 z m 0.5,2.5 v -1.6 h 0.2 l 0.2,1 4.4,-2.3 0.1,0.1 -4.7,2.9 z m 1.4,2.3 -0.1,-0.1 v -1.6 h 0.1 l 0.2,1 4.6,-2.5 0.1,0.1 z m 1.8,1.9 -0.1,-0.1 v -1.6 h 0.2 l 0.2,1 4.5,-2.4 0.1,0.1 z m 2.3,1.7 -0.1,-0.1 v -1.6 h 0.2 l 0.2,1 4,-2.1 0.1,0.1 z m 2.5,1.5 -0.1,-0.1 v -1.6 h 0.1 l 0.2,1 3.3,-1.7 0.1,0.1 z m 2.4,1.5 -0.1,-0.1 V 44 h 0.1 l 0.2,0.9 2.3,-1.1 0.1,0.1 z m 2,1.5 -0.1,-0.1 0.1,-1.3 h 0.1 l 0.1,0.7 1.7,-0.7 0.1,0.1 z m 1.5,1.6 -0.1,-0.1 0.1,-1.2 h 0.1 l 0.1,0.6 2,-0.9 0.1,0.1 z m 1.2,3.7 -0.1,-0.1 0.2,-0.9 h 0.1 v 0.4 l 1,-0.4 0.1,0.1 z m -0.3,-1.9 -0.1,-0.1 0.1,-0.9 h 0.1 v 0.4 l 1.4,-0.7 0.1,0.1 z m -5.6,11 v 0 L 40.2,61 39.8,60.8 v -0.1 h 1.1 v 0.1 z m 3.2,0 v 0 L 43.4,61 43,60.8 v -0.1 h 1.1 v 0.1 z M 44.1,79.9 43,79.5 41.9,79.1 39.6,78.4 v 0 c -0.2,0 -0.3,-0.2 -0.2,-0.4 0,-0.1 0.1,-0.2 0.2,-0.2 l 2.3,-0.6 v 0.1 l -1.5,0.8 1.6,0.7 c 0.4,0.2 0.7,0.3 1.1,0.5 l 1.1,0.5 z M 56.1,60 v 0 l 0.1,-0.6 -0.6,-0.1 V 59.2 L 57,59 v 0.1 z m -2.4,-3.5 v 0 l 2.1,-0.8 0.1,0.1 -1.2,1.8 h -0.1 l 0.2,-1 z m -0.9,4.3 v -0.1 l 1.1,-0.2 v 0.1 l -0.8,0.8 H 53 l 0.2,-0.5 z m 0.1,-7.7 V 53 l 2.1,-0.6 0.1,0.1 -1.3,1.8 h -0.1 l 0.2,-1 z m 5.5,4.3 v 0 l 0.1,-0.6 -0.6,-0.1 v -0.1 l 1.4,-0.2 v 0.1 z M 60.1,52 60.3,51.4 59.7,51.2 V 51.1 L 61.1,51 v 0.1 z m 1.8,-6.2 H 63 v 0.1 l -0.9,0.7 -0.1,-0.1 0.2,-0.4 z m -0.5,8.3 -0.8,0.8 h -0.1 l 0.2,-0.5 -0.5,-0.1 v -0.1 z m -0.1,-6.2 -1.4,1.1 -0.1,-0.1 0.4,-0.7 -0.7,-0.3 v -0.1 h 1.8 z m -2.6,-2.8 h 1.4 v 0.1 L 59,46.1 58.9,46 59.2,45.5 58.6,45.3 Z m -0.1,8 -1.1,1.4 h -0.1 l 0.2,-0.8 -0.8,-0.1 v -0.1 z m -0.2,-3.4 v 0 l -1.3,1.7 H 57 l 0.3,-0.9 -0.9,-0.2 v -0.1 z m -0.7,-2.5 -1.4,1.1 -0.1,-0.1 0.4,-0.7 -0.7,-0.3 v -0.1 h 1.8 z M 55,45.1 h 1.1 v 0.1 l -0.9,0.7 -0.1,-0.1 0.2,-0.4 z m -0.5,4.2 v 0 L 53,51 52.9,50.9 53.2,50 52.2,49.7 V 49.6 Z M 51,58.5 v -0.2 l 1.7,-0.4 V 58 l -1.1,1.3 h -0.1 l 0.2,-0.8 z m 0.8,-11.9 h 1.8 v 0.1 l -1.4,1.1 -0.1,-0.1 0.4,-0.7 -0.7,-0.3 z m -0.1,8.6 -1.1,1.4 h -0.1 l 0.2,-0.8 -0.8,-0.1 v -0.1 l 1.7,-0.5 z m -0.5,-2.8 -1.1,1.3 -0.1,-0.1 0.2,-0.7 -0.7,-0.1 v -0.1 z m -2,-2.5 1.4,-0.2 v 0.1 l -1,1 -0.1,-0.1 0.2,-0.6 -0.6,-0.1 z m -3.6,9.7 v 0 l 0.1,-0.5 -0.4,-0.2 v -0.1 h 1.1 v 0.1 z m 0.9,2.5 v 0 l 0.1,-0.5 -0.4,-0.2 v -0.1 h 1.1 v 0.1 z m 1.3,-4.2 v 0 L 48,57.3 47.4,57.1 V 57 h 1.4 v 0.1 z m 0.8,2.4 v 0 l 0.2,-0.6 -0.6,-0.2 v -0.1 h 1.5 v 0.1 z m 1.4,2 v 0 l 0.1,-0.5 -0.4,-0.2 v -0.1 h 1.1 v 0.1 z m -4.8,11.7 -0.4,0.1 -0.3,0.1 -0.3,0.1 -0.4,0.1 -0.1,-0.2 v 0 l 0.3,-0.1 0.4,-0.2 h 0.1 l 0.4,-0.2 c 0.4,-0.2 0.8,-0.3 1.2,-0.4 h 0.1 l 0.3,-0.1 c 0.4,-0.1 0.8,-0.3 1.2,-0.4 0.5,-0.2 1,-0.3 1.6,-0.5 l 0.2,-0.1 0.5,-0.1 0.7,-0.2 0.8,-0.2 h 0.2 l 0.4,-0.1 v 0 l 0.1,0.2 v 0 l -0.4,0.1 -0.2,0.1 -0.7,0.2 -0.6,0.2 h -0.1 l -0.6,0.2 c -0.5,0.2 -1,0.3 -1.5,0.5 l -0.4,0.1 -1.1,0.4 -0.5,0.2 z m 12.1,-2.2 -0.4,0.1 -0.9,0.3 -0.3,0.1 -0.7,0.2 c -0.3,0.1 -0.6,0.2 -1,0.3 l -2.1,0.7 -1.4,0.5 -0.7,0.3 c -0.2,0.1 -0.4,0.2 -0.7,0.2 l -0.3,0.1 -0.6,0.2 -0.3,0.1 C 47.6,75 47.3,75.1 47,75.2 l -0.4,0.1 -0.5,0.2 v 0 L 46,75.3 v 0 h 0.7 l 0.4,-0.2 0.9,-0.4 0.2,-0.1 0.7,-0.3 0.3,-0.1 0.7,-0.3 0.7,-0.3 C 51,73.4 51.5,73.3 52,73.1 l 2.1,-0.7 0.5,-0.2 0.5,-0.1 0.9,-0.3 0.9,-0.3 0.4,-0.1 0.5,-0.2 0.1,0.2 z m -4.9,-2.2 v -0.1 c 0,0 0.1,0 0.1,0 0,0 0.1,0 0.1,0 0.1,0 0.1,0 0.2,0 v 0 h 0.1 c 0,0 0.1,0 0.1,0 0.1,0 0.1,0 0.2,0.1 0.1,0 0.1,0.1 0.2,0.1 0.1,0.1 0.1,0.1 0.2,0.2 V 70 c 0,0 0.1,0.1 0.1,0.1 0,0.1 0.1,0.1 0.1,0.2 0,0.1 0,0.2 0.1,0.2 v 0.1 0.1 c 0,0.1 0,0.1 0,0.2 0,0 0,0.1 0,0.1 v 0.1 H 53.8 V 71 c 0,0 0,-0.1 0,-0.1 0,0 0,-0.1 0,-0.1 0,-0.1 0,-0.1 -0.1,-0.1 0,-0.1 -0.1,-0.1 -0.1,-0.2 l -0.1,-0.1 -0.1,-0.1 -0.1,-0.1 c 0,0 0,0 0,0 l -0.1,-0.1 c 0,0 -0.1,-0.1 -0.1,-0.1 0,0 -0.1,-0.1 -0.1,-0.1 l -0.1,-0.1 z m 3.4,-0.9 c 0.1,0 0.1,0 0,0 0.1,0 0.2,0.1 0.3,0.1 0.1,0 0.1,0.1 0.2,0.1 0.1,0.1 0.1,0.1 0.2,0.2 0.1,0.1 0.1,0.1 0.1,0.2 0,0.1 0.1,0.1 0.1,0.2 0,0.1 0,0.2 0.1,0.2 v 0.1 0.1 c 0,0.1 0,0.1 0,0.2 0,0 0,0.1 0,0.1 v 0.1 h -0.1 c 0,0 0,-0.1 0,-0.1 0,0 0,-0.1 0,-0.1 V 70 c 0,-0.1 0,-0.1 -0.1,-0.1 0,-0.1 -0.1,-0.1 -0.1,-0.2 l -0.1,-0.1 -0.1,-0.2 c 0,-0.1 -0.1,-0.1 -0.1,-0.1 l -0.1,-0.1 c 0,0 -0.1,-0.1 -0.1,-0.1 -0.1,-0.1 -0.2,-0.1 -0.3,-0.2 0,0 -0.1,0 -0.1,-0.1 0,0 0,0 0,0 L 54.7,69 h -0.1 0.1 c 0.1,0 0.1,0.1 0.2,0.1 0.1,0 0.1,0.1 0.2,0.1 0.1,0.1 0.1,0.1 0.2,0.2 0.1,0.1 0.1,0.1 0.1,0.2 0,0.1 0.1,0.1 0.1,0.2 0,0.1 0,0.2 0.1,0.2 v 0.1 0.1 c 0,0.1 0,0.1 0,0.2 0,0 0,0.1 0,0.1 0,0 0,0.1 0,0.1 h -0.1 v -0.1 c 0,0 0,-0.1 0,-0.1 V 70.3 L 55.4,70.1 55.3,70 55.2,69.8 c 0,-0.1 -0.1,-0.1 -0.1,-0.1 0,0 -0.1,-0.1 -0.1,-0.1 l -0.1,-0.1 c 0,0 -0.1,-0.1 -0.1,-0.1 l -0.1,-0.1 -0.1,-0.1 h -0.1 -0.1 l -1.5,-1.8 -0.8,-4.2 0.1,-0.1 2.9,3.5 h 1 l 2.6,1.4 z m 4.7,-1.1 v 0 l 0.1,-0.1 c 0,0 0.1,0 0.1,0 0.1,0 0.1,0 0.2,0 v 0 h 0.1 0.1 c 0.2,0.1 0.3,0.1 0.4,0.2 0.1,0 0.1,0.1 0.1,0.1 v 0 c 0.1,0.1 0.1,0.1 0.1,0.2 0,0.1 0.1,0.1 0.1,0.2 0,0.1 0,0.2 0,0.2 v 0.1 0.1 c 0,0.1 0,0.1 0,0.2 0,0 0,0.1 0,0.1 V 69 h -0.1 v -0.1 c 0,0 0,-0.1 0,-0.1 v -0.1 l -0.1,-0.1 -0.1,-0.2 -0.1,-0.2 c 0,-0.1 -0.1,-0.1 -0.1,-0.2 l -0.1,-0.1 c 0,0 0,0 -0.1,-0.1 0,0 0,0 -0.1,-0.1 l -0.1,-0.1 -0.1,-0.1 -0.1,-0.1 z m 3.6,2.3 -0.2,0.1 h -0.1 l -0.3,0.1 c -0.5,0.1 -1,0.2 -1.4,0.3 H 62 c -0.4,0.1 -0.9,0.2 -1.4,0.3 h -0.4 -0.1 -0.2 v 0 -0.2 0 l 0.2,-0.1 h 0.1 l 0.4,-0.1 C 61,70.2 61.6,70 62,69.9 l 0.8,-0.2 0.7,-0.1 h 0.4 0.1 0.2 v 0 0.3 z m 1.7,-1.6 v 0 l -0.1,-0.2 v 0 L 65.9,68 c 0.2,-0.1 0.4,-0.1 0.6,-0.2 0.6,-0.1 1.2,-0.3 1.9,-0.4 v 0 l 1,-0.2 0.8,-0.1 h 0.1 L 70.8,67 h 0.1 0.2 v 0 0.2 0 l -0.2,0.1 h -0.2 l -0.4,0.1 -0.5,0.1 -0.4,0.1 -0.8,0.2 h -0.2 c -0.8,0.1 -1.6,0.3 -2.3,0.4 h -0.2 z m 7.7,0.2 h -0.3 l -0.5,0.1 c -0.4,0.1 -0.8,0.1 -1.2,0.2 l -0.7,0.1 h -0.1 l -0.6,0.1 -0.5,0.1 -0.9,0.1 -0.5,0.1 H 68 l -0.6,0.1 -0.6,0.1 h -0.3 -0.4 v -0.2 l 0.4,-0.1 0.2,-0.1 0.6,-0.1 0.3,-0.1 0.5,-0.1 0.4,-0.1 c 0.2,0 0.4,-0.1 0.7,-0.1 l 0.7,-0.1 0.7,-0.1 0.7,-0.1 0.8,-0.1 h 0.4 l 0.8,-0.1 h 0.1 0.3 v 0 0.2 z m 0,0"
   id="path6" />
<path
   class="st2"
   d="m 126.9,26.8 1.8,0.4 c 4.3,0.8 4.9,3.4 4.9,5.7 v 30 c 0,2.4 -0.6,4.9 -4.9,5.7 l -1.8,0.4 v 1 h 21.4 v -1 l -1.8,-0.4 c -4.3,-0.9 -4.9,-3.3 -4.9,-5.7 v -30 c 0,-2.4 0.6,-4.9 4.9,-5.7 l 1.8,-0.4 v -1 h -21.4 v 1 m 434,-1 v 14.8 h 0.9 l 2.2,-5.5 c 2.2,-5.5 4.4,-8.4 10.2,-8.4 h 2.4 v 36.1 c 0,2.4 -0.5,5.2 -4.9,5.8 l -1.8,0.3 v 1 h 21.4 v -1 l -1.9,-0.3 c -4.3,-0.7 -4.9,-3.5 -4.9,-5.9 V 26.8 h 2.4 c 5.7,0 8,2.9 10.2,8.4 l 2.2,5.5 h 0.9 V 25.8 h -39.3 m -19.1,1 1.8,0.2 c 3.2,0.4 6.3,2.1 6.3,10.5 L 550,57.6 533,37.3 c -5.2,-6 -7.2,-8.6 -8.7,-11.3 l -0.1,-0.1 h -15.6 v 1 h 0.3 c 3.2,0.6 5.2,1.9 8.6,5.6 l 0.7,0.7 v 23.1 c 0,9.9 -3.1,11.5 -6.8,12.4 l -1.3,0.3 v 1 h 17.5 v -1 l -1.3,-0.3 c -3.3,-0.9 -6.8,-1.8 -6.8,-12.5 l -0.2,-21.9 30.9,36.5 0.2,0.1 h 1 V 37.5 c 0,-8.4 3.2,-10 6.3,-10.5 l 1.7,-0.2 v -1 H 542 v 1 M 362.5,62 c -2.9,5.1 -6.6,6.9 -13.3,6.9 h -1.9 c -3.7,0 -5.4,-1.8 -5.4,-5.9 V 47.7 l 2.7,0.1 c 6.7,0.2 8.5,0.4 10.7,6.9 l 0.7,2.4 h 1 V 37.3 h -1 l -0.7,2.4 c -2.1,6.5 -4.1,6.8 -10.7,6.9 h -2.7 V 26.9 h 4.7 c 8,0 11.5,1.7 14.1,6.6 l 3,5.5 h 0.9 V 26 h -37.3 v 1 l 1.8,0.4 c 4.1,0.7 4.9,2.7 4.9,5.6 v 30.1 c 0,2.4 -0.6,5.2 -4.9,5.8 l -1.8,0.3 v 1 h 39 v -13 h -0.9 l -2.9,4.8 m 139.6,0.1 c -2.9,5 -6.6,6.9 -13.3,6.9 H 487 c -3.8,0 -5.5,-1.8 -5.5,-5.9 V 47.8 l 2.7,0.1 c 6.8,0.2 8.6,0.4 10.7,6.9 l 0.7,2.4 h 1 V 37.4 h -1 l -0.7,2.4 c -2.1,6.5 -4.1,6.8 -10.7,6.9 h -2.6 V 27 h 4.8 c 7.9,0 11.4,1.7 14.1,6.6 l 2.9,5.5 h 0.9 v -13 H 467 v 1 l 1.8,0.4 c 4.1,0.7 4.9,2.7 4.9,5.6 v 30.1 c 0,2.4 -0.5,5.2 -4.9,5.8 l -1.8,0.3 v 1 h 39 v -13 h -0.9 l -2.9,5.2 M 214,62.8 v -36 h 5.6 c 11.2,0 17.8,7.9 17.8,21.1 0,13.4 -6.3,21.1 -17.2,21.1 h -1.5 c -4,-0.1 -4.8,-2.5 -4.7,-6.2 m 7.4,-37 H 182 v 1 l 1.8,0.2 c 4,0.6 6.3,2.2 6.3,9.2 l 0.1,21.4 -17,-20.3 c -5,-5.8 -7.2,-8.6 -8.7,-11.3 l -0.1,-0.1 h -15.7 v 1 h 0.3 c 3.2,0.6 5.2,1.9 8.6,5.6 l 0.7,0.7 v 23.1 c 0,9.9 -3.2,11.5 -6.9,12.4 l -1.3,0.3 v 1 h 17.6 v -1 l -1.3,-0.3 c -3.3,-0.9 -6.8,-1.8 -6.8,-12.5 l -0.2,-21.9 31.1,36.6 h 1 V 35.3 c 0,-5.5 2.4,-8.3 7.4,-8.3 4.8,0 7.3,2.8 7.3,8.3 V 63 c 0,2.6 -0.6,5.1 -4.9,5.8 l -1.8,0.3 v 1 h 22.1 c 7.6,0 14,-2.4 18.4,-6.8 4.1,-4.1 6.3,-9.7 6.3,-15.5 0,-5.9 -2.2,-11.3 -6.3,-15.2 -5.2,-4.8 -11.8,-7.1 -18.6,-6.8 m 212.6,37 v -36 h 5.6 c 11.2,0 17.8,7.9 17.8,21.1 0,13.4 -6.3,21.1 -17.2,21.1 h -1.4 c -4,-0.1 -4.8,-2.5 -4.8,-6.2 m 7.5,-37 h -39.4 v 1 l 1.8,0.2 c 4,0.6 6.3,2.2 6.3,9.2 l 0.2,21.4 -17.1,-20.3 c -5.2,-6 -7.2,-8.6 -8.7,-11.3 l -0.2,-0.1 h -15.6 v 1 h 0.3 c 3.2,0.6 5.2,1.9 8.6,5.6 l 0.7,0.7 v 23.1 c 0,9.9 -3.2,11.5 -6.9,12.4 l -1.3,0.3 v 1 h 17.5 v -1 l -1.3,-0.3 c -3.3,-0.9 -6.8,-1.8 -6.9,-12.5 l -0.1,-21.9 30.9,36.5 0.1,0.1 h 1 V 35.3 c 0,-5.5 2.4,-8.3 7.4,-8.3 4.8,0 7.4,2.8 7.4,8.3 V 63 c 0,2.6 -0.7,5.1 -5,5.8 l -1.8,0.3 v 1 h 22.1 c 7.6,0 14,-2.4 18.4,-6.8 4.1,-4.1 6.3,-9.7 6.3,-15.5 0,-5.9 -2.2,-11.3 -6.3,-15.2 -5,-4.8 -11.6,-7.1 -18.4,-6.8 m -132.2,0 h -19.1 v 1 l 1.8,0.4 c 4.3,0.8 4.9,3.2 4.9,5.7 v 30 c 0,2.5 -0.6,4.9 -4.9,5.7 l -1.8,0.4 v 1 h 22.1 v -1 l -1.5,-0.3 c -5,-1 -5.9,-2.1 -5.9,-6.4 V 26.8 h 1.8 c 6.8,0 10.8,4.6 10.8,12.2 0,7.7 -4.1,12.3 -10.8,12.3 h -0.5 v 1.1 h 3 c 9.9,0 16.9,-5.5 16.9,-13.4 0.1,-7.7 -6.9,-13.2 -16.8,-13.2 M 282.1,62 c -2.9,5 -6.6,6.9 -13.3,6.9 h -1.9 c -3.7,0 -5.4,-1.8 -5.4,-5.9 V 47.7 l 2.7,0.1 c 6.7,0.2 8.5,0.4 10.7,6.9 l 0.7,2.4 h 0.9 V 37.3 h -0.9 l -0.7,2.4 c -2.1,6.5 -4.1,6.8 -10.7,6.9 h -2.7 V 26.9 h 4.7 c 7.9,0 11.5,1.7 14.1,6.6 l 3,5.5 h 0.9 V 26 h -37.3 v 1 l 1.8,0.4 c 4.1,0.7 4.9,2.7 4.9,5.6 v 30.1 c 0,2.4 -0.6,5.2 -4.9,5.8 l -1.8,0.3 v 1 h 39 v -13 h -1 l -2.8,4.8"
   id="path8"
   style="fill:#ffffff" />
</svg>
