<?xml version="1.0" encoding="UTF-8" standalone="no"?>
<svg
   xmlns:dc="http://purl.org/dc/elements/1.1/"
   xmlns:cc="http://creativecommons.org/ns#"
   xmlns:rdf="http://www.w3.org/1999/02/22-rdf-syntax-ns#"
   xmlns:svg="http://www.w3.org/2000/svg"
   xmlns="http://www.w3.org/2000/svg"
   xmlns:sodipodi="http://sodipodi.sourceforge.net/DTD/sodipodi-0.dtd"
   xmlns:inkscape="http://www.inkscape.org/namespaces/inkscape"
   inkscape:version="1.0 (4035a4fb49, 2020-05-01)"
   sodipodi:docname="logo-com.svg"
   id="svg3770"
   xml:space="preserve"
   enable-background="new 0 0 688.084 155.842"
   viewBox="0 0 1511.811 245.6693"
   height="65mm"
   width="400mm"
   y="0px"
   x="0px"
   version="1.1"><metadata
     id="metadata3776"><rdf:RDF><cc:Work
         rdf:about=""><dc:format>image/svg+xml</dc:format><dc:type
           rdf:resource="http://purl.org/dc/dcmitype/StillImage" /><dc:title></dc:title></cc:Work></rdf:RDF></metadata><defs
     id="defs3774" /><sodipodi:namedview
     inkscape:document-rotation="0"
     inkscape:current-layer="svg3770"
     inkscape:window-maximized="1"
     inkscape:window-y="-9"
     inkscape:window-x="-9"
     inkscape:cy="87.515644"
     inkscape:cx="810.24078"
     inkscape:zoom="1.4142136"
     fit-margin-bottom="0"
     fit-margin-right="0"
     fit-margin-left="0"
     fit-margin-top="0"
     units="mm"
     showgrid="false"
     id="namedview3772"
     inkscape:window-height="1721"
     inkscape:window-width="3200"
     inkscape:pageshadow="2"
     inkscape:pageopacity="0"
     guidetolerance="10"
     gridtolerance="10"
     objecttolerance="10"
     borderopacity="1"
     bordercolor="#666666"
     pagecolor="#bcbcbc" /><path
     inkscape:label="pathEllipse"
     style="clip-rule:evenodd;fill:#ef6c00;fill-rule:evenodd;stroke-width:1.56128252;fill-opacity:1"
     inkscape:connector-curvature="0"
     id="path3743"
     d="m 1405.15,1.8015144 c 17.5192,-0.3200629 32.8494,4.9180401 46.623,14.3403806 16.2155,11.092913 30.3795,24.521504 41.6738,40.679218 20.5558,29.409879 21.3989,60.663637 4.5121,91.269457 -19.9235,36.11091 -48.6465,64.68082 -84.5981,84.9853 -32.42,18.3076 -64.3451,15.41922 -94.1812,-6.93366 -14.6808,-10.99924 -27.4005,-24.13274 -37.6956,-39.28656 -17.4552,-25.68466 -20.0235,-53.56136 -6.4138,-81.1539 21.1179,-42.835352 54.0079,-74.827592 96.5341,-96.6028008 10.5543,-5.4020377 22.1577,-7.6596524 33.5457,-7.2974348 z M 1341.8978,123.33331 c 0,22.54024 -0.01,45.07892 0.01,67.61759 0,4.86807 0.9133,5.80641 5.7986,5.80953 26.9883,0.0296 53.9798,0.028 80.9696,0.003 5.0352,-0.003 6.6917,-1.64716 6.7495,-6.6901 0.07,-6.46059 0.067,-12.91961 0,-19.38021 -0.053,-5.14442 -1.2959,-6.37003 -6.342,-6.37315 -16.3669,-0.0171 -32.7369,-0.13276 -49.0961,0.0828 -3.9344,0.0516 -5.1678,-1.01795 -5.1381,-5.00703 0.1701,-22.1062 0.08,-44.21708 0.08,-66.323282 0,-12.060908 0.041,-24.118693 -0.028,-36.17804 -0.028,-5.822022 -1.3771,-7.100712 -7.0742,-7.117887 -6.3201,-0.0203 -12.6354,-0.01411 -18.954,-0.0031 -6.4184,0.0094 -6.9695,0.544888 -6.9726,6.804069 0,22.252962 0,44.50436 0,66.75576 z" /><g
     inkscape:label="theLocal"
     transform="translate(44.237261,45.610341)"
     id="contact"><path
       inkscape:label="pathTextL"
       inkscape:connector-curvature="0"
       id="path50"
       style="fill:#ef6c00;fill-opacity:1;fill-rule:nonzero;stroke:none;stroke-width:1.43306"
       d="m 1138.9568,123.72613 c 2.1826,0 3.9667,1.5864 3.9667,3.96529 v 26.3698 c 0,2.18112 -1.7841,4.16305 -3.9667,4.16305 h -93.1849 c -2.1812,0 -3.5698,-1.78416 -3.5698,-3.96529 V 3.5752535 c 0,-2.17969 1.5864,-3.96529003 3.9653,-3.96529003 h 26.9645 c 2.1811,0 4.1631,1.78560003 4.1631,3.96529003 V 123.72613 Z" /><path
       inkscape:label="pathTextA"
       inkscape:connector-curvature="0"
       id="path46"
       style="fill:#ef6c00;fill-opacity:1;fill-rule:nonzero;stroke:none;stroke-width:1.43306"
       d="m 947.14839,65.016403 -19.4309,42.033177 h 38.8604 z m 78.31541,88.624937 c 1.188,2.57808 0.1977,4.56144 -2.7759,4.56144 h -29.54251 c -2.1797,0 -3.3705,-0.99312 -4.163,-2.57808 l -7.9306,-17.24979 h -67.80824 l -7.92914,17.24979 c -0.79392,1.58496 -2.18256,2.57808 -4.16448,2.57808 h -29.74036 c -2.57808,0 -3.96529,-1.98336 -2.77585,-4.56144 L 943.18167,0.58015347 c 0.79392,-1.38864 1.78416,-1.98335997 2.97504,-1.98335997 h 1.78416 c 1.38864,0 2.37889,0.59471997 3.17281,1.98335997 z" /><path
       inkscape:label="pathTextC"
       inkscape:connector-curvature="0"
       id="path42"
       style="fill:#ef6c00;fill-opacity:1;fill-rule:nonzero;stroke:none;stroke-width:1.43306"
       d="m 859.13066,129.07934 c 1.98336,1.78416 2.18255,3.76752 0.39696,5.55169 -14.6717,15.86115 -35.88677,24.98116 -58.48904,24.98116 -45.00535,0 -81.28908,-35.68758 -81.28908,-80.496587 0,-44.80903 36.28373,-80.8935595 81.28908,-80.8935595 22.80147,0 44.2143,9.31921 58.886,25.1803595 1.78416,1.78416 1.5864,3.76752 -0.39696,5.55168 l -21.80836,18.43923 c -1.98336,1.58497 -3.76752,1.3872 -5.55168,-0.19776 -9.12002,-8.12977 -18.83619,-12.09506 -31.72372,-12.09506 -24.38644,0 -44.01511,19.23171 -44.01511,43.81734 0,24.981157 19.62867,43.815907 44.01511,43.815907 12.68977,0 22.40451,-3.76609 31.52452,-11.69667 1.78416,-1.5864 3.56833,-1.78416 5.55169,-0.19776 z" /><path
       inkscape:label="pathTextO"
       inkscape:connector-curvature="0"
       id="path38"
       style="fill:#ef6c00;fill-opacity:1;fill-rule:nonzero;stroke:none;stroke-width:1.43306"
       d="m 666.82174,78.719203 c 0,-24.18867 -20.22339,-43.61814 -44.21287,-43.61814 -24.38787,0 -44.61125,19.42947 -44.61125,43.61814 0,24.188667 20.22338,44.015097 44.61125,44.015097 23.98948,0 44.21287,-19.82643 44.21287,-44.015097 m -125.70114,0 c 0,-44.60982 36.2823,-80.4965895 81.29051,-80.4965895 45.00535,0 81.08988,35.8867695 81.08988,80.4965895 0,45.006777 -36.08453,80.893557 -81.08988,80.893557 -45.00821,0 -81.29051,-35.88678 -81.29051,-80.893557" /><path
       inkscape:label="pathTextL"
       inkscape:connector-curvature="0"
       id="path34"
       style="fill:#ef6c00;fill-opacity:1;fill-rule:nonzero;stroke:none;stroke-width:1.43306"
       d="m 531.89096,123.72613 c 2.18255,0 3.96672,1.5864 3.96672,3.96529 v 26.3698 c 0,2.18112 -1.78417,4.16305 -3.96672,4.16305 h -93.18493 c -2.18113,0 -3.56977,-1.78416 -3.56977,-3.96529 V 3.5752535 c 0,-2.17969 1.58641,-3.96529003 3.96672,-3.96529003 h 26.96309 c 2.18255,0 4.16448,1.78560003 4.16448,3.96529003 V 123.72613 Z" /><path
       inkscape:label="pathTextE"
       inkscape:connector-curvature="0"
       id="path30"
       style="fill:#ef6c00;fill-opacity:1;fill-rule:nonzero;stroke:none;stroke-width:1.43306"
       d="m 284.6973,63.651263 h 33.70565 c 2.17969,0 4.16304,1.78417 4.16304,3.96529 v 26.1706 c 0,2.38032 -1.78416,4.16448 -4.16304,4.16448 H 284.89506 V 123.7267 h 64.83321 c 2.18113,0 4.16449,1.78417 4.16449,3.96386 v 26.37123 c 0,2.37889 -1.78417,4.16305 -4.16449,4.16305 h -95.56381 c -2.38032,0 -4.16449,-1.78416 -4.16449,-4.16305 V 3.5758235 c 0,-2.18112 1.5864,-3.96528003 3.96529,-3.96528003 h 95.76301 c 2.18113,0 4.16449,1.78416003 4.16449,3.96528003 V 29.945623 c 0,2.37888 -1.78417,3.96528 -4.16449,3.96528 H 284.6973 Z" /><path
       inkscape:label="pathTextH"
       inkscape:connector-curvature="0"
       id="path26"
       style="fill:#ef6c00;fill-opacity:1;fill-rule:nonzero;stroke:none;stroke-width:1.43306"
       d="m 229.78604,-0.38931653 c 2.18112,0 3.96529,1.78416003 3.96529,3.96528003 V 154.06194 c 0,2.57665 -1.58641,4.16305 -3.76753,4.16305 h -21.01587 c -6.54337,0 -10.31089,-4.56144 -10.31089,-10.70642 V 97.951773 h -65.23017 v 56.110167 c 0,2.17969 -1.78416,4.16305 -3.96385,4.16305 h -26.76676 c -2.37888,0 -4.163052,-1.78417 -4.163052,-4.16305 V 3.5759635 c 0,-2.18112 1.586412,-3.96528003 3.965292,-3.96528003 h 26.76532 c 2.18112,0 4.16305,1.78416003 4.16305,3.96528003 V 63.651413 h 65.23017 V 3.5759635 c 0,-2.18112 1.5864,-3.96528003 3.96672,-3.96528003 z" /><path
       inkscape:label="pathTextT"
       inkscape:connector-curvature="0"
       id="path22"
       style="fill:#ef6c00;fill-opacity:1;fill-rule:nonzero;stroke:none;stroke-width:1.43306"
       d="m 78.318857,-0.38931653 c 2.18112,0 3.96529,1.58640003 3.96529,3.96528003 V 30.540483 c 0,2.18112 -1.78417,3.96529 -3.96529,3.96529 H 36.682637 V 154.06194 c 0,2.57665 -1.5864,4.16305 -3.76752,4.16305 h -21.01587 c -6.5419399,0 -10.3094603,-4.56144 -10.3094603,-10.70642 V 34.505773 H -40.046433 c -2.18112,0 -4.16448,-1.5864 -4.16448,-3.96529 V 3.7751635 c 0,-2.38032 1.7856,-4.16448003 4.16448,-4.16448003 z" /></g></svg>
