<?xml version="1.0" encoding="UTF-8" standalone="no"?>
<!-- Generator: Adobe Illustrator 27.1.0, SVG Export Plug-In . SVG Version: 6.00 Build 0)  -->

<svg
   version="1.1"
   id="Layer_1"
   x="0px"
   y="0px"
   viewBox="0 0 566.9 184.9"
   style="enable-background:new 0 0 566.9 184.9;"
   xml:space="preserve"
   sodipodi:docname="208177370-3e73bccd-961e-4eeb-9b71-fbf63ef094bd.svg"
   inkscape:version="1.1.1 (3bf5ae0d25, 2021-09-20)"
   xmlns:inkscape="http://www.inkscape.org/namespaces/inkscape"
   xmlns:sodipodi="http://sodipodi.sourceforge.net/DTD/sodipodi-0.dtd"
   xmlns:xlink="http://www.w3.org/1999/xlink"
   xmlns="http://www.w3.org/2000/svg"
   xmlns:svg="http://www.w3.org/2000/svg"><defs
   id="defs163" /><sodipodi:namedview
   id="namedview161"
   pagecolor="#505050"
   bordercolor="#eeeeee"
   borderopacity="1"
   inkscape:pageshadow="0"
   inkscape:pageopacity="0"
   inkscape:pagecheckerboard="0"
   showgrid="false"
   inkscape:zoom="1.8662903"
   inkscape:cx="283.71792"
   inkscape:cy="92.429352"
   inkscape:window-width="2560"
   inkscape:window-height="1009"
   inkscape:window-x="1912"
   inkscape:window-y="-8"
   inkscape:window-maximized="1"
   inkscape:current-layer="Layer_1" />
<style
   type="text/css"
   id="style2">
	.st0{clip-path:url(#SVGID_00000127014862621257148890000003552840136169993894_);fill:#131313;}
	.st1{clip-path:url(#SVGID_00000127014862621257148890000003552840136169993894_);fill:#006D7D;}
	.st2{fill:#242724;}
	.st3{fill:#2A2A28;}
	.st4{clip-path:url(#SVGID_00000005236690314213722980000004172400240433473963_);fill:#272A28;}
	.st5{fill:#272A28;}
	.st6{fill:#36240B;}
	.st7{fill:#171717;}
	.st8{fill:#006D7C;}
	.st9{fill:#574631;}
</style>
<g
   id="g14">
	<defs
   id="defs5">
		<rect
   id="SVGID_1_"
   width="566.9"
   height="184.9" />
	</defs>
	<clipPath
   id="SVGID_00000049941439432329233850000010207772603491069067_">
		<use
   xlink:href="#SVGID_1_"
   style="overflow:visible;"
   id="use7" />
	</clipPath>
	<path
   style="clip-path:url(#SVGID_00000049941439432329233850000010207772603491069067_);fill:#ffffff"
   d="M92.7,184.9   C45.2,186.1,0.1,146.6,0,92.6C-0.1,41.5,41.7-0.1,92.8,0c53.3,0.1,95,44.9,92.5,97.2C183,145.7,141.5,186.1,92.7,184.9 M90.7,176.8   c46,1,84.3-38.1,84.5-83.5c0.3-47.4-38.4-85.1-84-85.3C43.9,7.8,6.6,45.6,5.9,91.4C5.2,139.4,45.1,177.8,90.7,176.8z"
   clip-path="url(#SVGID_00000049941439432329233850000010207772603491069067_)"
   id="path10" />
	<path
   style="clip-path:url(#SVGID_00000049941439432329233850000010207772603491069067_);fill:#006D7D;"
   d="M379.5,97.5   c-60.8,0-121.7,0-182.5,0c-3.3,0-4.8-1.2-4.8-4.1c0-2.9,1.8-4.6,5-4.6c19.2,0,38.3,0,57.5,0c102.3,0,204.6,0,306.9,0   c3.1,0,4.6,1.1,5,3.6c0.5,3.2-1,5.1-4.3,5.1C501.4,97.5,440.5,97.5,379.5,97.5"
   clip-path="url(#SVGID_00000049941439432329233850000010207772603491069067_)"
   id="path12" />
</g>
<path
   class="st2"
   d="M371.8,34.4c1.6-0.3,3.3-0.6,4.9-1c1.4-0.4,1.9,0,1.7,1.4c-0.1,0.6,0,1.1,0,1.9c2.3-1.2,4.1-2.8,6.7-3.1  c4.1-0.5,5.9,0.8,6.5,4.9c0.1,1.1,0.2,2.2,0.3,3.3c-0.3,2.6-0.1,5.1-0.1,7.7c0,3.3,0,3.3,3.1,4.1c0.1,0,0.2,0.2,0.3,0.3  c0,0.9-0.2,1.4-1.3,1.4c-2.6-0.1-5.2,0-7.7,0c-0.7,0-1.3,0-1.3-1c0-0.9,0.6-0.8,1.2-0.8c1.5,0.1,1.9-0.6,1.9-2  c-0.1-3.6,0-7.2,0-10.8c-0.1-3.3-1.4-4.4-4.7-3.8c-0.1,0-0.3,0-0.4,0.1c-4,0.7-4.3,1.1-4.3,5c0,3.1,0.1,6.2,0,9.3  c-0.1,1.7,0.6,2.3,2.2,2.3c0.6,0,1.7-0.5,1.7,0.8c0,1.3-1,0.9-1.7,0.9c-2,0-4,0-6,0c-0.3,0-0.7-0.1-1,0c-2.5,1.6-3.6-0.3-4.8-1.8  c-0.6-0.8-1-0.9-1.7-0.2c-2.2,2.2-4.7,2.8-8,2.2c-3.2-0.6-6.5-0.1-9.8-0.1c1.6,5.8-0.3,9.9-5.9,12.5c-4.2,1.9-8.6,2.4-13,0.8  c-2.1-0.8-3.8-2.2-3.9-4.6c-0.1-2.5,1-4.5,3.2-5.8c1.1-0.7,2.3-1.2,3.6-1.8c-1.7-0.7-3.2-1.2-4.9-1.1c-2.1,0.1-4.3,0-6.4,0  c-0.6,0-1-0.1-1.1-0.8c0-0.6,0.2-1.1,0.8-1c2.3,0.3,2.3-1.2,2.2-2.8c-0.1-3.4,0-6.7,0-10.1c0-3.2-1.4-4.3-4.6-3.8  c-0.3,0-0.5,0.1-0.8,0.1c-3.7,0.7-4,1.1-4,4.9c0,3.1,0.1,6.2,0,9.3c-0.1,1.7,0.5,2.5,2.3,2.4c0.6,0,1.7-0.5,1.6,0.9  c-0.1,1.3-1.1,0.8-1.8,0.8c-11.4,0-22.8,0-34.3,0c-1.6,0-3-0.1-4.6,0.3c-4.4,1.2-7.1-1-7.2-5.5c-0.1-3.9,0-7.7,0-11.6  c0-0.6,0.5-1.5-0.7-1.6c-1.3-0.1-0.9,1-0.9,1.6c-0.1,0.6,0,1.3,0,1.9c0,0.6-0.2,0.8-0.8,0.8c-0.6,0-1-0.1-1-0.8c0-0.1,0-0.3,0-0.4  c-0.2-1.1,0.5-2.3-0.7-3.2c-1.5-1-3.1-1.3-4.8-1.2c-1.2,0.1-2.2,0.7-2.6,2c-0.3,1.2,0.2,2.2,1.1,2.9c2.1,1.5,4.2,3,6.3,4.5  c1.3,1,2.4,2.2,2.6,3.9c0.4,3.2-1.2,5.7-4.3,6.7c-2.2,0.6-4.3,0.4-6.5,0c-0.8-0.1-1.7-0.7-2.2,0.7c-0.2,0.6-1.3,0.6-1.5-0.5  c-0.1-0.7-0.2-1.5-0.4-2.4c-1.7,1.1-3.3,1.9-5.2,2.3c-6.6,1.5-11.9-2.5-12.5-9.4c-0.2-2.3,0.1-4.5,1-6.6c1.4-3.4,3.8-5.7,7.5-6.1  c3.7-0.4,6.8,1,9,4.1c0.3,0.4,0.5,0.7,1,1.4c0.5-2.6,2-4.2,4.2-5c2.1-0.7,4.3-0.5,6.4,0.2c0.7,0.2,1.2,0.4,1.4-0.6  c0.2-1.1,1.4-0.9,1.6-0.5c0.8,1.5,1.1,0.2,1.5-0.2c1.3-1.5,2.6-3,4.1-4.8c0.5,1.7,0.3,3.1,0.2,4.4c0,1.2,0.3,1.6,1.5,1.5  c1.5-0.1,3.1,0,4.6,0c0.6,0,1.4-0.1,1.2,0.9c-0.1,0.8,0.1,1.8-1.2,1.7c-1.5,0-3.1,0.1-4.6,0c-1.1-0.1-1.5,0.3-1.4,1.4  c0.1,3.4,0,6.8,0,10.3c0,3.6,1.8,4.9,5.3,4.2c1-0.2,2.2-1.7,3.1,0.4c0.2,0.4,1.8,0.2,2-1c0.1-0.6,0.1-1.2,0.1-1.7  c0-8.7,0-17.4,0-26.1c0-2.9-0.2-3.1-3-3.1c-0.4,0-0.8,0-1.2,0c-0.8,0.1-1.2-0.2-1.2-1.1c0-1,0.4-1.2,1.3-1.2c8.5,0,17,0,25.6,0  c0.8,0,1.3,0.1,1.3,1.1c0,2.1,0.1,4.3,0.2,6.4c0.1,0.9-0.3,1.1-1.1,1.2c-0.9,0.1-1.1-0.3-1.1-1.1c-0.6-5.2-0.6-5.2-5.8-5.2  c-2.8,0-5.5,0-8.3,0c-1.5,0-2.2,0.7-2.2,2.2c0.1,2.8,0.1,5.5,0,8.3c0,1.3,0.5,1.7,1.7,1.7c2.8,0,5.7,0,8.5,0c1.2,0,1.8-0.5,1.8-1.7  c0-0.7,0-1.4,0-2.1c0-0.7,0.3-0.9,0.9-0.9c0.6,0,1.1,0.1,1.1,0.9c0,3.8,0,7.6,0,11.4c0,0.8-0.5,0.8-1.1,0.8c-0.6,0-1-0.1-1-0.8  c0-1.1,0-2.2,0-3.3c0-1.2-0.5-1.8-1.7-1.8c-2.8,0-5.7,0-8.5,0c-1.3,0-1.8,0.6-1.8,1.9c0.1,4.3,0.1,8.5,0,12.8c0,1.7,0.6,2.3,2.3,2.2  c4-0.1,8-0.1,12-0.3c2.9-0.1,3.1-0.3,3.6-3.1c0.1-0.7,0.3-1.4,0.4-2.1c0.1-0.8,0.7-0.8,1.3-0.7c0.7,0.1,0.8,0.5,0.7,1.1  c-0.3,1.5-0.5,3.1-0.7,4.6c-0.1,0.5-0.3,1.1,0.6,1.1c0.6,0,1-0.3,1-0.9c0.1-0.7,0.1-1.4,0.1-2.1c0-4.1,0-8.3,0-12.4  c0-1.3,0-2.5-1.9-1.9c-0.4,0.1-0.9,0.3-1.1-0.4c-0.1-0.6,0-1.1,0.8-1.3c1.6-0.3,3.3-0.6,4.9-1c0.8-0.2,1.1,0.1,1,0.9  c-0.1,0.8,0,1.5,0,2.3c0.8,0.1,1.2-0.5,1.7-0.8c1-0.5,1.9-1.2,2.9-1.5c5.1-1.9,7.5-0.4,8.8,5.3c0,4.5,0,8.9,0,13.4  c0.2,0,0.4,0.1,0.6,0.1c0.6-2.4,2.6-3.3,4.7-4.1c-4.3-4-4.7-4.8-4.4-9.4c2.6-6,7.7-7.8,13.5-4.8c2.2,1.1,4,0.9,5.9-0.7  c0.3-0.2,0.5-0.4,0.9-0.3c0.5,0.1,0.4,0.5,0.5,0.9c0.3,2.7-0.2,3.3-2.9,3.4c-0.3,0-0.6,0-1,0c-0.1,0-0.2,0.1-0.3,0.2  c2.1,6.5-0.7,10.7-7.7,11.3c-1.1,0.1-2.3,0-3.4,0.5c-0.7,0.3-1.7,0.7-1.5,1.7c0.2,1.1,1.1,1.1,2,1.2c1.5,0,3,0,4.4,0  c2.5,0,4.9,0.2,7.3,0.9c2.7,0.8,4.7-0.8,4.7-3.6c0-9.7,0-19.5,0-29.2c0-2.9,0-3-2.9-2.6c-0.6,0.1-1.2,0.4-1.3-0.6  c-0.1-0.8,0.2-1.1,1-1.2c2-0.3,3.9-0.6,5.9-0.9c0.7-0.1,1.1,0.1,1.1,0.9c0,0.5,0,1,0,1.5c0,10.9,0,21.8,0,32.7c0,0.6,0,1.3,0.2,1.9  c0.1,0.5,0.6,0.6,1.1,0.6c0.4,0,0.4-0.4,0.4-0.7c0.4-5.3,3.1-8.3,8.1-9.1c2.9-0.5,2.9-0.5,2.7-4.2c-0.2-2.2-1.2-3.1-3.6-3.1  c-1,0-1.9,0.2-2.9,0.4c-1.1,0.3-1.8,1-1.3,2.3c0.1,0.4,0.3,0.8,0.2,1.1c-0.1,1-0.8,1.5-1.7,1.5c-1,0.1-1.2-0.7-1.3-1.4  c-0.2-2.1,1.1-3.4,2.4-4.6c2.6-2.3,8.1-2.6,11-0.6c0.7,1.3,0.9,2.8,0.9,4.3c0,3.1,0,6.2,0,9.3c0,1.6,0.3,3.1,1.9,4  c0.7,0.4,1.2,0.5,1.2-0.6c0-5,0-9.9,0-14.9c0-0.9-0.4-1.4-1.3-1.1C371.6,36.3,371.5,35.5,371.8,34.4 M254,49  c0.2-0.6-0.5-1.4,0.4-1.7c0.3-0.1,1.1-0.1,1,0.1c-0.1,1.3,1.5,2.2,0.9,3.5c-0.4,0.8,0.1,1.1,0.6,1.3c1.5,0.9,3,1.5,4.7,1.6  c1.4,0.1,2.6-0.3,3.3-1.6c0.7-1.4,0.4-2.6-0.5-3.8c-0.7-0.9-1.7-1.6-2.7-2.2c-1.8-1.2-3.9-2.2-5-4.1c-0.7-1.2-1.3-1.5-2.7-1.2  c-3.9,0.7-7.8,1.1-11.7,1.5c-1.1,0.1-1.4,0.5-1.3,1.6c0.1,6.1,5.7,9.6,11.7,7.4C253.8,50.9,254.5,50.3,254,49z M340.5,56.3  c-4.1,0-7.1,0.9-9,4c-1.4,2.2-0.8,4.5,1.3,5.7c3.3,1.8,9.8,0.7,12.2-2.2c2.6-3,1.3-6.6-2.6-7.3C341.6,56.3,340.8,56.3,340.5,56.3z   M341.8,41.9c0-1.5-0.2-3.3-1.3-4.7c-0.9-1.2-2.1-2.2-3.7-1.9c-1.5,0.3-2.4,1.3-3,2.7c-0.5,1.4-0.6,2.9-0.4,4.4  c0.3,3.1,2.2,5.3,4.4,5.2C340.1,47.6,341.6,45.4,341.8,41.9z M367.5,47.7C367.5,47.7,367.5,47.7,367.5,47.7c0-0.8,0-1.5,0-2.3  c0-0.7-0.3-0.9-1-0.8c-2.3,0.3-4.4,1.1-5.6,3.3c-0.7,1.3-0.9,2.6,0.1,3.8c1.2,1.4,2.9,1.1,4.5,0.7c1.3-0.3,2-1.4,2-2.7  C367.5,49,367.5,48.4,367.5,47.7z M242.3,40.6c2.3-0.3,4.6-0.6,7-0.9c0.8-0.1,1.1-0.3,0.7-1.2c-1.1-2.3-2.8-3.6-4.6-3.4  c-1.8,0.2-3.6,2.3-4.1,4.4C241.1,40.5,241.3,40.8,242.3,40.6z"
   id="path16"
   style="fill:#ffffff" />
<path
   class="st3"
   d="M192.7,61.7c1.7-4.3,3.4-8.6,5.1-12.9c2.5-6.3,4.9-12.6,7.3-18.9c1.4-3.7-1.7-8.4-5.6-8.4  c-1.2,0-2.5,0.3-2.3-1.7c0.1-1.1,0.5-1.3,1.4-1.3c5.5,0,11,0,16.4,0c1.1,0,1.3,0.4,1.3,1.4c-0.1,0.8,0.2,1.7-1.2,1.6  c-1.1-0.1-2.2,0-3.3,0c-1.6-0.1-2,0.7-1.6,2.2c1.1,4.2,2.7,8.2,4,12.3c2.7,8,5.5,16,8.2,23.9c0.2,0.5,0.1,1.2,0.9,1.5  c1.4-3.7,2.8-7.4,4.3-11.2c3.2-8.4,6.4-16.7,9.5-25.1c1-2.8,0.5-3.6-2.6-3.7c-0.5,0-1-0.1-1.5,0c-1.2,0.1-1.4-0.5-1.4-1.5  c0-1,0.1-1.6,1.3-1.5c3.7,0.1,7.4,0.1,11,0c1,0,1.3,0.5,1.1,1.3c-0.1,0.6,0.5,1.8-0.8,1.7c-2.1-0.1-2.8,1.2-3.4,2.8  c-3.2,8.4-6.4,16.7-9.6,25.1c-2.8,7.3-5.6,14.7-8.5,22c-0.3,0.7-0.3,1.6-1.4,1.6c-1,0-0.9-1-1.1-1.6c-4.2-12.1-8.3-24.3-12.4-36.4  c-0.2-0.5-0.4-0.9-0.7-1.8c-1.5,3.7-2.8,7-4.1,10.3c-3.6,9.2-7.2,18.5-10.8,27.7c-0.3,0.7-0.2,1.7-1.3,1.7c-1.1,0-1-1-1.3-1.7  C184.4,56.5,179,41.7,173.6,27c-0.4-1.1-0.9-2.3-1.5-3.4c-0.7-1.4-1.7-2.3-3.4-2.1c-1.4,0.2-1.4-0.6-1.4-1.6c0-1.1,0.3-1.4,1.4-1.4  c5,0.1,9.9,0,14.9,0c1,0,1.6,0.2,1.5,1.4c-0.1,1,0,1.8-1.4,1.7c-0.9-0.1-1.8,0-2.7,0c-2.2,0.2-2.8,1.1-2.1,3.2  c2.6,7.1,5.2,14.3,7.8,21.4c1.9,5.1,3.7,10.3,5.6,15.4C192.4,61.7,192.6,61.7,192.7,61.7"
   id="path18"
   style="fill:#ffffff" />
<path
   class="st3"
   d="M431,53.9c-4.4,0.4-8.8,0.3-13.2,0.1c0-0.5,0.2-1-0.3-1.4c0-9.8,0-19.7,0-29.5c0-0.8,0-1.5,1.2-1.5  c3,0.1,5.9,0.1,8.9,0.1c0.1,0.1,0.1,0.3,0.2,0.4c0.1-0.1,0.1-0.3,0.2-0.4c0.6,0,1.3,0.1,1.9,0.1c0.2,0.5,0.4,0.7,0.8,0.1  c6.3,0.3,9.7,4.9,7.7,10.4c-0.9,2.6-3,3.7-5.8,4.6c4.3,1,7.1,3.1,7.3,7.4c0.1,3.6-1.1,6.5-4.5,8.2c-0.5,0-1.1-0.2-1.3,0.6  c-0.6,0.4-1.2,0.6-1.9,0.5C431.7,53.2,431.3,53.2,431,53.9 M421.3,44.7C421.3,44.7,421.3,44.7,421.3,44.7c0,1.7,0,3.3,0,5  c0,0.6,0,1.1,0.9,1.1c2.8-0.1,5.7,0.2,8.5-0.3c3.4-0.6,5.2-2.6,5.2-5.9c0-3.1-1.7-5.1-5.1-5.7c-1.2-0.2-2.4-0.3-3.7-0.3  c-1.9,0-4.3-0.6-5.4,0.3c-1.2,1-0.2,3.5-0.4,5.3C421.3,44.4,421.3,44.6,421.3,44.7z M425.6,35.5c2.1,0,4.1,0.1,6.1-0.6  c2.2-0.7,3.1-2.2,3.2-4.7c0-2.4-1-3.9-3.1-4.6c-1.7-0.6-3.5-0.7-5.3-0.7c-1.7,0-3.8-0.5-4.8,0.3c-1.1,0.9-0.2,3.1-0.4,4.8  c0,0.4,0,0.8,0,1.2C421.3,35.5,421.3,35.5,425.6,35.5z"
   id="path20"
   style="fill:#ffffff" />
<path
   class="st2"
   d="M417.5,52.6c0.5,0.4,0.3,0.9,0.3,1.4c-2.3,0.7-4.5,1.4-6.8,2.1c-1.1,0.4-1.4,0.1-1.3-1c0.1-0.9,0-1.9,0-3.2  c-4.4,4.1-9,5.2-14,1.8c-1.7-1.7-2.9-3.7-3.5-6.1c-0.5-2-0.1-3.9,0-5.9c1.7-4.5,4.7-7.7,9.7-8.2c2.7-0.3,5.2,0.7,7.7,2.2  c0-5.6,0-11,0-16.4c0-0.9-0.5-1.3-1.4-1.1c-0.7,0.1-1.4,0.3-2.1,0.4c-0.5,0.1-0.9,0-0.9-0.6c0-0.5,0-0.9,0.6-1  c2.3-0.5,4.6-1.1,6.9-1.6c0.7-0.2,0.7,0.3,0.7,0.8c0,0.6,0,1.3,0,1.9c0,10.9,0,21.8,0,32.6c0,3.1,0,3.1,3.1,2.2  C416.9,52.8,417.2,52.7,417.5,52.6 M409.7,44.5c0-1.5,0-3.1,0-4.6c0-0.5,0.1-1.1-0.2-1.5c-2-2.3-4.5-3.5-7.5-3.2  c-2.7,0.3-4.5,1.9-5.3,4.4c-1.2,3.5-0.6,6.7,1.5,9.7c2.2,3,6.6,4.1,9.8,2.4c1.2-0.6,2-1.4,1.8-3C409.6,47.3,409.7,45.9,409.7,44.5z"
   id="path22"
   style="fill:#ffffff" />
<g
   id="g32"
   style="fill:#ffffff">
	<defs
   id="defs25">
		<rect
   id="SVGID_00000041278901687139704430000008497514322388696220_"
   width="566.9"
   height="184.9" />
	</defs>
	<clipPath
   id="SVGID_00000119820791947191520160000006148267336038007996_">
		<use
   xlink:href="#SVGID_00000041278901687139704430000008497514322388696220_"
   style="overflow:visible;"
   id="use27" />
	</clipPath>
	<path
   style="clip-path:url(#SVGID_00000119820791947191520160000006148267336038007996_);fill:#ffffff"
   d="M540.9,67.6   c-11.6-0.2-23.6-1.6-35.6-2.9c-12.2-1.3-24.5-2.9-36.8-3.4c-2.1-0.1-4.1,0-6.2,0.1c-1.1,0.1-2.2,0.1-2.7,1.4   c-0.3,0.7-1,0.8-1.7,0.4c-0.6-0.3-0.8-0.9-0.6-1.7c0.5-1.3,1.5-1.9,2.8-2.2c2.9-0.7,5.8-0.7,8.7-0.6c13.6,0.6,27.1,2.5,40.6,3.9   c13.5,1.4,27.1,2.9,40.7,2.4c3.8-0.1,7.6-0.4,11.2-1.9c1.6-0.7,3-1.5,3.2-3.5c0.1-0.9,0.7-1.2,1.5-1.1c0.9,0.1,0.8,0.8,0.8,1.5   c0.1,2.3-1.3,3.7-3.1,4.7c-2.6,1.5-5.5,2-8.5,2.4C550.7,67.8,546,67.5,540.9,67.6"
   clip-path="url(#SVGID_00000119820791947191520160000006148267336038007996_)"
   id="path30" />
</g>
<path
   class="st3"
   d="M530.3,42.6c-2.3,0-4.6,0.1-7,0c-1.2,0-1.4,0.4-1.2,1.5c0.6,4.7,3.4,7.2,8.2,7.2c1.9,0,3.7-0.4,5.5-0.9  c0.5-0.2,1.5-1.1,1.7,0c0.2,0.9,0.8,2.3-0.6,3.1c-9.2,4.7-18.6-1-18.6-11.2c0-1.8,0.2-3.6,0.7-5.3c1.5-5.1,5.8-7.9,11.1-7.4  c4.8,0.5,8.1,4,8.6,9.4c0.4,3.9,0.4,3.9-3.5,3.9C533.5,42.6,531.9,42.6,530.3,42.6 M528.4,39.5c1.7,0,3.3-0.1,5,0  c1.2,0.1,1.4-0.4,1.3-1.4c-0.5-3.8-2.6-5.8-6.2-5.7c-3.4,0.1-6,2.8-6.2,6.2c-0.1,0.9,0.4,0.9,1,0.9  C524.9,39.5,526.7,39.5,528.4,39.5z"
   id="path34"
   style="fill:#ffffff" />
<path
   class="st3"
   d="M442.8,29.7c0.7,0,1.5,0.1,2.2,0c1.1-0.2,1.6,0.4,1.9,1.4c2.2,6.2,4.9,12.2,6.7,18.5c0,0.2,0.2,0.3,0.3,0.5  c2.2-6.3,4.4-12.5,6.6-18.7c0.5-1.5,2.6-2.3,4-1.7c0.9,0.4,0.2,1,0,1.4c-2.1,5.6-4.2,11.2-6.3,16.8c-1.4,3.6-2.6,7.3-4.1,10.8  c-2.1,4.9-5.1,6.6-10,6.1c-1.5-0.2-1.4-1-1.5-2.1c-0.1-1.5,1-1,1.7-1c3.5,0.1,4.9-0.9,6.5-4.1c1.2-2.5,1.1-4.6,0-7.1  c-2.7-6.3-5.2-12.8-7.7-19.2C442.9,31,442.6,30.5,442.8,29.7"
   id="path36"
   style="fill:#ffffff" />
<path
   class="st3"
   d="M495.5,33.1c2.9-3.6,6.5-4.3,10.5-3.6c3.6,0.6,5.8,2.8,5.9,6.4c0.3,5.7,0.2,11.5,0.2,17.2c0,1.8-1.5,0.7-2.4,1  c-1,0.3-1.3-0.3-1.3-1.3c0.1-4.5,0-9,0-13.5c0-4.8-1.4-6.7-5.2-6.8c-4.7-0.2-7.3,2-7.6,6.6c-0.2,3.7-0.1,7.5-0.1,11.2  c0,0.6-0.1,1.3,0,1.9c0.2,1.4-0.2,2-1.8,2c-1.5,0-2-0.4-1.9-1.9c0.1-6.9,0-13.8,0.1-20.7c0-0.7-0.5-1.8,1-1.8c1.1,0,2.3-0.2,2.3,1.4  C495.1,31.7,495.3,32.2,495.5,33.1"
   id="path38"
   style="fill:#ffffff" />
<path
   class="st2"
   d="M550.7,54.5c-2.2,0-4.1-0.2-6-0.9c-1.1-0.4-1.8-2.6-1.2-3.6c0.4-0.6,0.8-0.1,1.2,0c2.5,1,5.1,1.5,7.8,1.3  c1-0.1,1.9-0.3,2.8-0.7c2.1-1.2,2.4-3.8,0.5-5.3c-1.5-1.2-3.3-1.8-5-2.5c-1.6-0.6-3.3-1.2-4.7-2.2c-3.6-2.6-3.6-7.7,0.3-9.8  c4.3-2.4,8.7-1.7,13.1-0.2c1.2,0.4,0.2,1.2,0,1.7c-0.2,0.7-0.4,1.7-1.7,1.2c-2-0.8-4.1-1.2-6.2-1.1c-0.5,0-1,0-1.5,0.2  c-1.4,0.3-2.8,0.9-3,2.6c-0.2,1.6,0.8,2.5,2.1,3.2c2.8,1.3,5.7,2.4,8.4,3.9c3.5,1.9,4.2,6.3,1.7,9.5c-0.7,0.9-1.7,1.6-2.8,2  C554.5,54.4,552.5,54.6,550.7,54.5"
   id="path40"
   style="fill:#ffffff" />
<path
   class="st5"
   d="M472.7,37.1c0,5.2-0.1,10.3,0,15.5c0,1.8-0.9,1.5-2,1.6c-1.3,0.1-1.8-0.2-1.8-1.7c0.1-10.4,0.1-20.7,0-31.1  c0-1.6,0.7-1.7,1.9-1.7c1.3,0,1.9,0.2,1.9,1.8C472.7,26.6,472.7,31.9,472.7,37.1C472.7,37.1,472.7,37.1,472.7,37.1"
   id="path42"
   style="fill:#ffffff" />
<path
   class="st6"
   d="M315.2,167.4c-4,2.9-8.3,2.8-10.9-0.1c-2.3-2.6-2.3-6.8,0-9.4c2.7-2.9,7-3,10.9-0.1c0.4-0.3,0.2-0.8,0.2-1.3  c0-0.7,0.3-0.9,1-0.9c0.6,0,1,0.2,1,0.9c-0.1,4.7,0.3,9.4-0.3,14.1c-0.3,2.5-1.9,4.1-4.5,4.7c-2.8,0.6-5.5,0.3-8-1.1  c-0.5-0.3-1.3-0.5-0.8-1.4c0.5-0.9,1-0.7,1.7-0.2c1.7,1.1,3.6,1.4,5.6,1.2C314.3,173.4,315.7,171.4,315.2,167.4 M310,157.3  c-3.2,0-5.3,2.1-5.4,5.1c0,3.1,2.2,5.4,5.4,5.3c3.2,0,5.5-2.2,5.5-5.3C315.4,159.4,313.2,157.3,310,157.3z"
   id="path44"
   style="fill:#ffffff" />
<path
   class="st6"
   d="M256,124.6c0-0.7,0-1.2,0.1-1.7c0.1-0.6,0.5-0.6,1-0.6c0.5,0,0.9,0.2,0.9,0.7c-0.1,4.8,0.4,9.7-0.3,14.5  c-0.4,2.7-2.3,4.1-4.9,4.5c-2.6,0.4-5.1,0.2-7.5-1.1c-0.6-0.3-1.4-0.6-0.8-1.6c0.6-1,1.1-0.4,1.7-0.1c1.8,1.1,3.9,1.4,6,1.1  c3-0.5,4-2.2,3.8-6.5c-2,1.9-4.3,2.7-6.9,2.2c-1.8-0.3-3.3-1.1-4.4-2.6c-2.1-2.8-1.8-7,0.7-9.4C248.1,121.5,252.5,121.6,256,124.6   M256.1,129.1c0-3.1-2.3-5.2-5.5-5.2c-3.1,0.1-5.3,2.2-5.3,5.2c0,3.1,2.3,5.3,5.5,5.3C253.9,134.4,256.1,132.2,256.1,129.1z"
   id="path46"
   style="fill:#ffffff" />
<path
   class="st6"
   d="M406.7,134.5c-3.7,3-7.8,3.1-10.5,0.3c-2.6-2.7-2.7-7.4-0.3-10.2c2.6-3,6.9-3.1,10.9-0.1c0-2.3,0-4.5,0-6.7  c0-0.8-0.2-1.6,1.1-1.5c1.2,0,0.9,0.8,0.9,1.5c0,5.7,0,11.5,0,17.2c0,0.6,0.5,1.7-0.8,1.8c-1.5,0.1-0.9-1-1.1-1.7  C406.9,134.9,406.8,134.8,406.7,134.5 M401.5,135.1c3.2,0,5.4-2.3,5.3-5.6c0-3.2-2.2-5.5-5.2-5.5c-3.2,0-5.4,2.2-5.4,5.5  C396.2,132.7,398.4,135.1,401.5,135.1z"
   id="path48"
   style="fill:#ffffff" />
<path
   class="st6"
   d="M444.9,157.9c3.7-3,7.7-3,10.5-0.2c2.5,2.6,2.7,7.2,0.4,10.1c-2.5,3.1-6.5,3.3-11,0.3c0,2,0,3.8,0,5.7  c0,0.7,0.4,1.8-1,1.8c-1.5,0-1-1.1-1-1.8c0-5.4,0-10.8,0-16.2c0-0.6-0.5-1.6,0.8-1.7c1.5-0.1,0.9,1,1.1,1.7  C444.7,157.5,444.8,157.6,444.9,157.9 M444.8,163c0,3.3,2.3,5.6,5.4,5.5c3-0.1,5.2-2.4,5.2-5.6c0-3.3-2.2-5.6-5.3-5.6  C446.9,157.4,444.8,159.6,444.8,163z"
   id="path50"
   style="fill:#ffffff" />
<path
   class="st6"
   d="M482.5,167.8c1.5-3.9,2.8-7.3,4.1-10.8c0.3-0.7,0.4-1.4,1.4-1.4c1,0,1.1,0.7,1.4,1.4c1.3,3.4,2.6,6.8,4.1,10.8  c1.4-3.7,2.6-6.8,3.8-10c0.2-0.6,0.4-1.2,0.7-1.8c0.3-0.5,0.9-0.5,1.4-0.3c0.7,0.2,0.3,0.8,0.1,1.1c-1.6,4.1-3.1,8.2-4.7,12.3  c-0.3,0.7-0.6,1-1.4,1c-0.9,0-1.1-0.5-1.3-1.1c-1.3-3.4-2.6-6.8-4.1-10.6c-1.4,3.7-2.7,7-4,10.2c-0.3,0.7-0.3,1.5-1.4,1.5  c-1.2,0-1.3-0.9-1.6-1.6c-1.4-3.8-2.9-7.6-4.3-11.4c-0.2-0.4-1.1-1.2,0.1-1.5c0.8-0.2,1.3,0.1,1.6,1c1.2,3.3,2.4,6.7,3.7,10  C482.2,166.9,482.3,167.1,482.5,167.8"
   id="path52"
   style="fill:#ffffff" />
<path
   class="st6"
   d="M495.4,134.6c-3.9,3-7.9,3-10.6,0.1c-2.5-2.7-2.6-7.5-0.1-10.3c2.6-2.8,6.7-2.9,10.8,0.1c0-2.4,0-4.5,0-6.7  c0-0.6-0.3-1.5,0.9-1.5c1.2,0,1.1,0.7,1.1,1.5c0,5.6,0,11.2,0,16.8c0,0.7,0.7,2-0.8,2.1C494.9,136.9,495.9,135.4,495.4,134.6   M490.3,135c3.1,0,5.3-2.4,5.2-5.7c-0.1-3.2-2.3-5.4-5.3-5.4c-3.1,0-5.3,2.4-5.3,5.6C484.9,132.8,487.1,135.1,490.3,135z"
   id="path54"
   style="fill:#ffffff" />
<path
   class="st6"
   d="M197.2,127c0-2.7,0-5.4,0-8.1c0-1.1,0.3-1.5,1.4-1.4c2.6,0.1,5.3-0.1,7.9,0.2c3.7,0.4,5.8,2.9,5.8,6.3  c0,3.5-2,5.7-5.7,6.4c-0.9,0.2-1.8,0.2-2.7,0.3c-1.5,0.1-3.3-0.6-4.3,0.3c-1,0.9-0.2,2.8-0.3,4.3c0,0.8,0,1.5-1.2,1.5  c-1.2,0-1-0.8-1-1.4C197.2,132.5,197.2,129.8,197.2,127 M199.3,123.9c0,1.3,0,2.6,0,3.9c0,0.6,0.1,1.1,0.8,1  c2.2-0.1,4.5,0.3,6.7-0.3c2.7-0.7,3.9-2.9,3.3-5.6c-0.6-2.4-2.4-3.5-5.9-3.6C199.3,119.1,199.3,119.1,199.3,123.9z"
   id="path56"
   style="fill:#ffffff" />
<path
   class="st6"
   d="M212.3,167.8c0,2.4,0,4.4,0,6.5c0,0.7-0.1,1.2-1,1.2c-1,0-1-0.5-1-1.2c0-5.6,0-11.2,0-16.8  c0-0.6-0.5-1.7,0.9-1.7c1.5-0.1,0.9,1,1.1,1.7c0,0.1,0.1,0.2,0.1,0.5c1.9-1.7,4-2.7,6.7-2.2c1.8,0.4,3.3,1.1,4.4,2.6  c2.3,2.9,1.9,7.6-0.7,10.1C220,171,216,170.8,212.3,167.8 M217.5,157.4c-3.1,0-5.3,2.4-5.2,5.7c0,3.2,2.3,5.5,5.3,5.4  c3.2,0,5.4-2.3,5.4-5.6C223,159.7,220.7,157.3,217.5,157.4z"
   id="path58"
   style="fill:#ffffff" />
<path
   class="st6"
   d="M432.6,124.5c3.9-3.1,8.1-3.1,10.8-0.1c2.5,2.7,2.4,7.6-0.1,10.2c-2.7,2.8-6.8,2.8-10.7-0.3c0,2.2,0,4.1,0,6.1  c0,0.7,0.3,1.6-1,1.6c-1.3,0-0.9-1-0.9-1.6c0-5.5,0-10.9,0-16.4c0-0.6-0.5-1.7,0.8-1.7c1.5-0.1,0.9,1,1.1,1.7  C432.6,124.1,432.6,124.2,432.6,124.5 M437.9,135.1c3.2,0,5.4-2.2,5.4-5.5c0-3.2-2.2-5.5-5.2-5.6c-3.1-0.1-5.5,2.3-5.5,5.5  C432.6,132.7,434.7,135,437.9,135.1z"
   id="path60"
   style="fill:#ffffff" />
<path
   class="st6"
   d="M274.2,155.3c-1.9,2.1-3.4,3.8-4.9,5.4c-0.7,0.7-0.8,1.1-0.1,1.9c2,2.4,3.8,4.8,5.8,7.3  c-1.5,0.6-2.4,0.2-3.2-0.9c-1.3-1.7-2.7-3.3-4-5c-0.7-0.9-1.1-0.8-1.9-0.1c-1.5,1.3-2.8,2.6-2.3,4.9c0.1,0.6,0.3,1.4-0.9,1.5  c-1.3,0.1-1.1-0.8-1.1-1.5c0-5.8,0-11.6,0-17.4c0-0.8-0.2-1.6,1.1-1.5c1.2,0,0.9,0.9,0.9,1.5c0,3.3,0,6.6,0,9.9  c0,0.6-0.2,1.3,0.3,1.9C267.4,160.9,269.5,156.5,274.2,155.3"
   id="path62"
   style="fill:#ffffff" />
<path
   class="st6"
   d="M383.7,157.9c1.7-1.7,3.4-2.4,5.4-2.3c3.4,0,5.7,2,5.9,5.4c0.2,2.7,0,5.4,0.1,8.1c0,0.8-0.2,1.2-1.1,1.1  c-0.9,0-0.9-0.6-0.9-1.2c0-2.3,0-4.6,0-7c-0.1-3.1-1.4-4.6-4.2-4.7c-3-0.1-4.9,1.6-5.1,4.6c-0.1,2.2,0,4.5-0.1,6.8  c0,0.7,0.2,1.4-1,1.4c-1.1,0-1-0.6-1-1.4c0-5.9,0-11.7,0-17.6c0-0.7-0.2-1.6,1.1-1.5c1.2,0,0.9,0.8,0.9,1.5  C383.7,153.3,383.7,155.4,383.7,157.9"
   id="path64"
   style="fill:#ffffff" />
<path
   class="st6"
   d="M254.1,168.4c-1.7,1.7-3.9,2-6.1,1.7c-2.5-0.4-4-2.1-3.9-4.3c0.1-2.1,1.6-3.5,4.2-3.8c1.5-0.1,3-0.2,4.4-0.1  c1.4,0.1,1.6-0.5,1.4-1.7c-0.3-1.8-1.4-2.7-3.1-2.9c-1.7-0.2-3.4,0.1-4.8,1.1c-0.5,0.3-0.9,0.4-1.3-0.2c-0.5-0.7-0.2-1,0.4-1.4  c2.6-1.5,5.3-1.9,8.2-0.7c1.6,0.7,2.5,2.1,2.6,3.8c0.1,2.8,0.2,5.5,0.1,8.3c0,0.6,0.5,1.6-0.8,1.9  C254.1,170.4,254.5,169.2,254.1,168.4 M249.8,168.7c2.7,0,4.7-1.8,4.5-4.1c0-0.6-0.1-1.1-1-1.1c-1.7,0.1-3.5,0.1-5.2,0.2  c-1.2,0.1-2,0.9-2.1,2.1c-0.1,1.2,0.5,2.1,1.6,2.6C248.4,168.6,249.1,168.7,249.8,168.7z"
   id="path66"
   style="fill:#ffffff" />
<path
   class="st6"
   d="M509.5,130.1c-1.4,0-2.8,0-4.3,0c-1.8,0-2,0.4-1.2,2c1.4,2.8,5.2,3.8,8,2.2c0.3-0.2,0.6-0.3,0.8-0.5  c0.5-0.5,0.9-0.3,1.3,0.1c0.5,0.5,0.2,0.9-0.2,1.3c-2,2-6.4,2.2-9.2,0.5c-2.7-1.7-3.9-5.4-2.8-8.7c1.1-3.2,4.1-5.1,7.6-4.7  c3.3,0.4,5.6,2.7,6,6.1c0.2,1.2,0,2-1.5,1.8C512.5,130,511,130.1,509.5,130.1C509.5,130.1,509.5,130.1,509.5,130.1 M508.7,128.7  c1.2,0,2.4-0.1,3.7,0c1.1,0.1,1.4-0.3,1.1-1.3c-0.6-2-2.6-3.4-4.8-3.5c-2.2,0-4.2,1.4-4.8,3.4c-0.3,1.1,0.1,1.4,1.1,1.4  C506.1,128.6,507.4,128.7,508.7,128.7z"
   id="path68"
   style="fill:#ffffff" />
<path
   class="st6"
   d="M509.4,163.6c-1.6,0-3.2,0-4.8,0c-1.2,0-1.3,0.4-0.9,1.4c1.1,3.3,5.3,4.6,8.5,2.6c0.6-0.3,1.1-1.4,1.9-0.2  c0.7,1.1-0.4,1.4-0.9,1.7c-2.7,1.9-7,1.5-9.5-0.7c-2.4-2.2-3-6.3-1.3-9.2c1.6-2.9,5-4.1,8.3-3.2c2.8,0.8,4.8,3.7,4.8,6.6  c0,0.9-0.4,1.1-1.2,1C512.6,163.5,511,163.6,509.4,163.6 M508.3,162c1.4,0,2.7,0,4.1,0c1.1,0.1,1.1-0.4,0.9-1.3  c-0.6-2-2.2-3.3-4.4-3.4c-2.3-0.1-4.1,1-5,2.9c-0.6,1.4-0.5,2,1.2,1.8C506.1,161.9,507.2,162,508.3,162z"
   id="path70"
   style="fill:#ffffff" />
<path
   class="st6"
   d="M235.3,163.6c-1.6,0-3.2,0-4.8,0c-1,0-1.2,0.3-0.9,1.2c1,3.4,5.4,4.8,8.6,2.8c0.6-0.4,1.1-1.4,1.8-0.2  c0.7,1.1-0.4,1.3-0.9,1.7c-2.7,1.9-7,1.5-9.5-0.7c-2.4-2.2-3-6.3-1.3-9.3c1.5-2.8,4.9-4.1,8.2-3.2c2.8,0.8,4.8,3.5,4.9,6.5  c0,1-0.3,1.2-1.2,1.2C238.6,163.5,236.9,163.6,235.3,163.6 M234.3,162.1C234.3,162,234.3,162,234.3,162.1c1.4,0,2.7-0.1,4.1,0  c1.1,0.1,1.2-0.4,0.9-1.3c-0.6-2-2.6-3.5-5-3.5c-2.3,0-4.2,1.5-4.7,3.6c-0.2,0.9-0.1,1.2,0.8,1.1C231.7,162,233,162.1,234.3,162.1z"
   id="path72"
   style="fill:#ffffff" />
<path
   class="st6"
   d="M346.7,130.1c-1.5,0-3.1,0.1-4.6,0c-1.6-0.1-1.5,0.7-1.1,1.7c1.2,3.1,5.4,4.2,8.6,2.3c0.4-0.2,0.6-0.9,1.3-0.6  c0.3,0.2,0.7,0.5,0.7,0.9c0.1,0.6-0.5,0.8-0.9,1.1c-2.2,1.7-6.2,1.8-8.8,0.2c-2.4-1.5-3.7-4.5-3.1-7.5c0.7-3.9,3.6-6.2,7.5-5.9  c3.5,0.2,6.1,3,6.3,6.6c0.1,1-0.2,1.4-1.2,1.3C349.8,130.1,348.2,130.1,346.7,130.1 M345.6,128.7c1.2,0,2.4-0.1,3.7,0  c1.2,0.1,1.5-0.4,1.1-1.5c-0.6-1.9-2.6-3.3-4.7-3.3c-2.2,0-4.3,1.4-4.9,3.4c-0.3,1.1,0,1.5,1.1,1.4  C343.2,128.6,344.4,128.7,345.6,128.7z"
   id="path74"
   style="fill:#ffffff" />
<path
   class="st6"
   d="M281,130.1c-1.5,0-3.1,0.1-4.6,0c-1.3-0.1-1.3,0.5-1,1.5c1.1,3.2,5.4,4.5,8.6,2.5c0.6-0.3,1.1-1.4,1.8-0.2  c0.7,1.1-0.4,1.3-0.9,1.7c-2.8,1.9-7,1.5-9.5-0.8c-2.4-2.2-3-6.2-1.3-9.3c1.6-2.8,4.9-4.1,8.2-3.1c2.8,0.8,4.7,3.3,4.9,6.3  c0.1,1-0.2,1.4-1.2,1.4C284.2,130.1,282.6,130.1,281,130.1 M280.1,128.7c1.2,0,2.4-0.1,3.7,0c1.5,0.1,1.6-0.6,1.1-1.7  c-0.8-1.9-2.7-3.2-4.9-3.1c-2.1,0.1-3.9,1.3-4.6,3.2c-0.4,1-0.4,1.7,1,1.6C277.6,128.6,278.9,128.7,280.1,128.7z"
   id="path76"
   style="fill:#ffffff" />
<path
   class="st6"
   d="M455.8,130.1c-1.5,0-3,0.1-4.4,0c-1.5-0.1-1.6,0.6-1.1,1.7c1.2,3.1,5.6,4.2,8.7,2.1c0.5-0.4,0.9-0.9,1.6-0.1  c0.7,0.9-0.1,1.1-0.5,1.5c-2.5,2-7,1.9-9.5-0.2c-2.7-2.3-3.4-6.5-1.6-9.7c1.6-2.8,5.2-4,8.4-2.9c2.7,0.9,4.5,3.5,4.6,6.4  c0,1-0.4,1.2-1.3,1.2C459,130.1,457.4,130.1,455.8,130.1C455.8,130.1,455.8,130.1,455.8,130.1 M454.9,128.7c1.3,0,2.6,0,3.9,0  c1,0,1.2-0.3,0.9-1.3c-0.6-2-2.5-3.5-4.8-3.6c-2.2-0.1-4.3,1.4-4.9,3.4c-0.3,0.9-0.2,1.5,1,1.4C452.4,128.6,453.7,128.7,454.9,128.7  z"
   id="path78"
   style="fill:#ffffff" />
<path
   class="st6"
   d="M420.7,130.1c-1.5,0-3,0.1-4.4,0c-1.7-0.1-1.6,0.7-1.1,1.8c1.3,3,5.4,4.1,8.4,2.2c0.6-0.3,1.1-1.4,1.8-0.2  c0.7,1.1-0.4,1.3-1,1.7c-2.9,1.9-7.2,1.5-9.6-0.9c-2.4-2.4-2.8-6.5-1-9.4c1.7-2.7,5.2-3.8,8.3-2.7c2.9,1,4.2,3.3,4.5,6.2  c0.1,1-0.2,1.4-1.2,1.4C423.9,130.1,422.3,130.1,420.7,130.1 M419.7,128.7c1.3,0,2.7,0,4,0c0.9,0,1.1-0.3,0.9-1.2  c-0.5-2-2.4-3.5-4.7-3.6c-2.3-0.1-4.4,1.3-5,3.4c-0.3,0.9-0.2,1.5,1,1.4C417.1,128.6,418.4,128.7,419.7,128.7z"
   id="path80"
   style="fill:#ffffff" />
<path
   class="st7"
   d="M484.1,42c0,3.5-0.1,6.9,0,10.4c0.1,1.6-0.6,1.7-1.9,1.7c-1.2,0-1.8-0.1-1.8-1.6c0.1-7.1,0.1-14.1,0-21.2  c0-1.8,0.9-1.5,2-1.6c1.4-0.1,1.7,0.4,1.7,1.7C484,35,484.1,38.5,484.1,42"
   id="path82"
   style="fill:#ffffff" />
<path
   class="st6"
   d="M379.1,124.3c1.1-1,2.2-1.7,3.5-2c4.3-0.9,7.3,1.3,7.6,5.7c0.1,2.5,0,5,0,7.5c0,0.7,0,1.3-1,1.2  c-0.9,0-1-0.5-1-1.2c0-2.3,0-4.5,0-6.8c-0.1-3.2-1.4-4.7-4.1-4.8c-3.1-0.1-5,1.5-5.2,4.7c-0.1,2.2,0,4.4-0.1,6.6  c0,0.7,0.2,1.5-0.9,1.5c-1.3,0-1.1-0.8-1.1-1.6c0-3.7,0-7.3,0-11c0-0.7-0.6-1.8,0.8-1.9C379.4,122.1,378.6,123.5,379.1,124.3"
   id="path84"
   style="fill:#ffffff" />
<path
   class="st6"
   d="M362.8,168.1c-1.7,1.8-3.7,2.4-6.1,2.1c-2.6-0.4-4.6-2.2-4.7-4.8c-0.2-2.9-0.1-5.8-0.1-8.7c0-0.8,0.3-1,1-1  c0.8,0,1,0.3,1,1.1c0,2.4,0,4.8,0,7.2c0.1,3,1.4,4.5,4.1,4.6c2.8,0.1,4.7-1.5,4.9-4.3c0.2-2.4,0.1-4.8,0.1-7.1c0-0.8,0-1.4,1.1-1.4  c1.2,0,0.9,0.8,0.9,1.5c0,3.8,0,7.6,0,11.4c0,0.7,0.4,1.6-1,1.6c-1.4,0-0.8-1-1-1.6C363.1,168.4,363,168.3,362.8,168.1"
   id="path86"
   style="fill:#ffffff" />
<path
   class="st6"
   d="M226.1,129.6c0-4.3,2.9-7.3,7.2-7.4c4.2-0.1,7.4,3,7.4,7.2c0.1,4.2-3.1,7.4-7.2,7.4  C229.3,136.9,226.1,133.8,226.1,129.6 M238.7,129.6c0-3.3-2.1-5.6-5.3-5.7c-3.1,0-5.3,2.3-5.3,5.6c0,3.2,2.1,5.5,5.2,5.5  C236.5,135.1,238.7,132.9,238.7,129.6z"
   id="path88"
   style="fill:#ffffff" />
<path
   class="st6"
   d="M424.4,170.2c-4.2,0-7.3-3.1-7.3-7.3c0-4.2,3.1-7.3,7.3-7.4c4.1,0,7.3,3.2,7.3,7.3  C431.7,167.1,428.6,170.2,424.4,170.2 M424.4,157.4c-3.2,0-5.4,2.2-5.4,5.5c0,3.3,2.2,5.6,5.4,5.6c3.1,0,5.2-2.2,5.3-5.5  C429.7,159.6,427.6,157.4,424.4,157.4z"
   id="path90"
   style="fill:#ffffff" />
<path
   class="st6"
   d="M467.4,170.2c-4.2,0-7.4-3-7.4-7.2c0-4.2,3-7.3,7.3-7.4c4.2-0.1,7.4,3,7.4,7.3  C474.8,167,471.6,170.2,467.4,170.2 M467.4,157.4c-3.2,0-5.4,2.2-5.4,5.5c0,3.3,2.2,5.7,5.3,5.6c3.2,0,5.3-2.3,5.3-5.6  C472.7,159.6,470.5,157.4,467.4,157.4z"
   id="path92"
   style="fill:#ffffff" />
<path
   class="st6"
   d="M521.8,124.2c1.6-1.6,3.6-2.2,5.8-2c2.8,0.2,4.6,1.8,5,4.5c0.5,3,0.1,6.1,0.2,9.1c0,0.7-0.3,0.9-0.9,0.9  c-0.7,0-1.1-0.2-1.1-1c0-2.3,0-4.6,0-7c-0.1-3.3-1.3-4.7-4-4.8c-3.1-0.1-5,1.6-5.2,4.7c-0.1,2.2,0,4.4-0.1,6.6c0,0.7,0.1,1.4-1,1.4  c-1.1,0-1-0.7-1-1.4c0-3.7,0-7.4,0-11c0-0.7-0.7-2,0.9-2C521.9,122.2,521.1,123.5,521.8,124.2"
   id="path94"
   style="fill:#ffffff" />
<path
   class="st6"
   d="M200.7,170.2c-1.7,0-3.3-0.3-4.8-1.1c-0.5-0.2-1.2-0.4-0.7-1.3c0.4-0.7,0.8-0.8,1.5-0.4c1.9,1,3.9,1.3,6,0.9  c1-0.2,1.9-0.6,2-1.8c0.1-1.1-0.7-1.7-1.6-2.2c-1.1-0.5-2.2-0.6-3.4-0.7c-2.5-0.3-4.2-1.9-4.2-4c0-1.9,1.4-3.4,3.9-3.9  c1.9-0.4,3.7-0.2,5.5,0.5c0.5,0.2,1.6,0.2,1.1,1.3c-0.4,1-1,0.7-1.7,0.4c-1.4-0.7-2.9-0.7-4.4-0.5c-1.2,0.2-2.2,0.6-2.3,1.9  c-0.1,1.3,0.8,1.9,1.9,2.4c0.8,0.4,1.7,0.4,2.6,0.5c3.1,0.4,4.8,1.9,4.7,4.1c-0.1,2.1-2.1,3.6-5,3.8  C201.3,170.2,201,170.2,200.7,170.2"
   id="path96"
   style="fill:#ffffff" />
<path
   class="st6"
   d="M468,124.4c1.1-1.1,2.3-1.8,3.8-2.1c4.3-0.8,7.2,1.5,7.4,5.9c0.1,2.4,0,4.9,0,7.3c0,0.7,0,1.2-1,1.2  c-0.9,0-1-0.5-1-1.2c0-2.3,0-4.6,0-7c-0.1-3-1.4-4.4-4.1-4.5c-2.9-0.1-4.9,1.5-5.1,4.3c-0.2,2.3-0.1,4.6-0.1,7c0,0.7,0.1,1.4-1,1.4  c-1.1,0-1-0.8-1-1.4c0-3.7,0-7.3,0-11c0-0.7-0.7-2,0.9-2C468.4,122.2,467.4,123.6,468,124.4"
   id="path98"
   style="fill:#ffffff" />
<path
   class="st6"
   d="M287.5,157.8c1.2-1.2,2.5-2,4.2-2.2c4.1-0.5,6.8,1.8,6.9,5.8c0.1,2.4,0,4.8,0,7.1c0,0.7,0.2,1.6-1.1,1.6  c-1.2,0-0.9-0.8-0.9-1.5c0-2.3,0-4.5,0-6.8c-0.1-2.9-1.4-4.4-3.9-4.5c-3-0.1-5.1,1.4-5.3,4.4c-0.2,2.3-0.1,4.6-0.1,6.9  c0,0.7,0.2,1.4-1,1.5c-1.2,0-1-0.7-1-1.4c0-3.7,0-7.5,0-11.2c0-0.6-0.7-1.8,0.8-1.9C287.9,155.6,287,156.9,287.5,157.8"
   id="path100"
   style="fill:#ffffff" />
<path
   class="st6"
   d="M308.4,136.9c-1.7,0-3.3-0.4-4.9-1.1c-0.6-0.3-1.1-0.6-0.6-1.5c0.4-0.7,0.8-0.5,1.4-0.2c1.8,1,3.8,1.2,5.8,0.9  c1-0.2,1.9-0.6,2.1-1.7c0.2-1.1-0.6-1.8-1.5-2.2c-0.8-0.4-1.7-0.6-2.6-0.6c-1-0.1-1.9-0.2-2.8-0.6c-1.5-0.7-2.2-2-2.3-3.6  c0-1.6,0.9-2.7,2.3-3.3c2.5-1.1,5-0.8,7.5,0.2c0.6,0.2,1,0.5,0.6,1.3c-0.4,0.7-0.8,0.6-1.4,0.3c-1.6-0.7-3.2-0.9-4.9-0.6  c-1,0.2-1.9,0.6-2,1.8c-0.2,1.2,0.6,1.9,1.6,2.4c0.8,0.4,1.6,0.5,2.4,0.6c1,0,1.9,0.2,2.8,0.6c1.4,0.6,2.2,1.8,2.3,3.3  c0.1,1.6-0.7,2.7-2.1,3.4C311,136.7,309.7,136.9,308.4,136.9"
   id="path102"
   style="fill:#ffffff" />
<path
   class="st6"
   d="M295.3,122.2c1.4,0,2.8,0.2,4.1,0.8c0.5,0.2,1.1,0.5,0.6,1.3c-0.4,0.6-0.7,0.7-1.4,0.4c-1.6-0.8-3.3-1-5.1-0.5  c-0.9,0.2-1.7,0.7-1.9,1.7c-0.2,1.1,0.5,1.8,1.4,2.3c0.9,0.5,1.9,0.7,3,0.7c1.1,0.1,2.2,0.2,3.1,0.9c2.3,1.6,2.3,4.6,0,6.1  c-2.2,1.4-7.1,1.3-9.3-0.2c-0.6-0.4-0.7-0.8-0.3-1.4c0.4-0.7,0.7-0.5,1.2-0.2c1.7,1,3.6,1.2,5.6,1c1.2-0.1,2.3-0.5,2.4-1.8  c0.2-1.4-0.9-2-2.1-2.4c-0.7-0.2-1.5-0.3-2.3-0.4c-3.2-0.3-5-2-4.9-4.4c0.1-2.1,2.1-3.6,5.1-3.8  C294.9,122.2,295.1,122.2,295.3,122.2"
   id="path104"
   style="fill:#ffffff" />
<path
   class="st6"
   d="M538.5,129c0-1-0.1-2.1,0-3.1c0.1-1.3-0.1-2.2-1.7-1.9c-0.6,0.1-0.9-0.3-0.9-0.9c0-0.8,0.5-0.9,1-0.8  c1.4,0.2,1.6-0.5,1.5-1.7c-0.1-0.8-0.1-1.6,1.1-1.5c1.1,0.1,1,0.9,0.9,1.5c-0.2,1.4,0.4,1.7,1.7,1.7c0.9,0,2.6-0.9,2.6,0.8  c0,1.6-1.7,0.8-2.6,0.8c-1.2,0-1.7,0.3-1.7,1.6c0.1,2.2,0,4.4,0.1,6.6c0,2.5,1.1,3.4,3.5,2.8c0.7-0.2,1.3-0.5,1.5,0.5  c0.2,0.8-0.5,1-1,1.2c-3.2,1.3-5.9-0.5-6.1-3.9C538.4,131.4,538.5,130.2,538.5,129"
   id="path106"
   style="fill:#ffffff" />
<path
   class="st6"
   d="M407.6,162.4c0-0.9,0-1.8,0-2.7c0-1.3,0.3-2.7-1.8-2.3c-0.6,0.1-0.8-0.3-0.8-0.8c0-0.7,0.4-1,1-0.9  c1.5,0.2,1.8-0.5,1.6-1.8c-0.1-0.7-0.1-1.4,1-1.4c1.1,0,1.1,0.8,1,1.4c-0.2,1.5,0.5,1.9,1.8,1.8c0.6-0.1,1.3,0,1.9,0  c0.5,0,0.6,0.3,0.6,0.8c0,0.4,0,0.8-0.5,0.9c-0.2,0-0.5,0-0.8,0c-3.1,0.2-3.1,0.2-3.1,3.3c0,1.7,0,3.3,0,5c0,2.3,1.2,3.1,3.4,2.6  c0.6-0.2,1.4-0.7,1.7,0.4c0.2,1-0.7,1.1-1.3,1.3c-3.3,1-5.6-0.8-5.7-4.2C407.6,164.7,407.6,163.5,407.6,162.4"
   id="path108"
   style="fill:#ffffff" />
<path
   class="st6"
   d="M370.8,162.4c0-1.1-0.1-2.2,0-3.3c0.1-1.3-0.2-2-1.6-1.7c-0.6,0.1-1-0.1-1-0.8c0-0.7,0.3-1,0.9-0.9  c1.7,0.2,1.8-0.8,1.6-2c-0.1-0.7,0-1.2,1-1.2c0.9,0,1.1,0.5,1,1.2c-0.4,1.9,0.7,2.1,2.2,2c0.5-0.1,1,0,1.5,0c0.6,0,0.6,0.5,0.6,1  c0,0.5-0.2,0.7-0.7,0.7c-0.2,0-0.4,0-0.6,0c-3.1,0.1-3.1,0.1-3.1,3.2c0,1.7,0,3.3,0,5c0,2.5,1.2,3.4,3.6,2.7  c0.7-0.2,1.2-0.4,1.5,0.5c0.2,0.8-0.4,0.9-1,1.1c-3.3,1.3-6-0.5-6.1-4C370.8,164.7,370.8,163.6,370.8,162.4  C370.8,162.4,370.8,162.4,370.8,162.4"
   id="path110"
   style="fill:#ffffff" />
<path
   class="st6"
   d="M322.6,122.5c1.6-0.5,2.2,0.1,2.7,1.3c1.5,3.5,3,6.9,4.7,10.7c1.7-3.9,3.3-7.4,4.8-10.9  c0.5-1.2,1.1-1.6,2.5-1.1c-2,4.5-4,8.9-5.9,13.4c-0.3,0.7-0.8,0.8-1.5,0.9c-0.7,0-1-0.2-1.3-0.8C326.6,131.4,324.6,127,322.6,122.5"
   id="path112"
   style="fill:#ffffff" />
<path
   class="st6"
   d="M332.3,162.4c0,1.1,0,2.2,0,3.3c0,2.3,1.3,3.3,3.5,2.7c0.6-0.1,1.2-0.7,1.5,0.3c0.3,0.9-0.5,1.1-1,1.3  c-3.2,1.2-5.9-0.6-6-4c0-2.4-0.1-4.8,0-7.1c0-1.1-0.2-1.5-1.4-1.4c-0.6,0.1-1.3,0.1-1.3-0.9c0-0.9,0.7-0.9,1.2-0.8  c1.6,0.2,1.4-0.8,1.4-1.8c0-0.6-0.3-1.5,0.9-1.5c1.1,0,1.1,0.7,1,1.4c-0.3,1.6,0.6,2,1.9,1.8c0.6-0.1,1.2,0,1.7,0  c0.6,0,0.7,0.4,0.7,0.9c0,0.4-0.1,0.7-0.6,0.8c-1.2,0.1-3.1-0.6-3.4,0.3c-0.6,1.4-0.2,3.1-0.2,4.7  C332.4,162.4,332.3,162.4,332.3,162.4"
   id="path114"
   style="fill:#ffffff" />
<path
   class="st6"
   d="M265.5,124.5c1.2-1.4,2.5-2.2,4.2-2.3c0.5,0,1.1-0.1,1.1,0.7c0,0.6,0,1-0.8,1.2c-3.6,0.9-4.4,1.9-4.5,5.6  c0,1.9,0,3.9,0,5.8c0,0.7,0,1.2-1,1.3c-1.1,0-1.1-0.7-1.1-1.4c0-3.9,0-7.7,0-11.6c0-0.7-0.3-1.5,0.9-1.5c1.3-0.1,1,0.9,1,1.6  C265.4,124,265.4,124.1,265.5,124.5"
   id="path116"
   style="fill:#ffffff" />
<path
   class="st6"
   d="M521.4,157.9c1.2-1.4,2.5-2.1,4.1-2.3c0.6-0.1,1.1-0.1,1.1,0.7c0,0.6,0,1-0.8,1.2c-3.6,0.9-4.5,2-4.5,5.8  c0,1.9,0,3.7,0,5.6c0,0.6,0.1,1.3-0.9,1.3c-1,0-1.1-0.6-1.1-1.4c0-3.9,0-7.7,0-11.6c0-0.7-0.3-1.7,1-1.6c1.3,0,0.9,1,0.9,1.7  C521.3,157.4,521.3,157.5,521.4,157.9"
   id="path118"
   style="fill:#ffffff" />
<path
   class="st6"
   d="M218.6,124.6c1-1.4,2.3-2.1,3.8-2.3c0.6-0.1,1.3-0.4,1.4,0.7c0.1,0.8-0.3,1-1.1,1.2c-2.9,0.5-4.1,1.9-4.2,4.8  c-0.1,2.2,0,4.4,0,6.6c0,0.7,0,1.2-1,1.2c-0.9,0-1-0.5-1-1.2c0-3.9,0-7.8,0-11.8c0-0.6-0.4-1.5,0.8-1.5c1.3-0.1,1,0.8,1.1,1.5  C218.4,124,218.5,124.1,218.6,124.6"
   id="path120"
   style="fill:#ffffff" />
<path
   class="st6"
   d="M343.2,157.9c1.2-1.3,2.4-2.1,3.9-2.3c0.6-0.1,1.2-0.3,1.3,0.6c0.1,0.7,0,1.1-0.9,1.3c-3,0.5-4.2,1.9-4.3,4.9  c-0.1,2.1,0,4.3,0,6.4c0,0.8,0,1.4-1.1,1.3c-1,0-0.9-0.7-0.9-1.3c0-3.9,0-7.7,0-11.6c0-0.7-0.4-1.6,1-1.6c1.3,0,0.8,1,0.9,1.7  C343.1,157.4,343.1,157.6,343.2,157.9"
   id="path122"
   style="fill:#ffffff" />
<path
   class="st6"
   d="M371.7,129.5c0,2,0,4,0,6c0,0.7,0.1,1.3-0.9,1.3c-1.1,0-1.1-0.6-1.1-1.4c0-3.9,0-7.8,0-11.8  c0-0.7-0.1-1.4,1-1.4c1.1,0,1,0.8,1,1.5C371.7,125.6,371.7,127.6,371.7,129.5"
   id="path124"
   style="fill:#ffffff" />
<path
   class="st6"
   d="M319.8,129.6c0,1.9,0,3.9,0,5.8c0,0.8,0,1.4-1.1,1.4c-1,0-1-0.6-1-1.3c0-4,0-8,0-12c0-0.7,0-1.3,1-1.3  c1.1,0,1.1,0.6,1.1,1.4C319.8,125.6,319.8,127.6,319.8,129.6"
   id="path126"
   style="fill:#ffffff" />
<path
   class="st6"
   d="M278.1,162.9c0-2,0-4,0-6c0-0.7,0-1.2,1-1.2c0.9,0,1,0.5,1,1.2c0,4.1,0,8.1,0,12.2c0,0.8-0.2,1.2-1.1,1.2  c-0.8,0-0.9-0.5-0.9-1.1C278.1,167,278.1,164.9,278.1,162.9C278.1,162.9,278.1,162.9,278.1,162.9"
   id="path128"
   style="fill:#ffffff" />
<path
   class="st2"
   d="M482.2,25.6c-1.5-0.1-2.1-1-2.1-2.4c0-1.4,0.6-2.4,2.1-2.4c1.5,0,2.2,1,2.2,2.4  C484.4,24.6,483.7,25.5,482.2,25.6"
   id="path130"
   style="fill:#ffffff" />
<path
   class="st6"
   d="M550.9,135.5c-0.5,1.6-1,3.2-1.5,4.7c-0.1,0.4-0.5,0.6-0.9,0.5c-0.7-0.1-0.4-0.6-0.3-1.1c0.2-1.3,1-2.6-0.2-3.9  c-0.4-0.4,0-1.1,0.4-1.5c0.5-0.4,1-0.4,1.6-0.2C550.7,134.3,550.9,134.9,550.9,135.5"
   id="path132"
   style="fill:#ffffff" />
<path
   class="st6"
   d="M358.4,135.8c-0.4,1.3-0.9,2.9-1.4,4.5c-0.1,0.4-0.5,0.5-0.9,0.4c-0.5-0.2-0.4-0.6-0.3-0.9  c0.3-1.4,0.8-2.7-0.2-4.2c-0.5-0.8,0.3-1.7,1.3-1.7S358.4,134.5,358.4,135.8"
   id="path134"
   style="fill:#ffffff" />
<path
   class="st6"
   d="M318.9,119.1c-0.9-0.1-1.4-0.6-1.4-1.4c0-0.9,0.5-1.4,1.4-1.4c0.8,0,1.3,0.5,1.3,1.3  C320.2,118.6,319.6,119,318.9,119.1"
   id="path136"
   style="fill:#ffffff" />
<path
   class="st6"
   d="M372.1,117.7c-0.1,0.9-0.6,1.4-1.5,1.4c-0.8,0-1.3-0.6-1.3-1.4c0-0.9,0.6-1.4,1.5-1.4  C371.6,116.4,372,116.9,372.1,117.7"
   id="path138"
   style="fill:#ffffff" />
<path
   class="st6"
   d="M279.2,152.5c-0.9,0-1.4-0.4-1.5-1.2c-0.1-1,0.5-1.5,1.4-1.5c0.8,0,1.4,0.4,1.4,1.3  C280.5,151.9,280,152.4,279.2,152.5"
   id="path140"
   style="fill:#ffffff" />
<path
   class="st2"
   d="M431,53.9c0.3-0.7,0.7-0.7,1.2-0.2C431.8,54,431.4,54,431,53.9"
   id="path142"
   style="fill:#ffffff" />
<path
   class="st2"
   d="M434.1,53.2c0.2-0.8,0.7-0.6,1.3-0.6C435,53,434.6,53.2,434.1,53.2"
   id="path144"
   style="fill:#ffffff" />
<path
   class="st2"
   d="M430.6,22c-0.4,0.5-0.6,0.4-0.8-0.1C430.1,21.7,430.4,21.8,430.6,22"
   id="path146"
   style="fill:#ffffff" />
<path
   class="st2"
   d="M427.9,21.7c-0.1,0.1-0.1,0.3-0.2,0.4c-0.1-0.1-0.1-0.3-0.2-0.4C427.6,21.7,427.8,21.7,427.9,21.7"
   id="path148"
   style="fill:#ffffff" />
<path
   class="st8"
   d="M90.7,176.8c-45.6,1-85.5-37.4-84.8-85.4C6.6,45.6,43.9,7.8,91.2,8c45.7,0.2,84.3,37.9,84,85.3  C175,138.7,136.8,177.7,90.7,176.8 M158.1,92c0-37.8-30.2-67.2-66.9-67.5c-39-0.3-68.5,31.3-68.4,67.9c0.1,36.8,30.3,67.6,67.8,67.4  C127.7,159.6,158.3,129.6,158.1,92z"
   id="path150" />
<path
   class="st7"
   d="M158.1,92c0.2,37.7-30.4,67.6-67.5,67.8c-37.5,0.2-67.7-30.6-67.8-67.4c-0.1-36.6,29.4-68.2,68.4-67.9  C127.9,24.8,158.1,54.1,158.1,92 M113.2,115.6c0,0.4-0.1,0.7-0.1,1.1c-4.3-2.7-8.6-5.4-12.8-8.2c-0.8-0.6-1.5-0.7-2.4-0.2  c-1.6,0.9-3.3,1.4-5.1,1.6c-1,0.1-1.4,0.6-1.6,1.5c-0.3,1.5-0.4,3.2-1.4,5c-0.4-2-0.7-3.6-0.9-5.1c-0.1-0.9-0.5-1.3-1.5-1.4  c-1.8-0.2-3.6-0.8-5.1-1.7c-1-0.6-1.7-0.5-2.6,0.1c-4.2,2.5-8.4,5-12.6,7.5c-0.5,0.3-0.9,1-1.7,0.4l0,0c2.5-3.8,4.9-7.7,7.6-11.4  c1.6-2.2,2.2-4.2,0.7-6.8c-0.6-1-1-1.5-2.1-1.7c-8.2-1.3-16.3-2.3-24.6-2c-2.8,0.1-2.8,0-2.1,2.7c-3.2-1.2-6.2-2.3-9.2-3.5  c-0.8-0.3-1.7-0.6-2.6-0.6c-1-0.1-1.4,0.3-1.3,1.3c0.1,3.2,0.5,6.4,1,9.6c0.2,1.6,0.8,2.1,2.4,1.5c0.5-0.2,1.3-0.7,1.7,0.2  c0.3,0.8,0.7,1.9-0.8,2c-2.3,0.1-2.3,1.1-1.5,2.9c1.1,2.6,2.1,5.3,3.2,7.9c0.7,1.5,1.3,1.8,2.7,0.8c0.5-0.3,1-1.1,1.7-0.1  c0.6,1,0.7,1.6-0.5,2c-1.8,0.6-1.7,1.6-0.7,2.9c1.2,1.5,2.2,3,3.2,4.6c0.9,1.4,1.9,1.8,3.5,1.1c2-0.8,4.1-1.3,6.5-2  c-0.9,2.6-1.6,4.8-2.5,7c-0.4,1-0.3,1.6,0.6,2.3c1.8,1.3,3.6,2.7,5.4,4.1c1.3,1.1,2.1,0.9,2.6-0.6c0.4-1.1,1-1.3,2-0.6  c1.2,0.8,0.3,1.4-0.1,1.9c-0.9,1.2-0.7,1.9,0.7,2.5c2.8,1.4,5.7,2.6,8.7,3.7c1.4,0.5,1.8,0.1,2.1-1.1c0.2-0.7-0.1-1.9,1.5-1.5  c1.7,0.5,0.8,1.5,0.6,2.2c-0.4,1.2-0.1,1.6,1.2,1.9c3.2,0.7,6.3,1.1,9.6,1.4c1.4,0.1,1.9-0.3,1.7-1.6c-0.1-0.8-0.4-1.8,1.2-1.8  c1.6,0,1.3,1,1.1,1.8c-0.2,1.6,0.5,1.8,1.8,1.7c3-0.2,6-0.6,9-1c1.5-0.2,2.2-0.7,1.5-2.3c-0.6-1.4,0.1-1.9,1.4-1.9  c1.1,0,0.9,1.2,1,1.8c0.2,1.2,0.7,1.4,1.8,1c2.9-1,5.8-2.1,8.6-3.4c1.5-0.7,2.2-1.4,1-2.8c-1-1.2-0.1-1.7,0.8-2.1  c1.1-0.4,1.1,0.7,1.3,1.2c0.6,1.4,1.3,1.4,2.4,0.6c1.9-1.4,3.9-2.7,5.8-4.2c0.7-0.6,0.8-1.1,0.5-2c-0.8-2.3-1.5-4.7-2.3-7.3  c2.7,0.9,5,1.7,7.3,2.6c0.9,0.3,1.4,0.2,2-0.5c1.3-1.8,2.7-3.6,4.1-5.4c1-1.3,1.2-2.2-0.6-2.8c-1.1-0.4-1.3-0.9-0.6-2  c0.8-1.2,1.4-0.3,1.9,0.1c1.2,0.8,1.8,0.8,2.5-0.7c1.3-2.7,2.5-5.5,3.6-8.3c0.6-1.6,0.4-2.4-1.3-2.5c-1.5-0.1-1.4-1-0.9-2  c0.5-1,1.3-0.3,1.8-0.1c1.4,0.6,1.9,0,2.1-1.3c0.5-3,1-6.1,1.3-9.2c0.1-1.6-0.4-2-1.9-1.9c-0.6,0.1-1.5,0.4-1.6-0.8  c-0.1-1.1,0.2-1.8,1.5-1.5c1.9,0.4,2.1-0.5,2-2.1c-0.2-2.8-0.5-5.6-0.9-8.4c-0.2-1.7-0.7-2.6-2.6-1.7c-1.2,0.6-1.6-0.2-1.7-1.3  c-0.1-1,0.7-1,1.3-1c1.8-0.1,2-1,1.4-2.5c-1-2.7-2-5.3-3.1-7.9c-0.7-1.7-1.5-2.4-3.1-1c-0.7,0.6-1.1,0.5-1.6-0.4  c-0.6-1-0.3-1.4,0.6-1.7c1.9-0.6,1.9-1.6,0.7-3c-1.3-1.6-2.6-3.4-3.8-5.2c-0.6-0.9-1.3-1-2.3-0.7c-2.3,0.8-4.6,1.5-7.1,2.3  c0.9-2.6,1.6-4.8,2.5-7c0.5-1.1,0.2-1.8-0.7-2.4c-1.8-1.3-3.6-2.6-5.2-4c-1.3-1.1-2-1-2.7,0.6c-0.2,0.5-0.2,1.5-1.4,1  c-1.1-0.5-1.5-1.1-0.6-2.1c1.3-1.4,0.6-2.1-0.8-2.7c-2.7-1.3-5.5-2.5-8.3-3.6c-1.4-0.5-1.9-0.2-2.2,1.2c-0.1,0.6,0.1,1.7-1.3,1.5  c-1.4-0.2-1.5-0.9-1-2c0.6-1.3,0.3-2-1.3-2.3c-2.9-0.5-5.8-1-8.8-1.3c-1.7-0.2-2.6,0.1-2.2,2c0.2,1.1-0.3,1.5-1.4,1.4  c-1.2-0.1-1-0.8-0.9-1.5c0.3-1.8-0.5-2.1-2.1-2c-3,0.2-5.9,0.6-8.8,1c-1.6,0.2-2.2,0.8-1.4,2.3c0.6,1.2,0.2,1.8-1.1,1.9  c-1.3,0.1-1-1-1.1-1.6c-0.3-1.3-0.7-1.7-2-1.2c-2.9,1-5.7,2.1-8.5,3.3c-1.7,0.7-2.3,1.5-0.9,3c0.8,0.9,0.3,1.3-0.6,1.8  c-1.1,0.6-1.3-0.2-1.5-0.8c-0.7-1.8-1.6-1.7-3-0.7c-1.5,1.2-3.1,2.3-4.7,3.4c-1.3,0.8-1.6,1.7-1,3.2c0.8,2.1,1.4,4.2,2.1,6.6  c-2.6-0.9-4.9-1.6-7.2-2.5c-1-0.4-1.5-0.2-2.1,0.6c-1.3,1.8-2.6,3.5-4,5.2c-1.1,1.3-1.2,2.3,0.6,2.9c1.5,0.5,0.9,1.4,0.3,2.2  c-0.7,0.9-1.3,0-1.8-0.4c-1.2-0.9-1.8-0.7-2.4,0.7c-1.3,2.7-2.5,5.4-3.6,8.1c-0.7,1.7-0.5,2.6,1.5,2.8c0.5,0,1.2,0.1,1.1,0.8  c-0.1,0.5-0.2,1.1-0.5,1.4c-0.6,0.5-1.2-0.1-1.8-0.2c-0.8-0.1-1.6-0.7-1.9,0.7c-0.8,3.5-1.3,7-1.5,10.5c0,0.5-0.1,1.2,0.7,1.1  c1.6-0.1,3.2,0.5,4.9-0.2c2.4-1.1,5-1.8,7.7-2.7c-1,2.7-1,2.6,1.5,2.8c7.7,0.5,15.1-1.2,22.7-1.8c2.6-0.2,4.6-0.6,5.3-3.7  c0.3-1.3,0.5-2.2-0.3-3.3c-2.5-3.9-4.9-7.9-7.2-11.9c-0.3-0.5-0.8-1-0.7-1.8c4.2,2.7,8.3,5.2,12.3,7.9c1.7,1.2,3.2,1.8,5.2,0.5  c1-0.6,2.4-0.8,3.7-1c1-0.2,1.5-0.5,1.8-1.6c0.3-1.5,0.4-3.1,1.2-4.6c0.7,0.8,0.6,1.6,0.7,2.3c0.2,2.5,1.4,3.5,3.9,4.6  c3.9,1.7,6.7,0.8,9.7-1.4c1.3-1,2.9-1.7,4.3-2.6c1.8-1.1,3.7-2.2,5.5-3.3c-2.1,4-4.4,7.8-6.9,11.4c-1.6,2.3-2.7,4.3-0.9,7  c0.6,0.9,0.9,1.5,2,1.6c6.2,0.9,12.4,1.9,18.6,2.6c3.5,0.4,7,0.4,10.4-1.2c1-0.5,2.1-1.2,3.4-0.9l-0.1,0c-1.4,3-1.7,6,0.4,9.3  c-1.7-0.7-2.8-1-3.9-1.5c-2.7-1.3-5.6-1.6-8.6-1.7c-6-0.2-11.8,0.5-17.7,1.1c-2.7,0.3-4.7,0.8-5.5,3.8c-0.3,1.2-0.4,2,0.2,3.1  C108.5,107.5,110.8,111.5,113.2,115.6z M75.9,97c1.3,6.1,7.7,10.8,14.3,10.8c6.5,0,13.1-4.8,14.1-10.3c-1.5,0.2-2.9,0.3-4.4,0.5  c-2.2,0.2-4.2,0.7-6.1,1.9c-2.3,1.5-5.1,1.5-7.3-0.1C83.2,97.4,79.4,97.9,75.9,97z M104.6,88.1c-1.9-6.7-8.7-11.3-15.5-10.7  c-6.3,0.6-12.5,5.5-12.9,10.3c1.4-0.2,2.8-0.3,4.2-0.5c2.2-0.2,4.2-0.6,6.2-1.8c2.8-1.7,5.8-1.2,8.5,0.7c0.5,0.3,0.8,0.8,1.4,0.9  C99.2,87.3,101.9,87.7,104.6,88.1z M89.8,93.3c0.6,0.7,0,1.6,1,1.7c0.9,0.1,1.2-0.4,1.5-1.1c0.4-1.1,0.9-2.1,1.4-3.2  c0.1-0.3,0.4-0.8-0.2-0.9c-0.4-0.1-0.8-0.1-1,0.3c-0.3,0.6-0.6,1.2-0.9,1.9c-0.6-0.7,0.3-2-0.8-2.2c-1.5-0.3-1,1.7-2.1,2.2  c0-0.4-0.1-0.8-0.1-1.1c0-0.6,0-1.2-0.9-1.1c-0.8,0.1-0.5,0.7-0.6,1.2c0,1,0,2.1,0,3.1c0,0.5,0.1,0.9,0.7,1c0.4,0,0.9,0.1,1.2-0.4  C89.3,94.2,89.6,93.8,89.8,93.3z"
   id="path152"
   style="fill:#ffffff" />
<path
   class="st9"
   d="M113.2,115.6c0.5,0.5,0.9,1,1,1.7c-0.5,0.1-0.8-0.3-1.1-0.6C113.1,116.3,113.2,115.9,113.2,115.6"
   id="path154" />
<path
   class="st7"
   d="M141.1,89.4c0-0.1,0-0.2-0.1-0.2c0.1,0,0.1,0,0.2,0C141.2,89.2,141.1,89.3,141.1,89.4  C141.1,89.3,141.1,89.4,141.1,89.4"
   id="path156" />
<path
   class="st7"
   d="M65.4,116.2C65.3,116.2,65.3,116.2,65.4,116.2C65.3,116.2,65.4,116.2,65.4,116.2"
   id="path158" />
</svg>
